<?xml version="1.0" encoding="utf-8" standalone="no"?>
<!DOCTYPE svg PUBLIC "-//W3C//DTD SVG 1.1//EN"
  "http://www.w3.org/Graphics/SVG/1.1/DTD/svg11.dtd">
<svg xmlns:xlink="http://www.w3.org/1999/xlink" width="696.728153pt" height="407.493437pt" viewBox="0 0 696.728153 407.493437" xmlns="http://www.w3.org/2000/svg" version="1.1">
 <metadata>
  <rdf:RDF xmlns:dc="http://purl.org/dc/elements/1.1/" xmlns:cc="http://creativecommons.org/ns#" xmlns:rdf="http://www.w3.org/1999/02/22-rdf-syntax-ns#">
   <cc:Work>
    <dc:type rdf:resource="http://purl.org/dc/dcmitype/StillImage"/>
    <dc:date>2025-10-01T16:50:10.779155</dc:date>
    <dc:format>image/svg+xml</dc:format>
    <dc:creator>
     <cc:Agent>
      <dc:title>Matplotlib v3.10.6, https://matplotlib.org/</dc:title>
     </cc:Agent>
    </dc:creator>
   </cc:Work>
  </rdf:RDF>
 </metadata>
 <defs>
  <style type="text/css">*{stroke-linejoin: round; stroke-linecap: butt}</style>
 </defs>
 <g id="figure_1">
  <g id="patch_1">
   <path d="M 0 407.493437
L 696.728153 407.493437
L 696.728153 0
L 0 0
z
" style="fill: #ffffff"/>
  </g>
  <g id="axes_1">
   <g id="patch_2">
    <path d="M 73.73625 348.016562
L 689.528153 348.016562
L 689.528153 43.916562
L 73.73625 43.916562
z
" style="fill: #ffffff"/>
   </g>
   <g id="matplotlib.axis_1">
    <g id="xtick_1">
     <g id="line2d_1">
      <path d="M 124.247916 348.016562
L 124.247916 43.916562
" clip-path="url(#p051e211cd3)" style="fill: none; stroke-dasharray: 2.96,1.28; stroke-dashoffset: 0; stroke: #cccccc; stroke-opacity: 0.3; stroke-width: 0.8"/>
     </g>
     <g id="line2d_2">
      <defs>
       <path id="m6a8b91ace6" d="M 0 0
L 0 8
" style="stroke: #262626; stroke-width: 0.8"/>
      </defs>
      <g>
       <use xlink:href="#m6a8b91ace6" x="124.247916" y="348.016562" style="fill: #262626; stroke: #262626; stroke-width: 0.8"/>
      </g>
     </g>
     <g id="text_1">
      <!-- 12 -->
      <g style="fill: #262626" transform="translate(112.795416 373.19375) scale(0.18 -0.18)">
       <defs>
        <path id="DejaVuSerif-31" d="M 909 0
L 909 331
L 1722 331
L 1722 4213
L 781 3603
L 781 4013
L 1919 4750
L 2350 4750
L 2350 331
L 3163 331
L 3163 0
L 909 0
z
" transform="scale(0.015625)"/>
        <path id="DejaVuSerif-32" d="M 819 3553
L 469 3553
L 469 4384
Q 803 4563 1142 4656
Q 1481 4750 1806 4750
Q 2534 4750 2956 4397
Q 3378 4044 3378 3438
Q 3378 2753 2422 1800
Q 2347 1728 2309 1691
L 1131 513
L 3078 513
L 3078 1088
L 3444 1088
L 3444 0
L 434 0
L 434 341
L 1850 1753
Q 2319 2222 2519 2614
Q 2719 3006 2719 3438
Q 2719 3909 2473 4175
Q 2228 4441 1797 4441
Q 1350 4441 1106 4219
Q 863 3997 819 3553
z
" transform="scale(0.015625)"/>
       </defs>
       <use xlink:href="#DejaVuSerif-31"/>
       <use xlink:href="#DejaVuSerif-32" transform="translate(63.623047 0)"/>
      </g>
     </g>
    </g>
    <g id="xtick_2">
     <g id="line2d_3">
      <path d="M 188.593987 348.016562
L 188.593987 43.916562
" clip-path="url(#p051e211cd3)" style="fill: none; stroke-dasharray: 2.96,1.28; stroke-dashoffset: 0; stroke: #cccccc; stroke-opacity: 0.3; stroke-width: 0.8"/>
     </g>
     <g id="line2d_4">
      <g>
       <use xlink:href="#m6a8b91ace6" x="188.593987" y="348.016562" style="fill: #262626; stroke: #262626; stroke-width: 0.8"/>
      </g>
     </g>
     <g id="text_2">
      <!-- 13 -->
      <g style="fill: #262626" transform="translate(177.141487 373.19375) scale(0.18 -0.18)">
       <defs>
        <path id="DejaVuSerif-33" d="M 622 4469
Q 988 4606 1323 4678
Q 1659 4750 1953 4750
Q 2638 4750 3022 4454
Q 3406 4159 3406 3634
Q 3406 3213 3140 2930
Q 2875 2647 2388 2547
Q 2963 2466 3280 2130
Q 3597 1794 3597 1259
Q 3597 606 3158 257
Q 2719 -91 1894 -91
Q 1528 -91 1179 -12
Q 831 66 488 225
L 488 1131
L 838 1131
Q 869 681 1141 450
Q 1413 219 1906 219
Q 2384 219 2661 495
Q 2938 772 2938 1253
Q 2938 1803 2653 2086
Q 2369 2369 1819 2369
L 1522 2369
L 1522 2688
L 1678 2688
Q 2225 2688 2498 2914
Q 2772 3141 2772 3597
Q 2772 4006 2547 4223
Q 2322 4441 1900 4441
Q 1478 4441 1245 4241
Q 1013 4041 972 3647
L 622 3647
L 622 4469
z
" transform="scale(0.015625)"/>
       </defs>
       <use xlink:href="#DejaVuSerif-31"/>
       <use xlink:href="#DejaVuSerif-33" transform="translate(63.623047 0)"/>
      </g>
     </g>
    </g>
    <g id="xtick_3">
     <g id="line2d_5">
      <path d="M 252.940059 348.016562
L 252.940059 43.916562
" clip-path="url(#p051e211cd3)" style="fill: none; stroke-dasharray: 2.96,1.28; stroke-dashoffset: 0; stroke: #cccccc; stroke-opacity: 0.3; stroke-width: 0.8"/>
     </g>
     <g id="line2d_6">
      <g>
       <use xlink:href="#m6a8b91ace6" x="252.940059" y="348.016562" style="fill: #262626; stroke: #262626; stroke-width: 0.8"/>
      </g>
     </g>
     <g id="text_3">
      <!-- 14 -->
      <g style="fill: #262626" transform="translate(241.487559 373.19375) scale(0.18 -0.18)">
       <defs>
        <path id="DejaVuSerif-34" d="M 2234 1581
L 2234 4063
L 641 1581
L 2234 1581
z
M 3609 0
L 1484 0
L 1484 331
L 2234 331
L 2234 1247
L 197 1247
L 197 1588
L 2241 4750
L 2859 4750
L 2859 1581
L 3750 1581
L 3750 1247
L 2859 1247
L 2859 331
L 3609 331
L 3609 0
z
" transform="scale(0.015625)"/>
       </defs>
       <use xlink:href="#DejaVuSerif-31"/>
       <use xlink:href="#DejaVuSerif-34" transform="translate(63.623047 0)"/>
      </g>
     </g>
    </g>
    <g id="xtick_4">
     <g id="line2d_7">
      <path d="M 317.28613 348.016562
L 317.28613 43.916562
" clip-path="url(#p051e211cd3)" style="fill: none; stroke-dasharray: 2.96,1.28; stroke-dashoffset: 0; stroke: #cccccc; stroke-opacity: 0.3; stroke-width: 0.8"/>
     </g>
     <g id="line2d_8">
      <g>
       <use xlink:href="#m6a8b91ace6" x="317.28613" y="348.016562" style="fill: #262626; stroke: #262626; stroke-width: 0.8"/>
      </g>
     </g>
     <g id="text_4">
      <!-- 15 -->
      <g style="fill: #262626" transform="translate(305.83363 373.19375) scale(0.18 -0.18)">
       <defs>
        <path id="DejaVuSerif-35" d="M 3219 4666
L 3219 4153
L 1081 4153
L 1081 2816
Q 1244 2928 1461 2984
Q 1678 3041 1947 3041
Q 2703 3041 3140 2622
Q 3578 2203 3578 1478
Q 3578 738 3136 323
Q 2694 -91 1894 -91
Q 1572 -91 1234 -12
Q 897 66 544 225
L 544 1131
L 897 1131
Q 925 688 1179 453
Q 1434 219 1894 219
Q 2388 219 2653 544
Q 2919 869 2919 1478
Q 2919 2084 2655 2407
Q 2391 2731 1894 2731
Q 1613 2731 1398 2631
Q 1184 2531 1019 2322
L 750 2322
L 750 4666
L 3219 4666
z
" transform="scale(0.015625)"/>
       </defs>
       <use xlink:href="#DejaVuSerif-31"/>
       <use xlink:href="#DejaVuSerif-35" transform="translate(63.623047 0)"/>
      </g>
     </g>
    </g>
    <g id="xtick_5">
     <g id="line2d_9">
      <path d="M 381.632202 348.016562
L 381.632202 43.916562
" clip-path="url(#p051e211cd3)" style="fill: none; stroke-dasharray: 2.96,1.28; stroke-dashoffset: 0; stroke: #cccccc; stroke-opacity: 0.3; stroke-width: 0.8"/>
     </g>
     <g id="line2d_10">
      <g>
       <use xlink:href="#m6a8b91ace6" x="381.632202" y="348.016562" style="fill: #262626; stroke: #262626; stroke-width: 0.8"/>
      </g>
     </g>
     <g id="text_5">
      <!-- 16 -->
      <g style="fill: #262626" transform="translate(370.179702 373.19375) scale(0.18 -0.18)">
       <defs>
        <path id="DejaVuSerif-36" d="M 2094 219
Q 2534 219 2771 542
Q 3009 866 3009 1472
Q 3009 2078 2771 2401
Q 2534 2725 2094 2725
Q 1647 2725 1412 2412
Q 1178 2100 1178 1509
Q 1178 888 1415 553
Q 1653 219 2094 219
z
M 1075 2569
Q 1288 2803 1556 2918
Q 1825 3034 2163 3034
Q 2859 3034 3264 2615
Q 3669 2197 3669 1472
Q 3669 763 3233 336
Q 2797 -91 2069 -91
Q 1278 -91 853 498
Q 428 1088 428 2181
Q 428 3406 931 4078
Q 1434 4750 2350 4750
Q 2597 4750 2869 4703
Q 3141 4656 3425 4563
L 3425 3794
L 3072 3794
Q 3034 4109 2831 4275
Q 2628 4441 2284 4441
Q 1678 4441 1381 3981
Q 1084 3522 1075 2569
z
" transform="scale(0.015625)"/>
       </defs>
       <use xlink:href="#DejaVuSerif-31"/>
       <use xlink:href="#DejaVuSerif-36" transform="translate(63.623047 0)"/>
      </g>
     </g>
    </g>
    <g id="xtick_6">
     <g id="line2d_11">
      <path d="M 445.978273 348.016562
L 445.978273 43.916562
" clip-path="url(#p051e211cd3)" style="fill: none; stroke-dasharray: 2.96,1.28; stroke-dashoffset: 0; stroke: #cccccc; stroke-opacity: 0.3; stroke-width: 0.8"/>
     </g>
     <g id="line2d_12">
      <g>
       <use xlink:href="#m6a8b91ace6" x="445.978273" y="348.016562" style="fill: #262626; stroke: #262626; stroke-width: 0.8"/>
      </g>
     </g>
     <g id="text_6">
      <!-- 17 -->
      <g style="fill: #262626" transform="translate(434.525773 373.19375) scale(0.18 -0.18)">
       <defs>
        <path id="DejaVuSerif-37" d="M 3609 4347
L 1784 0
L 1319 0
L 3059 4153
L 903 4153
L 903 3578
L 538 3578
L 538 4666
L 3609 4666
L 3609 4347
z
" transform="scale(0.015625)"/>
       </defs>
       <use xlink:href="#DejaVuSerif-31"/>
       <use xlink:href="#DejaVuSerif-37" transform="translate(63.623047 0)"/>
      </g>
     </g>
    </g>
    <g id="xtick_7">
     <g id="line2d_13">
      <path d="M 510.324344 348.016562
L 510.324344 43.916562
" clip-path="url(#p051e211cd3)" style="fill: none; stroke-dasharray: 2.96,1.28; stroke-dashoffset: 0; stroke: #cccccc; stroke-opacity: 0.3; stroke-width: 0.8"/>
     </g>
     <g id="line2d_14">
      <g>
       <use xlink:href="#m6a8b91ace6" x="510.324344" y="348.016562" style="fill: #262626; stroke: #262626; stroke-width: 0.8"/>
      </g>
     </g>
     <g id="text_7">
      <!-- 18 -->
      <g style="fill: #262626" transform="translate(498.871844 373.19375) scale(0.18 -0.18)">
       <defs>
        <path id="DejaVuSerif-38" d="M 2981 1275
Q 2981 1775 2732 2051
Q 2484 2328 2034 2328
Q 1584 2328 1336 2051
Q 1088 1775 1088 1275
Q 1088 772 1336 495
Q 1584 219 2034 219
Q 2484 219 2732 495
Q 2981 772 2981 1275
z
M 2853 3541
Q 2853 3966 2637 4203
Q 2422 4441 2034 4441
Q 1650 4441 1433 4203
Q 1216 3966 1216 3541
Q 1216 3113 1433 2875
Q 1650 2638 2034 2638
Q 2422 2638 2637 2875
Q 2853 3113 2853 3541
z
M 2516 2484
Q 3047 2413 3344 2092
Q 3641 1772 3641 1275
Q 3641 619 3225 264
Q 2809 -91 2034 -91
Q 1263 -91 845 264
Q 428 619 428 1275
Q 428 1772 725 2092
Q 1022 2413 1556 2484
Q 1084 2569 832 2842
Q 581 3116 581 3541
Q 581 4103 968 4426
Q 1356 4750 2034 4750
Q 2713 4750 3100 4426
Q 3488 4103 3488 3541
Q 3488 3116 3236 2842
Q 2984 2569 2516 2484
z
" transform="scale(0.015625)"/>
       </defs>
       <use xlink:href="#DejaVuSerif-31"/>
       <use xlink:href="#DejaVuSerif-38" transform="translate(63.623047 0)"/>
      </g>
     </g>
    </g>
    <g id="xtick_8">
     <g id="line2d_15">
      <path d="M 574.670416 348.016562
L 574.670416 43.916562
" clip-path="url(#p051e211cd3)" style="fill: none; stroke-dasharray: 2.96,1.28; stroke-dashoffset: 0; stroke: #cccccc; stroke-opacity: 0.3; stroke-width: 0.8"/>
     </g>
     <g id="line2d_16">
      <g>
       <use xlink:href="#m6a8b91ace6" x="574.670416" y="348.016562" style="fill: #262626; stroke: #262626; stroke-width: 0.8"/>
      </g>
     </g>
     <g id="text_8">
      <!-- 19 -->
      <g style="fill: #262626" transform="translate(563.217916 373.19375) scale(0.18 -0.18)">
       <defs>
        <path id="DejaVuSerif-39" d="M 2994 2091
Q 2784 1856 2512 1740
Q 2241 1625 1900 1625
Q 1206 1625 804 2044
Q 403 2463 403 3188
Q 403 3897 839 4323
Q 1275 4750 2003 4750
Q 2794 4750 3217 4161
Q 3641 3572 3641 2478
Q 3641 1253 3137 581
Q 2634 -91 1722 -91
Q 1475 -91 1203 -44
Q 931 3 647 97
L 647 872
L 997 872
Q 1038 556 1241 387
Q 1444 219 1784 219
Q 2391 219 2687 676
Q 2984 1134 2994 2091
z
M 1978 4441
Q 1534 4441 1298 4117
Q 1063 3794 1063 3188
Q 1063 2581 1298 2256
Q 1534 1931 1978 1931
Q 2422 1931 2658 2245
Q 2894 2559 2894 3150
Q 2894 3772 2656 4106
Q 2419 4441 1978 4441
z
" transform="scale(0.015625)"/>
       </defs>
       <use xlink:href="#DejaVuSerif-31"/>
       <use xlink:href="#DejaVuSerif-39" transform="translate(63.623047 0)"/>
      </g>
     </g>
    </g>
    <g id="xtick_9">
     <g id="line2d_17">
      <path d="M 639.016487 348.016562
L 639.016487 43.916562
" clip-path="url(#p051e211cd3)" style="fill: none; stroke-dasharray: 2.96,1.28; stroke-dashoffset: 0; stroke: #cccccc; stroke-opacity: 0.3; stroke-width: 0.8"/>
     </g>
     <g id="line2d_18">
      <g>
       <use xlink:href="#m6a8b91ace6" x="639.016487" y="348.016562" style="fill: #262626; stroke: #262626; stroke-width: 0.8"/>
      </g>
     </g>
     <g id="text_9">
      <!-- 20 -->
      <g style="fill: #262626" transform="translate(627.563987 373.19375) scale(0.18 -0.18)">
       <defs>
        <path id="DejaVuSerif-30" d="M 2034 219
Q 2513 219 2750 744
Q 2988 1269 2988 2328
Q 2988 3391 2750 3916
Q 2513 4441 2034 4441
Q 1556 4441 1318 3916
Q 1081 3391 1081 2328
Q 1081 1269 1318 744
Q 1556 219 2034 219
z
M 2034 -91
Q 1275 -91 848 546
Q 422 1184 422 2328
Q 422 3475 848 4112
Q 1275 4750 2034 4750
Q 2797 4750 3222 4112
Q 3647 3475 3647 2328
Q 3647 1184 3222 546
Q 2797 -91 2034 -91
z
" transform="scale(0.015625)"/>
       </defs>
       <use xlink:href="#DejaVuSerif-32"/>
       <use xlink:href="#DejaVuSerif-30" transform="translate(63.623047 0)"/>
      </g>
     </g>
    </g>
    <g id="text_10">
     <!-- Request Rate (req/s) -->
     <g style="fill: #262626" transform="translate(265.757202 396.134062) scale(0.2 -0.2)">
      <defs>
       <path id="DejaVuSerif-Bold-52" d="M 3397 2278
Q 3675 2238 3865 2094
Q 4056 1950 4197 1678
L 4878 378
L 5356 378
L 5356 0
L 3822 0
L 3078 1409
Q 2863 1847 2711 1967
Q 2559 2088 2291 2088
L 2100 2088
L 2100 378
L 2700 378
L 2700 0
L 300 0
L 300 378
L 897 378
L 897 4288
L 300 4288
L 300 4666
L 2963 4666
Q 3775 4666 4217 4339
Q 4659 4013 4659 3413
Q 4659 2925 4345 2642
Q 4031 2359 3397 2278
z
M 2100 2463
L 2509 2463
Q 2947 2463 3183 2700
Q 3419 2938 3419 3378
Q 3419 3819 3183 4053
Q 2947 4288 2509 4288
L 2100 4288
L 2100 2463
z
" transform="scale(0.015625)"/>
       <path id="DejaVuSerif-Bold-65" d="M 2566 1875
Q 2566 2531 2444 2795
Q 2322 3059 2028 3059
Q 1744 3059 1620 2800
Q 1497 2541 1497 1931
L 1497 1875
L 2566 1875
z
M 3781 1503
L 1497 1503
L 1497 1478
Q 1497 834 1690 548
Q 1884 263 2316 263
Q 2675 263 2897 453
Q 3119 644 3181 1006
L 3700 1006
Q 3566 441 3166 175
Q 2766 -91 2047 -91
Q 1184 -91 723 364
Q 263 819 263 1663
Q 263 2488 734 2950
Q 1206 3413 2047 3413
Q 2872 3413 3312 2927
Q 3753 2441 3781 1503
z
" transform="scale(0.015625)"/>
       <path id="DejaVuSerif-Bold-71" d="M 3853 2944
L 3853 -953
L 4325 -953
L 4325 -1331
L 2234 -1331
L 2234 -953
L 2747 -953
L 2747 422
Q 2606 163 2367 36
Q 2128 -91 1778 -91
Q 1072 -91 667 378
Q 263 847 263 1663
Q 263 2481 667 2947
Q 1072 3413 1778 3413
Q 2128 3413 2367 3286
Q 2606 3159 2747 2900
L 2747 3322
L 4325 3322
L 4325 2944
L 3853 2944
z
M 2747 1825
Q 2747 2406 2597 2665
Q 2447 2925 2119 2925
Q 1775 2925 1636 2651
Q 1497 2378 1497 1663
Q 1497 947 1637 672
Q 1778 397 2119 397
Q 2447 397 2597 656
Q 2747 916 2747 1497
L 2747 1825
z
" transform="scale(0.015625)"/>
       <path id="DejaVuSerif-Bold-75" d="M 3963 3322
L 3963 378
L 4434 378
L 4434 0
L 2853 0
L 2853 469
Q 2656 172 2400 40
Q 2144 -91 1753 -91
Q 1194 -91 908 239
Q 622 569 622 1209
L 622 2944
L 147 2944
L 147 3322
L 1728 3322
L 1728 1381
Q 1728 763 1831 595
Q 1934 428 2209 428
Q 2544 428 2698 675
Q 2853 922 2853 1459
L 2853 2944
L 2450 2944
L 2450 3322
L 3963 3322
z
" transform="scale(0.015625)"/>
       <path id="DejaVuSerif-Bold-73" d="M 300 97
L 300 1025
L 653 1025
Q 697 653 931 458
Q 1166 263 1569 263
Q 1906 263 2086 380
Q 2266 497 2266 716
Q 2266 916 2152 1025
Q 2038 1134 1709 1216
L 1253 1331
Q 738 1459 506 1698
Q 275 1938 275 2344
Q 275 2884 650 3148
Q 1025 3413 1806 3413
Q 2100 3413 2433 3364
Q 2766 3316 3169 3213
L 3169 2375
L 2816 2375
Q 2788 2716 2573 2887
Q 2359 3059 1959 3059
Q 1622 3059 1448 2951
Q 1275 2844 1275 2638
Q 1275 2469 1375 2372
Q 1475 2275 1734 2209
L 2188 2094
Q 2841 1928 3091 1684
Q 3341 1441 3341 1006
Q 3341 444 2939 176
Q 2538 -91 1691 -91
Q 1381 -91 1034 -44
Q 688 3 300 97
z
" transform="scale(0.015625)"/>
       <path id="DejaVuSerif-Bold-74" d="M 634 2944
L 153 2944
L 153 3322
L 634 3322
L 634 4353
L 1741 4353
L 1741 3322
L 2663 3322
L 2663 2944
L 1741 2944
L 1741 909
Q 1741 475 1809 369
Q 1878 263 2059 263
Q 2259 263 2356 397
Q 2453 531 2459 813
L 2925 813
Q 2897 313 2651 111
Q 2406 -91 1806 -91
Q 1122 -91 878 123
Q 634 338 634 909
L 634 2944
z
" transform="scale(0.015625)"/>
       <path id="DejaVuSerif-Bold-20" transform="scale(0.015625)"/>
       <path id="DejaVuSerif-Bold-61" d="M 3525 2041
L 3525 378
L 4000 378
L 4000 0
L 2419 0
L 2419 422
Q 2200 159 1931 34
Q 1663 -91 1319 -91
Q 809 -91 536 182
Q 263 456 263 966
Q 263 1525 655 1803
Q 1047 2081 1838 2081
L 2419 2081
L 2419 2278
Q 2419 2681 2228 2873
Q 2038 3066 1638 3066
Q 1306 3066 1126 2930
Q 947 2794 872 2484
L 519 2484
L 519 3200
Q 816 3306 1134 3359
Q 1453 3413 1806 3413
Q 2697 3413 3111 3081
Q 3525 2750 3525 2041
z
M 2419 1044
L 2419 1709
L 2003 1709
Q 1694 1709 1528 1540
Q 1363 1372 1363 1056
Q 1363 741 1483 584
Q 1603 428 1850 428
Q 2106 428 2262 597
Q 2419 766 2419 1044
z
" transform="scale(0.015625)"/>
       <path id="DejaVuSerif-Bold-28" d="M 2694 -997
Q 1641 -606 1122 122
Q 603 850 603 1931
Q 603 3013 1115 3731
Q 1628 4450 2694 4863
L 2694 4488
Q 2200 4188 1983 3598
Q 1766 3009 1766 1931
Q 1766 856 1983 267
Q 2200 -322 2694 -622
L 2694 -997
z
" transform="scale(0.015625)"/>
       <path id="DejaVuSerif-Bold-72" d="M 3438 3359
L 3438 2369
L 3084 2369
Q 3066 2634 2941 2764
Q 2816 2894 2578 2894
Q 2216 2894 2006 2575
Q 1797 2256 1797 1691
L 1797 378
L 2400 378
L 2400 0
L 219 0
L 219 378
L 691 378
L 691 2944
L 184 2944
L 184 3322
L 1797 3322
L 1797 2731
Q 1959 3078 2226 3245
Q 2494 3413 2881 3413
Q 2978 3413 3117 3398
Q 3256 3384 3438 3359
z
" transform="scale(0.015625)"/>
       <path id="DejaVuSerif-Bold-2f" d="M 1644 4666
L 2338 4666
L 691 -594
L 0 -594
L 1644 4666
z
" transform="scale(0.015625)"/>
       <path id="DejaVuSerif-Bold-29" d="M 325 -997
L 325 -622
Q 819 -322 1036 267
Q 1253 856 1253 1931
Q 1253 3009 1036 3598
Q 819 4188 325 4488
L 325 4863
Q 1391 4450 1905 3731
Q 2419 3013 2419 1931
Q 2419 850 1898 122
Q 1378 -606 325 -997
z
" transform="scale(0.015625)"/>
      </defs>
      <use xlink:href="#DejaVuSerif-Bold-52"/>
      <use xlink:href="#DejaVuSerif-Bold-65" transform="translate(83.105469 0)"/>
      <use xlink:href="#DejaVuSerif-Bold-71" transform="translate(146.728516 0)"/>
      <use xlink:href="#DejaVuSerif-Bold-75" transform="translate(216.650391 0)"/>
      <use xlink:href="#DejaVuSerif-Bold-65" transform="translate(289.355469 0)"/>
      <use xlink:href="#DejaVuSerif-Bold-73" transform="translate(352.978516 0)"/>
      <use xlink:href="#DejaVuSerif-Bold-74" transform="translate(409.277344 0)"/>
      <use xlink:href="#DejaVuSerif-Bold-20" transform="translate(455.46875 0)"/>
      <use xlink:href="#DejaVuSerif-Bold-52" transform="translate(490.283203 0)"/>
      <use xlink:href="#DejaVuSerif-Bold-61" transform="translate(575.638672 0)"/>
      <use xlink:href="#DejaVuSerif-Bold-74" transform="translate(640.433594 0)"/>
      <use xlink:href="#DejaVuSerif-Bold-65" transform="translate(686.625 0)"/>
      <use xlink:href="#DejaVuSerif-Bold-20" transform="translate(750.248047 0)"/>
      <use xlink:href="#DejaVuSerif-Bold-28" transform="translate(785.0625 0)"/>
      <use xlink:href="#DejaVuSerif-Bold-72" transform="translate(832.376953 0)"/>
      <use xlink:href="#DejaVuSerif-Bold-65" transform="translate(885.0625 0)"/>
      <use xlink:href="#DejaVuSerif-Bold-71" transform="translate(948.685547 0)"/>
      <use xlink:href="#DejaVuSerif-Bold-2f" transform="translate(1018.607422 0)"/>
      <use xlink:href="#DejaVuSerif-Bold-73" transform="translate(1055.130859 0)"/>
      <use xlink:href="#DejaVuSerif-Bold-29" transform="translate(1111.429688 0)"/>
     </g>
    </g>
   </g>
   <g id="matplotlib.axis_2">
    <g id="ytick_1">
     <g id="line2d_19">
      <path d="M 73.73625 330.000632
L 689.528153 330.000632
" clip-path="url(#p051e211cd3)" style="fill: none; stroke-dasharray: 2.96,1.28; stroke-dashoffset: 0; stroke: #cccccc; stroke-opacity: 0.3; stroke-width: 0.8"/>
     </g>
     <g id="line2d_20">
      <defs>
       <path id="m629756052d" d="M 0 0
L -8 0
" style="stroke: #262626; stroke-width: 0.8"/>
      </defs>
      <g>
       <use xlink:href="#m629756052d" x="73.73625" y="330.000632" style="fill: #262626; stroke: #262626; stroke-width: 0.8"/>
      </g>
     </g>
     <g id="text_11">
      <!-- $\mathdefault{10^{2}}$ -->
      <g style="fill: #262626" transform="translate(30.55625 336.839226) scale(0.18 -0.18)">
       <use xlink:href="#DejaVuSerif-31" transform="translate(0 0.7125)"/>
       <use xlink:href="#DejaVuSerif-30" transform="translate(63.623047 0.7125)"/>
       <use xlink:href="#DejaVuSerif-32" transform="translate(128.154453 37.046875) scale(0.7)"/>
      </g>
     </g>
    </g>
    <g id="ytick_2">
     <g id="line2d_21">
      <path d="M 73.73625 160.356992
L 689.528153 160.356992
" clip-path="url(#p051e211cd3)" style="fill: none; stroke-dasharray: 2.96,1.28; stroke-dashoffset: 0; stroke: #cccccc; stroke-opacity: 0.3; stroke-width: 0.8"/>
     </g>
     <g id="line2d_22">
      <g>
       <use xlink:href="#m629756052d" x="73.73625" y="160.356992" style="fill: #262626; stroke: #262626; stroke-width: 0.8"/>
      </g>
     </g>
     <g id="text_12">
      <!-- $\mathdefault{10^{3}}$ -->
      <g style="fill: #262626" transform="translate(30.55625 167.195586) scale(0.18 -0.18)">
       <use xlink:href="#DejaVuSerif-31" transform="translate(0 0.7125)"/>
       <use xlink:href="#DejaVuSerif-30" transform="translate(63.623047 0.7125)"/>
       <use xlink:href="#DejaVuSerif-33" transform="translate(128.154453 37.046875) scale(0.7)"/>
      </g>
     </g>
    </g>
    <g id="ytick_3">
     <g id="line2d_23"/>
    </g>
    <g id="ytick_4">
     <g id="line2d_24"/>
    </g>
    <g id="ytick_5">
     <g id="line2d_25"/>
    </g>
    <g id="ytick_6">
     <g id="line2d_26"/>
    </g>
    <g id="ytick_7">
     <g id="line2d_27"/>
    </g>
    <g id="ytick_8">
     <g id="line2d_28"/>
    </g>
    <g id="ytick_9">
     <g id="line2d_29"/>
    </g>
    <g id="ytick_10">
     <g id="line2d_30"/>
    </g>
    <g id="ytick_11">
     <g id="line2d_31"/>
    </g>
    <g id="ytick_12">
     <g id="line2d_32"/>
    </g>
    <g id="ytick_13">
     <g id="line2d_33"/>
    </g>
    <g id="ytick_14">
     <g id="line2d_34"/>
    </g>
    <g id="ytick_15">
     <g id="line2d_35"/>
    </g>
    <g id="text_13">
     <!-- Mean TTFT (ms) -->
     <g style="fill: #262626" transform="translate(22.396875 288.847812) rotate(-90) scale(0.2 -0.2)">
      <defs>
       <path id="DejaVuSerif-Bold-4d" d="M 269 0
L 269 378
L 863 378
L 863 4288
L 269 4288
L 269 4666
L 2194 4666
L 3525 1672
L 4863 4666
L 6784 4666
L 6784 4288
L 6188 4288
L 6188 378
L 6784 378
L 6784 0
L 4384 0
L 4384 378
L 4978 378
L 4978 3938
L 3531 684
L 2741 684
L 1300 3938
L 1300 378
L 1894 378
L 1894 0
L 269 0
z
" transform="scale(0.015625)"/>
       <path id="DejaVuSerif-Bold-6e" d="M 219 0
L 219 378
L 691 378
L 691 2944
L 219 2944
L 219 3322
L 1797 3322
L 1797 2853
Q 1997 3150 2253 3281
Q 2509 3413 2900 3413
Q 3459 3413 3745 3083
Q 4031 2753 4031 2113
L 4031 378
L 4506 378
L 4506 0
L 2522 0
L 2522 378
L 2925 378
L 2925 2144
Q 2925 2566 2817 2730
Q 2709 2894 2444 2894
Q 2109 2894 1953 2648
Q 1797 2403 1797 1869
L 1797 378
L 2203 378
L 2203 0
L 219 0
z
" transform="scale(0.015625)"/>
       <path id="DejaVuSerif-Bold-54" d="M 1159 0
L 1159 378
L 1778 378
L 1778 4238
L 500 4238
L 500 3500
L 72 3500
L 72 4666
L 4697 4666
L 4697 3500
L 4275 3500
L 4275 4238
L 2988 4238
L 2988 378
L 3609 378
L 3609 0
L 1159 0
z
" transform="scale(0.015625)"/>
       <path id="DejaVuSerif-Bold-46" d="M 300 0
L 300 378
L 897 378
L 897 4288
L 300 4288
L 300 4666
L 4459 4666
L 4459 3566
L 4031 3566
L 4031 4238
L 2106 4238
L 2106 2741
L 3291 2741
L 3291 3334
L 3719 3334
L 3719 1722
L 3291 1722
L 3291 2316
L 2106 2316
L 2106 378
L 2841 378
L 2841 0
L 300 0
z
" transform="scale(0.015625)"/>
       <path id="DejaVuSerif-Bold-6d" d="M 3884 2778
Q 4116 3109 4384 3261
Q 4653 3413 5013 3413
Q 5584 3413 5867 3089
Q 6150 2766 6150 2113
L 6150 378
L 6625 378
L 6625 0
L 4647 0
L 4647 378
L 5044 378
L 5044 1947
Q 5044 2569 4948 2731
Q 4853 2894 4594 2894
Q 4300 2894 4137 2667
Q 3975 2441 3975 2022
L 3975 378
L 4372 378
L 4372 0
L 2472 0
L 2472 378
L 2869 378
L 2869 1947
Q 2869 2569 2772 2731
Q 2675 2894 2419 2894
Q 2122 2894 1959 2667
Q 1797 2441 1797 2022
L 1797 378
L 2194 378
L 2194 0
L 219 0
L 219 378
L 691 378
L 691 2944
L 219 2944
L 219 3322
L 1797 3322
L 1797 2853
Q 1991 3144 2241 3278
Q 2491 3413 2834 3413
Q 3241 3413 3494 3258
Q 3747 3103 3884 2778
z
" transform="scale(0.015625)"/>
      </defs>
      <use xlink:href="#DejaVuSerif-Bold-4d"/>
      <use xlink:href="#DejaVuSerif-Bold-65" transform="translate(110.693359 0)"/>
      <use xlink:href="#DejaVuSerif-Bold-61" transform="translate(174.316406 0)"/>
      <use xlink:href="#DejaVuSerif-Bold-6e" transform="translate(239.111328 0)"/>
      <use xlink:href="#DejaVuSerif-Bold-20" transform="translate(311.816406 0)"/>
      <use xlink:href="#DejaVuSerif-Bold-54" transform="translate(346.630859 0)"/>
      <use xlink:href="#DejaVuSerif-Bold-54" transform="translate(417.419922 0)"/>
      <use xlink:href="#DejaVuSerif-Bold-46" transform="translate(491.833984 0)"/>
      <use xlink:href="#DejaVuSerif-Bold-54" transform="translate(562.830078 0)"/>
      <use xlink:href="#DejaVuSerif-Bold-20" transform="translate(637.244141 0)"/>
      <use xlink:href="#DejaVuSerif-Bold-28" transform="translate(672.058594 0)"/>
      <use xlink:href="#DejaVuSerif-Bold-6d" transform="translate(719.373047 0)"/>
      <use xlink:href="#DejaVuSerif-Bold-73" transform="translate(825.183594 0)"/>
      <use xlink:href="#DejaVuSerif-Bold-29" transform="translate(881.482422 0)"/>
     </g>
    </g>
   </g>
   <g id="patch_3">
    <path d="M 101.726791 170312.927592
L 124.247916 170312.927592
L 124.247916 331.620651
L 101.726791 331.620651
z
" clip-path="url(#p051e211cd3)" style="fill: #ff6b35; opacity: 0.85; stroke: #000000; stroke-width: 0.8; stroke-linejoin: miter"/>
   </g>
   <g id="patch_4">
    <path d="M 166.072862 170312.927592
L 188.593987 170312.927592
L 188.593987 325.658586
L 166.072862 325.658586
z
" clip-path="url(#p051e211cd3)" style="fill: #ff6b35; opacity: 0.85; stroke: #000000; stroke-width: 0.8; stroke-linejoin: miter"/>
   </g>
   <g id="patch_5">
    <path d="M 230.418934 170312.927592
L 252.940059 170312.927592
L 252.940059 317.534552
L 230.418934 317.534552
z
" clip-path="url(#p051e211cd3)" style="fill: #ff6b35; opacity: 0.85; stroke: #000000; stroke-width: 0.8; stroke-linejoin: miter"/>
   </g>
   <g id="patch_6">
    <path d="M 294.765005 170312.927592
L 317.28613 170312.927592
L 317.28613 311.341301
L 294.765005 311.341301
z
" clip-path="url(#p051e211cd3)" style="fill: #ff6b35; opacity: 0.85; stroke: #000000; stroke-width: 0.8; stroke-linejoin: miter"/>
   </g>
   <g id="patch_7">
    <path d="M 359.111077 170312.927592
L 381.632202 170312.927592
L 381.632202 307.919802
L 359.111077 307.919802
z
" clip-path="url(#p051e211cd3)" style="fill: #ff6b35; opacity: 0.85; stroke: #000000; stroke-width: 0.8; stroke-linejoin: miter"/>
   </g>
   <g id="patch_8">
    <path d="M 423.457148 170312.927592
L 445.978273 170312.927592
L 445.978273 274.889792
L 423.457148 274.889792
z
" clip-path="url(#p051e211cd3)" style="fill: #ff6b35; opacity: 0.85; stroke: #000000; stroke-width: 0.8; stroke-linejoin: miter"/>
   </g>
   <g id="patch_9">
    <path d="M 487.803219 170312.927592
L 510.324344 170312.927592
L 510.324344 208.885367
L 487.803219 208.885367
z
" clip-path="url(#p051e211cd3)" style="fill: #ff6b35; opacity: 0.85; stroke: #000000; stroke-width: 0.8; stroke-linejoin: miter"/>
   </g>
   <g id="patch_10">
    <path d="M 552.149291 170312.927592
L 574.670416 170312.927592
L 574.670416 145.593534
L 552.149291 145.593534
z
" clip-path="url(#p051e211cd3)" style="fill: #ff6b35; opacity: 0.85; stroke: #000000; stroke-width: 0.8; stroke-linejoin: miter"/>
   </g>
   <g id="patch_11">
    <path d="M 616.495362 170312.927592
L 639.016487 170312.927592
L 639.016487 108.304706
L 616.495362 108.304706
z
" clip-path="url(#p051e211cd3)" style="fill: #ff6b35; opacity: 0.85; stroke: #000000; stroke-width: 0.8; stroke-linejoin: miter"/>
   </g>
   <g id="patch_12">
    <path d="M 124.247916 170312.927592
L 146.769041 170312.927592
L 146.769041 334.193835
L 124.247916 334.193835
z
" clip-path="url(#p051e211cd3)" style="fill: #004e89; opacity: 0.85; stroke: #000000; stroke-width: 0.8; stroke-linejoin: miter"/>
   </g>
   <g id="patch_13">
    <path d="M 188.593987 170312.927592
L 211.115112 170312.927592
L 211.115112 330.195794
L 188.593987 330.195794
z
" clip-path="url(#p051e211cd3)" style="fill: #004e89; opacity: 0.85; stroke: #000000; stroke-width: 0.8; stroke-linejoin: miter"/>
   </g>
   <g id="patch_14">
    <path d="M 252.940059 170312.927592
L 275.461184 170312.927592
L 275.461184 322.156235
L 252.940059 322.156235
z
" clip-path="url(#p051e211cd3)" style="fill: #004e89; opacity: 0.85; stroke: #000000; stroke-width: 0.8; stroke-linejoin: miter"/>
   </g>
   <g id="patch_15">
    <path d="M 317.28613 170312.927592
L 339.807255 170312.927592
L 339.807255 242.463162
L 317.28613 242.463162
z
" clip-path="url(#p051e211cd3)" style="fill: #004e89; opacity: 0.85; stroke: #000000; stroke-width: 0.8; stroke-linejoin: miter"/>
   </g>
   <g id="patch_16">
    <path d="M 381.632202 170312.927592
L 404.153327 170312.927592
L 404.153327 173.249088
L 381.632202 173.249088
z
" clip-path="url(#p051e211cd3)" style="fill: #004e89; opacity: 0.85; stroke: #000000; stroke-width: 0.8; stroke-linejoin: miter"/>
   </g>
   <g id="patch_17">
    <path d="M 445.978273 170312.927592
L 468.499398 170312.927592
L 468.499398 125.768801
L 445.978273 125.768801
z
" clip-path="url(#p051e211cd3)" style="fill: #004e89; opacity: 0.85; stroke: #000000; stroke-width: 0.8; stroke-linejoin: miter"/>
   </g>
   <g id="patch_18">
    <path d="M 510.324344 170312.927592
L 532.845469 170312.927592
L 532.845469 96.513282
L 510.324344 96.513282
z
" clip-path="url(#p051e211cd3)" style="fill: #004e89; opacity: 0.85; stroke: #000000; stroke-width: 0.8; stroke-linejoin: miter"/>
   </g>
   <g id="patch_19">
    <path d="M 574.670416 170312.927592
L 597.191541 170312.927592
L 597.191541 75.482315
L 574.670416 75.482315
z
" clip-path="url(#p051e211cd3)" style="fill: #004e89; opacity: 0.85; stroke: #000000; stroke-width: 0.8; stroke-linejoin: miter"/>
   </g>
   <g id="patch_20">
    <path d="M 639.016487 170312.927592
L 661.537612 170312.927592
L 661.537612 57.73929
L 639.016487 57.73929
z
" clip-path="url(#p051e211cd3)" style="fill: #004e89; opacity: 0.85; stroke: #000000; stroke-width: 0.8; stroke-linejoin: miter"/>
   </g>
   <g id="patch_21">
    <path d="M 73.73625 348.016562
L 73.73625 43.916563
" style="fill: none; stroke: #262626; stroke-width: 1.2; stroke-linejoin: miter; stroke-linecap: square"/>
   </g>
   <g id="patch_22">
    <path d="M 73.73625 348.016562
L 689.528153 348.016562
" style="fill: none; stroke: #262626; stroke-width: 1.2; stroke-linejoin: miter; stroke-linecap: square"/>
   </g>
   <g id="text_14">
    <g id="patch_23">
     <path d="M 103.626666 330.750523
L 144.869166 330.750523
Q 149.669166 330.750523 149.669166 325.950523
L 149.669166 310.465523
Q 149.669166 305.665523 144.869166 305.665523
L 103.626666 305.665523
Q 98.826666 305.665523 98.826666 310.465523
L 98.826666 325.950523
Q 98.826666 330.750523 103.626666 330.750523
z
" style="fill: #2e7d32; opacity: 0.9; stroke: #000000; stroke-linejoin: miter"/>
    </g>
    <!-- 1.0× -->
    <g style="fill: #ffffff" transform="translate(103.626666 322.623023) scale(0.16 -0.16)">
     <defs>
      <path id="DejaVuSerif-Bold-31" d="M 878 0
L 878 378
L 1753 378
L 1753 4153
L 781 3578
L 781 4044
L 1953 4750
L 2938 4750
L 2938 378
L 3816 378
L 3816 0
L 878 0
z
" transform="scale(0.015625)"/>
      <path id="DejaVuSerif-Bold-2e" d="M 519 506
Q 519 750 694 925
Q 869 1100 1113 1100
Q 1359 1100 1534 925
Q 1709 750 1709 506
Q 1709 259 1534 84
Q 1359 -91 1113 -91
Q 869 -91 694 84
Q 519 259 519 506
z
" transform="scale(0.015625)"/>
      <path id="DejaVuSerif-Bold-30" d="M 2228 275
Q 2603 275 2742 615
Q 2881 956 2881 2328
Q 2881 3691 2742 4037
Q 2603 4384 2228 4384
Q 1853 4384 1714 4043
Q 1575 3703 1575 2328
Q 1575 956 1714 615
Q 1853 275 2228 275
z
M 2228 -91
Q 1294 -91 797 532
Q 300 1156 300 2328
Q 300 3500 797 4125
Q 1294 4750 2228 4750
Q 3159 4750 3656 4125
Q 4153 3500 4153 2328
Q 4153 1156 3656 532
Q 3159 -91 2228 -91
z
" transform="scale(0.015625)"/>
      <path id="DejaVuSerif-Bold-d7" d="M 4538 3378
L 3163 2003
L 4538 628
L 4056 147
L 2681 1522
L 1306 147
L 825 628
L 2203 2003
L 825 3378
L 1306 3866
L 2681 2491
L 4056 3866
L 4538 3378
z
" transform="scale(0.015625)"/>
     </defs>
     <use xlink:href="#DejaVuSerif-Bold-31"/>
     <use xlink:href="#DejaVuSerif-Bold-2e" transform="translate(69.580078 0)"/>
     <use xlink:href="#DejaVuSerif-Bold-30" transform="translate(104.394531 0)"/>
     <use xlink:href="#DejaVuSerif-Bold-d7" transform="translate(173.974609 0)"/>
    </g>
   </g>
   <g id="text_15">
    <g id="patch_24">
     <path d="M 167.972737 324.788458
L 209.215237 324.788458
Q 214.015237 324.788458 214.015237 319.988458
L 214.015237 304.503458
Q 214.015237 299.703458 209.215237 299.703458
L 167.972737 299.703458
Q 163.172737 299.703458 163.172737 304.503458
L 163.172737 319.988458
Q 163.172737 324.788458 167.972737 324.788458
z
" style="fill: #2e7d32; opacity: 0.9; stroke: #000000; stroke-linejoin: miter"/>
    </g>
    <!-- 0.9× -->
    <g style="fill: #ffffff" transform="translate(167.972737 316.660958) scale(0.16 -0.16)">
     <defs>
      <path id="DejaVuSerif-Bold-39" d="M 2181 4384
Q 1859 4384 1723 4111
Q 1588 3838 1588 3163
Q 1588 2488 1723 2214
Q 1859 1941 2181 1941
Q 2503 1941 2640 2214
Q 2778 2488 2778 3163
Q 2778 3838 2640 4111
Q 2503 4384 2181 4384
z
M 2878 1900
Q 2672 1734 2420 1651
Q 2169 1569 1875 1569
Q 1163 1569 755 1986
Q 347 2403 347 3138
Q 347 3913 803 4331
Q 1259 4750 2106 4750
Q 3063 4750 3556 4172
Q 4050 3594 4050 2478
Q 4050 1206 3503 557
Q 2956 -91 1881 -91
Q 1600 -91 1278 -44
Q 956 3 588 97
L 588 922
L 966 922
Q 1044 603 1261 439
Q 1478 275 1825 275
Q 2375 275 2625 658
Q 2875 1041 2878 1900
z
" transform="scale(0.015625)"/>
     </defs>
     <use xlink:href="#DejaVuSerif-Bold-30"/>
     <use xlink:href="#DejaVuSerif-Bold-2e" transform="translate(69.580078 0)"/>
     <use xlink:href="#DejaVuSerif-Bold-39" transform="translate(104.394531 0)"/>
     <use xlink:href="#DejaVuSerif-Bold-d7" transform="translate(173.974609 0)"/>
    </g>
   </g>
   <g id="text_16">
    <g id="patch_25">
     <path d="M 232.318809 316.664424
L 273.561309 316.664424
Q 278.361309 316.664424 278.361309 311.864424
L 278.361309 296.379424
Q 278.361309 291.579424 273.561309 291.579424
L 232.318809 291.579424
Q 227.518809 291.579424 227.518809 296.379424
L 227.518809 311.864424
Q 227.518809 316.664424 232.318809 316.664424
z
" style="fill: #2e7d32; opacity: 0.9; stroke: #000000; stroke-linejoin: miter"/>
    </g>
    <!-- 0.9× -->
    <g style="fill: #ffffff" transform="translate(232.318809 308.536924) scale(0.16 -0.16)">
     <use xlink:href="#DejaVuSerif-Bold-30"/>
     <use xlink:href="#DejaVuSerif-Bold-2e" transform="translate(69.580078 0)"/>
     <use xlink:href="#DejaVuSerif-Bold-39" transform="translate(104.394531 0)"/>
     <use xlink:href="#DejaVuSerif-Bold-d7" transform="translate(173.974609 0)"/>
    </g>
   </g>
   <g id="text_17">
    <g id="patch_26">
     <path d="M 296.66488 241.593034
L 337.90738 241.593034
Q 342.70738 241.593034 342.70738 236.793034
L 342.70738 221.308034
Q 342.70738 216.508034 337.90738 216.508034
L 296.66488 216.508034
Q 291.86488 216.508034 291.86488 221.308034
L 291.86488 236.793034
Q 291.86488 241.593034 296.66488 241.593034
z
" style="fill: #2e7d32; opacity: 0.9; stroke: #000000; stroke-linejoin: miter"/>
    </g>
    <!-- 2.5× -->
    <g style="fill: #ffffff" transform="translate(296.66488 233.465534) scale(0.16 -0.16)">
     <defs>
      <path id="DejaVuSerif-Bold-32" d="M 844 3513
L 469 3513
L 469 4519
Q 850 4634 1223 4692
Q 1597 4750 1978 4750
Q 2869 4750 3367 4386
Q 3866 4022 3866 3372
Q 3866 2909 3591 2542
Q 3316 2175 2541 1672
L 1241 819
L 3450 819
L 3450 1369
L 3878 1369
L 3878 0
L 428 0
L 428 763
L 1119 1241
Q 2003 1850 2297 2278
Q 2591 2706 2591 3278
Q 2591 3819 2367 4101
Q 2144 4384 1716 4384
Q 1347 4384 1125 4161
Q 903 3938 844 3513
z
" transform="scale(0.015625)"/>
      <path id="DejaVuSerif-Bold-35" d="M 3609 4666
L 3609 3847
L 1113 3847
L 1113 2822
Q 1319 2981 1572 3062
Q 1825 3144 2106 3144
Q 2969 3144 3469 2708
Q 3969 2272 3969 1522
Q 3969 759 3469 334
Q 2969 -91 2069 -91
Q 1688 -91 1311 -28
Q 934 34 525 166
L 525 1184
L 900 1184
Q 919 725 1139 500
Q 1359 275 1791 275
Q 2250 275 2472 583
Q 2694 891 2694 1522
Q 2694 2144 2476 2451
Q 2259 2759 1819 2759
Q 1581 2759 1395 2661
Q 1209 2563 1050 2356
L 738 2356
L 738 4666
L 3609 4666
z
" transform="scale(0.015625)"/>
     </defs>
     <use xlink:href="#DejaVuSerif-Bold-32"/>
     <use xlink:href="#DejaVuSerif-Bold-2e" transform="translate(69.580078 0)"/>
     <use xlink:href="#DejaVuSerif-Bold-35" transform="translate(104.394531 0)"/>
     <use xlink:href="#DejaVuSerif-Bold-d7" transform="translate(173.974609 0)"/>
    </g>
   </g>
   <g id="text_18">
    <g id="patch_27">
     <path d="M 361.010952 172.378961
L 402.253452 172.378961
Q 407.053452 172.378961 407.053452 167.578961
L 407.053452 152.093961
Q 407.053452 147.293961 402.253452 147.293961
L 361.010952 147.293961
Q 356.210952 147.293961 356.210952 152.093961
L 356.210952 167.578961
Q 356.210952 172.378961 361.010952 172.378961
z
" style="fill: #2e7d32; opacity: 0.9; stroke: #000000; stroke-linejoin: miter"/>
    </g>
    <!-- 6.2× -->
    <g style="fill: #ffffff" transform="translate(361.010952 164.251461) scale(0.16 -0.16)">
     <defs>
      <path id="DejaVuSerif-Bold-36" d="M 1575 2766
Q 1778 2928 2029 3009
Q 2281 3091 2578 3091
Q 3294 3091 3701 2672
Q 4109 2253 4109 1522
Q 4109 750 3650 329
Q 3191 -91 2344 -91
Q 1388 -91 895 486
Q 403 1063 403 2181
Q 403 3453 950 4101
Q 1497 4750 2572 4750
Q 2853 4750 3175 4703
Q 3497 4656 3866 4563
L 3866 3738
L 3488 3738
Q 3409 4056 3192 4220
Q 2975 4384 2631 4384
Q 2075 4384 1826 4003
Q 1578 3622 1575 2766
z
M 2272 275
Q 2594 275 2731 548
Q 2869 822 2869 1497
Q 2869 2172 2731 2445
Q 2594 2719 2272 2719
Q 1950 2719 1814 2445
Q 1678 2172 1678 1497
Q 1678 822 1814 548
Q 1950 275 2272 275
z
" transform="scale(0.015625)"/>
     </defs>
     <use xlink:href="#DejaVuSerif-Bold-36"/>
     <use xlink:href="#DejaVuSerif-Bold-2e" transform="translate(69.580078 0)"/>
     <use xlink:href="#DejaVuSerif-Bold-32" transform="translate(104.394531 0)"/>
     <use xlink:href="#DejaVuSerif-Bold-d7" transform="translate(173.974609 0)"/>
    </g>
   </g>
   <g id="text_19">
    <g id="patch_28">
     <path d="M 425.357023 124.898673
L 466.599523 124.898673
Q 471.399523 124.898673 471.399523 120.098673
L 471.399523 104.613673
Q 471.399523 99.813673 466.599523 99.813673
L 425.357023 99.813673
Q 420.557023 99.813673 420.557023 104.613673
L 420.557023 120.098673
Q 420.557023 124.898673 425.357023 124.898673
z
" style="fill: #2e7d32; opacity: 0.9; stroke: #000000; stroke-linejoin: miter"/>
    </g>
    <!-- 7.6× -->
    <g style="fill: #ffffff" transform="translate(425.357023 116.771173) scale(0.16 -0.16)">
     <defs>
      <path id="DejaVuSerif-Bold-37" d="M 3922 3872
L 1997 0
L 1363 0
L 3238 3781
L 934 3781
L 934 3150
L 506 3150
L 506 4666
L 3922 4666
L 3922 3872
z
" transform="scale(0.015625)"/>
     </defs>
     <use xlink:href="#DejaVuSerif-Bold-37"/>
     <use xlink:href="#DejaVuSerif-Bold-2e" transform="translate(69.580078 0)"/>
     <use xlink:href="#DejaVuSerif-Bold-36" transform="translate(104.394531 0)"/>
     <use xlink:href="#DejaVuSerif-Bold-d7" transform="translate(173.974609 0)"/>
    </g>
   </g>
   <g id="text_20">
    <g id="patch_29">
     <path d="M 489.703094 95.643155
L 530.945594 95.643155
Q 535.745594 95.643155 535.745594 90.843155
L 535.745594 75.358155
Q 535.745594 70.558155 530.945594 70.558155
L 489.703094 70.558155
Q 484.903094 70.558155 484.903094 75.358155
L 484.903094 90.843155
Q 484.903094 95.643155 489.703094 95.643155
z
" style="fill: #2e7d32; opacity: 0.9; stroke: #000000; stroke-linejoin: miter"/>
    </g>
    <!-- 4.6× -->
    <g style="fill: #ffffff" transform="translate(489.703094 87.515655) scale(0.16 -0.16)">
     <defs>
      <path id="DejaVuSerif-Bold-34" d="M 4084 0
L 1516 0
L 1516 378
L 2209 378
L 2209 1228
L 263 1228
L 263 1588
L 2216 4750
L 3391 4750
L 3391 1631
L 4191 1631
L 4191 1228
L 3391 1228
L 3391 378
L 4084 378
L 4084 0
z
M 2209 1631
L 2209 3897
L 819 1631
L 2209 1631
z
" transform="scale(0.015625)"/>
     </defs>
     <use xlink:href="#DejaVuSerif-Bold-34"/>
     <use xlink:href="#DejaVuSerif-Bold-2e" transform="translate(69.580078 0)"/>
     <use xlink:href="#DejaVuSerif-Bold-36" transform="translate(104.394531 0)"/>
     <use xlink:href="#DejaVuSerif-Bold-d7" transform="translate(173.974609 0)"/>
    </g>
   </g>
   <g id="text_21">
    <g id="patch_30">
     <path d="M 554.049166 74.612187
L 595.291666 74.612187
Q 600.091666 74.612187 600.091666 69.812187
L 600.091666 54.327187
Q 600.091666 49.527187 595.291666 49.527187
L 554.049166 49.527187
Q 549.249166 49.527187 549.249166 54.327187
L 549.249166 69.812187
Q 549.249166 74.612187 554.049166 74.612187
z
" style="fill: #2e7d32; opacity: 0.9; stroke: #000000; stroke-linejoin: miter"/>
    </g>
    <!-- 2.6× -->
    <g style="fill: #ffffff" transform="translate(554.049166 66.484687) scale(0.16 -0.16)">
     <use xlink:href="#DejaVuSerif-Bold-32"/>
     <use xlink:href="#DejaVuSerif-Bold-2e" transform="translate(69.580078 0)"/>
     <use xlink:href="#DejaVuSerif-Bold-36" transform="translate(104.394531 0)"/>
     <use xlink:href="#DejaVuSerif-Bold-d7" transform="translate(173.974609 0)"/>
    </g>
   </g>
   <g id="text_22">
    <g id="patch_31">
     <path d="M 618.395237 56.869162
L 659.637737 56.869162
Q 664.437737 56.869162 664.437737 52.069162
L 664.437737 36.584162
Q 664.437737 31.784162 659.637737 31.784162
L 618.395237 31.784162
Q 613.595237 31.784162 613.595237 36.584162
L 613.595237 52.069162
Q 613.595237 56.869162 618.395237 56.869162
z
" style="fill: #2e7d32; opacity: 0.9; stroke: #000000; stroke-linejoin: miter"/>
    </g>
    <!-- 2.0× -->
    <g style="fill: #ffffff" transform="translate(618.395237 48.741662) scale(0.16 -0.16)">
     <use xlink:href="#DejaVuSerif-Bold-32"/>
     <use xlink:href="#DejaVuSerif-Bold-2e" transform="translate(69.580078 0)"/>
     <use xlink:href="#DejaVuSerif-Bold-30" transform="translate(104.394531 0)"/>
     <use xlink:href="#DejaVuSerif-Bold-d7" transform="translate(173.974609 0)"/>
    </g>
   </g>
   <g id="text_23">
    <!-- Mean Time to First Token -->
    <g style="fill: #262626" transform="translate(222.661577 23.916562) scale(0.22 -0.22)">
     <defs>
      <path id="DejaVuSerif-Bold-69" d="M 588 4263
Q 588 4516 763 4689
Q 938 4863 1191 4863
Q 1438 4863 1611 4689
Q 1784 4516 1784 4263
Q 1784 4016 1611 3842
Q 1438 3669 1191 3669
Q 938 3669 763 3841
Q 588 4013 588 4263
z
M 1797 378
L 2272 378
L 2272 0
L 219 0
L 219 378
L 691 378
L 691 2944
L 219 2944
L 219 3322
L 1797 3322
L 1797 378
z
" transform="scale(0.015625)"/>
      <path id="DejaVuSerif-Bold-6f" d="M 2138 263
Q 2488 263 2630 563
Q 2772 863 2772 1663
Q 2772 2463 2631 2761
Q 2491 3059 2138 3059
Q 1784 3059 1640 2757
Q 1497 2456 1497 1663
Q 1497 869 1640 566
Q 1784 263 2138 263
z
M 2138 -91
Q 1259 -91 761 376
Q 263 844 263 1663
Q 263 2484 761 2948
Q 1259 3413 2138 3413
Q 3019 3413 3516 2948
Q 4013 2484 4013 1663
Q 4013 844 3514 376
Q 3016 -91 2138 -91
z
" transform="scale(0.015625)"/>
      <path id="DejaVuSerif-Bold-6b" d="M 2216 0
L 219 0
L 219 378
L 691 378
L 691 4488
L 219 4488
L 219 4863
L 1797 4863
L 1797 1741
L 3138 2944
L 2741 2944
L 2741 3322
L 4256 3322
L 4256 2944
L 3641 2944
L 2784 2175
L 4184 378
L 4544 378
L 4544 0
L 2638 0
L 2638 378
L 3028 378
L 2106 1563
L 1797 1288
L 1797 378
L 2216 378
L 2216 0
z
" transform="scale(0.015625)"/>
     </defs>
     <use xlink:href="#DejaVuSerif-Bold-4d"/>
     <use xlink:href="#DejaVuSerif-Bold-65" transform="translate(110.693359 0)"/>
     <use xlink:href="#DejaVuSerif-Bold-61" transform="translate(174.316406 0)"/>
     <use xlink:href="#DejaVuSerif-Bold-6e" transform="translate(239.111328 0)"/>
     <use xlink:href="#DejaVuSerif-Bold-20" transform="translate(311.816406 0)"/>
     <use xlink:href="#DejaVuSerif-Bold-54" transform="translate(346.630859 0)"/>
     <use xlink:href="#DejaVuSerif-Bold-69" transform="translate(421.044922 0)"/>
     <use xlink:href="#DejaVuSerif-Bold-6d" transform="translate(459.033203 0)"/>
     <use xlink:href="#DejaVuSerif-Bold-65" transform="translate(564.84375 0)"/>
     <use xlink:href="#DejaVuSerif-Bold-20" transform="translate(628.466797 0)"/>
     <use xlink:href="#DejaVuSerif-Bold-74" transform="translate(663.28125 0)"/>
     <use xlink:href="#DejaVuSerif-Bold-6f" transform="translate(709.472656 0)"/>
     <use xlink:href="#DejaVuSerif-Bold-20" transform="translate(776.171875 0)"/>
     <use xlink:href="#DejaVuSerif-Bold-46" transform="translate(810.986328 0)"/>
     <use xlink:href="#DejaVuSerif-Bold-69" transform="translate(881.982422 0)"/>
     <use xlink:href="#DejaVuSerif-Bold-72" transform="translate(919.970703 0)"/>
     <use xlink:href="#DejaVuSerif-Bold-73" transform="translate(972.65625 0)"/>
     <use xlink:href="#DejaVuSerif-Bold-74" transform="translate(1028.955078 0)"/>
     <use xlink:href="#DejaVuSerif-Bold-20" transform="translate(1075.146484 0)"/>
     <use xlink:href="#DejaVuSerif-Bold-54" transform="translate(1109.960938 0)"/>
     <use xlink:href="#DejaVuSerif-Bold-6f" transform="translate(1172.875 0)"/>
     <use xlink:href="#DejaVuSerif-Bold-6b" transform="translate(1239.574219 0)"/>
     <use xlink:href="#DejaVuSerif-Bold-65" transform="translate(1308.861328 0)"/>
     <use xlink:href="#DejaVuSerif-Bold-6e" transform="translate(1372.484375 0)"/>
    </g>
   </g>
   <g id="legend_1">
    <g id="patch_32">
     <path d="M 86.33625 111.157812
L 275.386875 111.157812
Q 278.986875 111.157812 278.986875 107.557812
L 278.986875 56.516563
Q 278.986875 52.916562 275.386875 52.916562
L 86.33625 52.916562
Q 82.73625 52.916562 82.73625 56.516563
L 82.73625 107.557812
Q 82.73625 111.157812 86.33625 111.157812
z
" style="fill: #ffffff; opacity: 0.95; stroke: #cccccc; stroke-linejoin: miter"/>
    </g>
    <g id="patch_33">
     <path d="M 89.93625 73.79375
L 125.93625 73.79375
L 125.93625 61.19375
L 89.93625 61.19375
z
" style="fill: #ff6b35; opacity: 0.85; stroke: #000000; stroke-width: 0.8; stroke-linejoin: miter"/>
    </g>
    <g id="text_24">
     <!-- with kvcached -->
     <g style="fill: #262626" transform="translate(140.33625 73.79375) scale(0.18 -0.18)">
      <defs>
       <path id="DejaVuSerif-77" d="M 3072 3322
L 3922 728
L 4672 2988
L 4191 2988
L 4191 3322
L 5394 3322
L 5394 2988
L 5025 2988
L 4038 0
L 3559 0
L 2741 2484
L 1919 0
L 1459 0
L 475 2988
L 103 2988
L 103 3322
L 1606 3322
L 1606 2988
L 1069 2988
L 1813 728
L 2669 3322
L 3072 3322
z
" transform="scale(0.015625)"/>
       <path id="DejaVuSerif-69" d="M 622 4353
Q 622 4497 726 4603
Q 831 4709 978 4709
Q 1122 4709 1226 4603
Q 1331 4497 1331 4353
Q 1331 4206 1228 4103
Q 1125 4000 978 4000
Q 831 4000 726 4103
Q 622 4206 622 4353
z
M 1356 331
L 1900 331
L 1900 0
L 231 0
L 231 331
L 781 331
L 781 2988
L 231 2988
L 231 3322
L 1356 3322
L 1356 331
z
" transform="scale(0.015625)"/>
       <path id="DejaVuSerif-74" d="M 691 2988
L 184 2988
L 184 3322
L 691 3322
L 691 4353
L 1269 4353
L 1269 3322
L 2350 3322
L 2350 2988
L 1269 2988
L 1269 878
Q 1269 456 1350 337
Q 1431 219 1650 219
Q 1875 219 1978 351
Q 2081 484 2088 781
L 2522 781
Q 2497 328 2275 118
Q 2053 -91 1600 -91
Q 1103 -91 897 129
Q 691 350 691 878
L 691 2988
z
" transform="scale(0.015625)"/>
       <path id="DejaVuSerif-68" d="M 263 0
L 263 331
L 781 331
L 781 4531
L 231 4531
L 231 4863
L 1356 4863
L 1356 2731
Q 1516 3069 1770 3241
Q 2025 3413 2363 3413
Q 2913 3413 3172 3097
Q 3431 2781 3431 2113
L 3431 331
L 3944 331
L 3944 0
L 2356 0
L 2356 331
L 2853 331
L 2853 1931
Q 2853 2541 2704 2764
Q 2556 2988 2175 2988
Q 1775 2988 1565 2697
Q 1356 2406 1356 1850
L 1356 331
L 1856 331
L 1856 0
L 263 0
z
" transform="scale(0.015625)"/>
       <path id="DejaVuSerif-20" transform="scale(0.015625)"/>
       <path id="DejaVuSerif-6b" d="M 1831 0
L 219 0
L 219 331
L 738 331
L 738 4531
L 184 4531
L 184 4863
L 1313 4863
L 1313 1697
L 2713 2988
L 2234 2988
L 2234 3322
L 3738 3322
L 3738 2988
L 3169 2988
L 2181 2075
L 3444 331
L 3922 331
L 3922 0
L 2284 0
L 2284 331
L 2759 331
L 1766 1697
L 1313 1275
L 1313 331
L 1831 331
L 1831 0
z
" transform="scale(0.015625)"/>
       <path id="DejaVuSerif-76" d="M 1581 0
L 359 2988
L -19 2988
L -19 3322
L 1509 3322
L 1509 2988
L 978 2988
L 1913 703
L 2847 2988
L 2350 2988
L 2350 3322
L 3597 3322
L 3597 2988
L 3225 2988
L 2003 0
L 1581 0
z
" transform="scale(0.015625)"/>
       <path id="DejaVuSerif-63" d="M 3291 997
Q 3169 466 2822 187
Q 2475 -91 1925 -91
Q 1200 -91 759 389
Q 319 869 319 1663
Q 319 2459 759 2936
Q 1200 3413 1925 3413
Q 2241 3413 2553 3339
Q 2866 3266 3181 3116
L 3181 2266
L 2847 2266
Q 2781 2703 2561 2903
Q 2341 3103 1931 3103
Q 1466 3103 1228 2742
Q 991 2381 991 1663
Q 991 944 1227 581
Q 1463 219 1931 219
Q 2303 219 2525 412
Q 2747 606 2828 997
L 3291 997
z
" transform="scale(0.015625)"/>
       <path id="DejaVuSerif-61" d="M 2547 1044
L 2547 1747
L 1806 1747
Q 1378 1747 1168 1562
Q 959 1378 959 997
Q 959 650 1171 447
Q 1384 244 1747 244
Q 2106 244 2326 466
Q 2547 688 2547 1044
z
M 3122 2075
L 3122 331
L 3634 331
L 3634 0
L 2547 0
L 2547 359
Q 2356 128 2106 18
Q 1856 -91 1522 -91
Q 969 -91 644 203
Q 319 497 319 997
Q 319 1513 691 1797
Q 1063 2081 1741 2081
L 2547 2081
L 2547 2309
Q 2547 2688 2317 2895
Q 2088 3103 1672 3103
Q 1328 3103 1125 2947
Q 922 2791 872 2484
L 575 2484
L 575 3156
Q 875 3284 1158 3348
Q 1441 3413 1709 3413
Q 2400 3413 2761 3070
Q 3122 2728 3122 2075
z
" transform="scale(0.015625)"/>
       <path id="DejaVuSerif-65" d="M 3469 1600
L 991 1600
L 991 1575
Q 991 903 1244 561
Q 1497 219 1991 219
Q 2369 219 2611 417
Q 2853 616 2950 1006
L 3413 1006
Q 3275 459 2904 184
Q 2534 -91 1931 -91
Q 1203 -91 761 389
Q 319 869 319 1663
Q 319 2450 753 2931
Q 1188 3413 1894 3413
Q 2647 3413 3050 2948
Q 3453 2484 3469 1600
z
M 2791 1931
Q 2772 2513 2545 2808
Q 2319 3103 1894 3103
Q 1497 3103 1269 2806
Q 1041 2509 991 1931
L 2791 1931
z
" transform="scale(0.015625)"/>
       <path id="DejaVuSerif-64" d="M 3359 331
L 3909 331
L 3909 0
L 2784 0
L 2784 519
Q 2616 206 2355 57
Q 2094 -91 1709 -91
Q 1097 -91 708 395
Q 319 881 319 1663
Q 319 2444 706 2928
Q 1094 3413 1709 3413
Q 2094 3413 2355 3264
Q 2616 3116 2784 2803
L 2784 4531
L 2241 4531
L 2241 4863
L 3359 4863
L 3359 331
z
M 2784 1497
L 2784 1825
Q 2784 2422 2554 2737
Q 2325 3053 1888 3053
Q 1444 3053 1217 2703
Q 991 2353 991 1663
Q 991 975 1217 622
Q 1444 269 1888 269
Q 2325 269 2554 583
Q 2784 897 2784 1497
z
" transform="scale(0.015625)"/>
      </defs>
      <use xlink:href="#DejaVuSerif-77"/>
      <use xlink:href="#DejaVuSerif-69" transform="translate(85.595703 0)"/>
      <use xlink:href="#DejaVuSerif-74" transform="translate(117.578125 0)"/>
      <use xlink:href="#DejaVuSerif-68" transform="translate(157.763672 0)"/>
      <use xlink:href="#DejaVuSerif-20" transform="translate(222.167969 0)"/>
      <use xlink:href="#DejaVuSerif-6b" transform="translate(253.955078 0)"/>
      <use xlink:href="#DejaVuSerif-76" transform="translate(314.550781 0)"/>
      <use xlink:href="#DejaVuSerif-63" transform="translate(371.044922 0)"/>
      <use xlink:href="#DejaVuSerif-61" transform="translate(427.050781 0)"/>
      <use xlink:href="#DejaVuSerif-63" transform="translate(486.669922 0)"/>
      <use xlink:href="#DejaVuSerif-68" transform="translate(542.675781 0)"/>
      <use xlink:href="#DejaVuSerif-65" transform="translate(607.080078 0)"/>
      <use xlink:href="#DejaVuSerif-64" transform="translate(666.259766 0)"/>
     </g>
    </g>
    <g id="patch_34">
     <path d="M 89.93625 100.214375
L 125.93625 100.214375
L 125.93625 87.614375
L 89.93625 87.614375
z
" style="fill: #004e89; opacity: 0.85; stroke: #000000; stroke-width: 0.8; stroke-linejoin: miter"/>
    </g>
    <g id="text_25">
     <!-- w/o kvcached -->
     <g style="fill: #262626" transform="translate(140.33625 100.214375) scale(0.18 -0.18)">
      <defs>
       <path id="DejaVuSerif-2f" d="M 1656 4666
L 2156 4666
L 500 -594
L 0 -594
L 1656 4666
z
" transform="scale(0.015625)"/>
       <path id="DejaVuSerif-6f" d="M 1925 219
Q 2388 219 2623 584
Q 2859 950 2859 1663
Q 2859 2375 2623 2739
Q 2388 3103 1925 3103
Q 1463 3103 1227 2739
Q 991 2375 991 1663
Q 991 950 1228 584
Q 1466 219 1925 219
z
M 1925 -91
Q 1200 -91 759 389
Q 319 869 319 1663
Q 319 2456 758 2934
Q 1197 3413 1925 3413
Q 2653 3413 3092 2934
Q 3531 2456 3531 1663
Q 3531 869 3092 389
Q 2653 -91 1925 -91
z
" transform="scale(0.015625)"/>
      </defs>
      <use xlink:href="#DejaVuSerif-77"/>
      <use xlink:href="#DejaVuSerif-2f" transform="translate(85.595703 0)"/>
      <use xlink:href="#DejaVuSerif-6f" transform="translate(119.287109 0)"/>
      <use xlink:href="#DejaVuSerif-20" transform="translate(179.492188 0)"/>
      <use xlink:href="#DejaVuSerif-6b" transform="translate(211.279297 0)"/>
      <use xlink:href="#DejaVuSerif-76" transform="translate(271.875 0)"/>
      <use xlink:href="#DejaVuSerif-63" transform="translate(328.369141 0)"/>
      <use xlink:href="#DejaVuSerif-61" transform="translate(384.375 0)"/>
      <use xlink:href="#DejaVuSerif-63" transform="translate(443.994141 0)"/>
      <use xlink:href="#DejaVuSerif-68" transform="translate(500 0)"/>
      <use xlink:href="#DejaVuSerif-65" transform="translate(564.404297 0)"/>
      <use xlink:href="#DejaVuSerif-64" transform="translate(623.583984 0)"/>
     </g>
    </g>
   </g>
  </g>
 </g>
 <defs>
  <clipPath id="p051e211cd3">
   <rect x="73.73625" y="43.916562" width="615.791903" height="304.1"/>
  </clipPath>
 </defs>
</svg>
