<svg width="508" height="498" xmlns="http://www.w3.org/2000/svg" xmlns:xlink="http://www.w3.org/1999/xlink" xml:space="preserve" overflow="hidden"><defs><clipPath id="clip0"><rect x="697" y="1160" width="508" height="498"/></clipPath></defs><g clip-path="url(#clip0)" transform="translate(-697 -1160)"><path d="M969.797 1399.72C960.348 1397.64 961.193 1386.04 961.144 1378.85 960.97 1350.66 960.954 1320.11 961.095 1287.2 961.16 1270.5 960.706 1257.69 964.213 1243.58 969.614 1221.8 980.865 1203.76 997.966 1189.44 1041.36 1153.15 1102.54 1150.27 1150.1 1181.58 1186.8 1205.75 1206.04 1246.69 1204.96 1291.08 1203.62 1344.87 1172.29 1386.61 1119.25 1398.76 1112.7 1400.27 1106.06 1400.02 1097.64 1400.28 1092.23 1400.46 1054.48 1400.69 984.393 1401 978.667 1401.03 973.803 1400.6 969.797 1399.72Z" fill="#FBA805" fill-rule="evenodd"/><path d="M942.804 1387.42C942.804 1396.37 936.243 1399.89 928.106 1399.94 917.797 1400 873.952 1400.01 796.566 1399.99 789.463 1399.99 781.554 1398.89 772.837 1396.67 743.749 1389.33 720.442 1367.72 708.374 1340.66 695.69 1312.21 692.701 1275.26 704.087 1245.52 713.507 1220.92 730.203 1199.31 751.69 1184.01 788.218 1158.02 835.61 1152.67 877.01 1170.23 905.4 1182.28 925.226 1202.56 936.486 1231.07 938.554 1236.33 939.962 1241.56 940.709 1246.78 942.268 1257.64 943.032 1268.88 942.999 1280.52 942.89 1311.76 942.825 1347.39 942.804 1387.42Z" fill="#01AE93" fill-rule="evenodd"/><path d="M928.853 1418.02C936.293 1417.97 942.349 1421.96 942.593 1429.89 942.735 1434.59 942.869 1473.06 943 1545.28 943.011 1550.7 942.223 1557.79 940.639 1566.55 930.839 1621.11 883.449 1655.21 829.676 1657.87 793.242 1659.66 756.271 1642.89 731.265 1616.63 700.122 1583.93 688.059 1527.9 704.078 1485.48 708.93 1472.64 715.594 1461.16 724.07 1451.02 739.177 1432.97 764.541 1421.19 786.714 1418.87 792.498 1418.26 801.67 1417.97 814.227 1418 867.353 1418.17 905.561 1418.17 928.853 1418.02Z" fill="#0263A4" fill-rule="evenodd"/><path d="M961.026 1440.18C961.059 1433 960.178 1421.43 969.599 1419.33 973.598 1418.43 978.461 1417.99 984.187 1418 1054.21 1418.07 1091.92 1418.17 1097.34 1418.33 1105.76 1418.55 1112.4 1418.29 1118.93 1419.77 1171.97 1431.7 1203.43 1473.21 1204.94 1526.85 1206.18 1571.11 1187.1 1612 1150.5 1636.23 1103.11 1667.62 1041.97 1664.96 998.482 1628.92 981.346 1614.7 970.039 1596.75 964.563 1575.06 961.01 1561 961.417 1548.21 961.303 1531.56 961.042 1498.75 960.949 1468.29 961.026 1440.18Z" fill="#96CB47" fill-rule="evenodd"/></g></svg>