<svg viewBox="75.776 302.9375 1935.36 323.40625" version="1.1" xmlns="http://www.w3.org/2000/svg" style="max-height: 500px" width="1935.36" height="323.40625">
<g stroke-linecap="butt" fill="none" stroke-width="2.00">
<path d="M 244.43 445.18&#10;  C 244.46 449.61 243.94 456.75 249.76 458.03&#10;  Q 253.46 458.85 258.75 458.82&#10;  Q 323.50 458.54 328.50 458.38&#10;  C 333.69 458.22 337.78 458.37 341.81 457.44&#10;  C 374.48 449.96 393.78 424.26 394.60 391.14&#10;  C 395.27 363.81 383.42 338.60 360.81 323.72&#10;  C 331.52 304.44 293.84 306.21 267.11 328.56&#10;  Q 251.31 341.78 246.32 361.89&#10;  C 244.16 370.58 244.44 378.47 244.40 388.75&#10;  Q 244.27 419.15 244.43 445.18" stroke="#fdd482"/>
<path d="M 223.99 458.45&#10;  C 229.00 458.42 233.04 456.25 233.04 450.75&#10;  Q 233.06 413.82 233.16 385.00&#10;  Q 233.19 374.27 231.75 364.25&#10;  Q 231.06 359.44 229.15 354.59&#10;  Q 218.75 328.29 192.53 317.17&#10;  C 167.04 306.37 137.86 309.66 115.37 325.65&#10;  C 102.14 335.06 91.86 348.35 86.06 363.48&#10;  C 79.05 381.77 80.89 404.49 88.70 421.99&#10;  C 96.13 438.63 110.48 451.92 128.39 456.44&#10;  Q 136.44 458.48 143.00 458.48&#10;  Q 214.47 458.50 223.99 458.45" stroke="#80d7c9"/>
<path d="M 1960.59 431.08&#10;  A 1.10 1.10 0.0 0 1 1959.07 432.21&#10;  Q 1957.65 431.62 1956.96 430.80&#10;  C 1945.59 417.19 1932.28 407.90 1914.63 405.11&#10;  C 1896.17 402.19 1876.02 405.10 1859.70 414.22&#10;  Q 1816.83 438.17 1807.29 486.78&#10;  C 1805.27 497.07 1805.53 510.93 1808.33 522.47&#10;  Q 1810.64 531.94 1811.20 533.53&#10;  Q 1820.92 560.78 1843.62 578.94&#10;  Q 1867.55 598.10 1898.79 597.76&#10;  C 1922.38 597.51 1942.64 586.68 1955.14 566.88&#10;  C 1956.38 564.91 1958.23 564.52 1959.76 566.29&#10;  A 1.78 1.75 -69.4 0 1 1960.16 567.19&#10;  Q 1960.31 568.33 1959.92 573.75&#10;  Q 1959.78 575.79 1960.01 583.52&#10;  Q 1960.15 588.13 1961.82 590.36&#10;  C 1968.11 598.73 1982.39 600.02 1989.50 592.06&#10;  Q 1994.62 586.32 1994.61 578.24&#10;  Q 1994.59 457.66 1994.69 345.82&#10;  Q 1994.70 335.74 1993.23 332.46&#10;  C 1989.56 324.26 1979.35 319.76 1970.74 323.27&#10;  C 1962.22 326.75 1959.98 334.70 1959.95 343.25&#10;  Q 1959.81 382.23 1959.85 414.75&#10;  Q 1959.86 424.05 1960.59 431.08" stroke="#84d1be"/>
<path d="M 493.79 347.24&#10;  C 491.16 342.53 486.66 340.33 481.47 340.37&#10;  C 468.97 340.47 462.80 348.80 462.80 360.76&#10;  Q 462.80 465.24 462.96 575.77&#10;  C 462.98 586.45 466.56 596.51 478.93 596.86&#10;  C 488.94 597.14 496.97 590.82 497.32 580.49&#10;  C 497.61 572.30 496.75 565.32 496.73 556.83&#10;  Q 496.59 459.75 497.20 359.39&#10;  Q 497.24 353.41 493.79 347.24" stroke="#95989c"/>
<path d="M 1442.28 442.29&#10;  A 0.78 0.78 0.0 0 1 1441.46 441.51&#10;  C 1441.47 435.29 1442.31 429.20 1442.30 422.52&#10;  Q 1442.24 391.15 1442.62 363.39&#10;  C 1442.80 351.05 1438.58 339.54 1423.72 340.72&#10;  Q 1417.55 341.22 1413.55 345.68&#10;  C 1408.97 350.79 1408.83 358.58 1408.82 366.50&#10;  Q 1408.76 558.08 1408.79 571.26&#10;  Q 1408.80 577.64 1410.26 583.90&#10;  C 1412.81 594.87 1424.76 600.45 1434.55 594.45&#10;  C 1443.79 588.79 1442.97 582.05 1442.89 570.84&#10;  Q 1442.61 533.34 1442.75 502.00&#10;  Q 1442.82 487.32 1443.74 482.43&#10;  Q 1449.48 452.10 1477.61 441.04&#10;  Q 1481.29 439.59 1483.89 439.36&#10;  C 1489.59 438.87 1494.44 437.37 1500.13 438.05&#10;  C 1516.36 440.01 1529.40 446.21 1536.92 461.45&#10;  Q 1538.94 465.54 1540.21 471.87&#10;  Q 1541.46 478.05 1541.58 482.74&#10;  Q 1542.07 502.68 1542.12 551.71&#10;  C 1542.12 559.53 1542.66 568.98 1542.64 577.86&#10;  C 1542.63 585.30 1545.06 591.43 1552.10 594.84&#10;  C 1561.78 599.53 1573.72 594.30 1575.81 583.52&#10;  Q 1576.87 578.07 1576.85 573.50&#10;  Q 1576.67 528.73 1576.66 508.13&#10;  C 1576.66 500.70 1575.89 490.14 1575.70 484.66&#10;  C 1575.23 470.69 1572.09 457.96 1566.39 445.89&#10;  C 1559.08 430.41 1546.73 416.39 1530.77 410.27&#10;  C 1502.71 399.51 1468.02 406.79 1450.43 432.60&#10;  Q 1445.58 439.70 1444.69 440.64&#10;  Q 1443.14 442.26 1442.28 442.29" stroke="#95989c"/>
<path d="M 978.60 564.63&#10;  C 977.74 559.52 973.15 553.57 968.13 551.89&#10;  Q 961.30 549.60 955.41 553.21&#10;  Q 947.62 557.99 945.30 559.28&#10;  C 935.08 565.02 922.38 566.19 910.18 565.09&#10;  Q 897.28 563.93 886.20 556.54&#10;  C 866.19 543.18 854.85 522.91 856.94 498.45&#10;  C 858.94 474.99 874.20 448.38 898.38 441.65&#10;  C 913.77 437.37 931.22 438.97 945.18 447.56&#10;  C 950.93 451.10 959.75 457.11 966.93 455.42&#10;  C 972.37 454.14 977.88 450.99 980.11 445.78&#10;  C 983.96 436.78 978.07 428.75 971.43 423.00&#10;  C 959.01 412.26 942.68 407.50 926.03 406.26&#10;  Q 919.21 405.76 912.46 406.39&#10;  Q 901.57 407.41 898.96 407.94&#10;  C 869.77 413.95 845.96 433.00 832.54 459.55&#10;  Q 821.65 481.12 822.36 506.23&#10;  Q 822.82 522.84 829.57 538.94&#10;  C 840.61 565.30 861.96 585.53 889.38 593.88&#10;  C 901.76 597.64 915.33 597.99 928.74 596.83&#10;  C 936.27 596.18 942.99 594.25 951.38 592.12&#10;  Q 955.35 591.12 964.04 586.81&#10;  C 972.52 582.61 980.24 574.41 978.60 564.63" stroke="#95989c"/>
<path d="M 1369.72 450.60&#10;  C 1375.54 446.27 1378.13 439.35 1374.16 432.89&#10;  C 1366.47 420.39 1353.46 413.53 1339.18 409.60&#10;  Q 1320.89 404.57 1303.50 406.50&#10;  Q 1285.53 408.50 1269.09 416.72&#10;  C 1243.54 429.51 1224.01 454.15 1218.49 482.53&#10;  C 1211.48 518.52 1222.10 556.33 1252.35 578.40&#10;  Q 1271.05 592.05 1291.38 595.73&#10;  Q 1323.17 601.50 1355.16 587.34&#10;  C 1365.08 582.95 1380.96 570.88 1373.53 557.92&#10;  C 1368.63 549.37 1357.22 548.07 1349.23 553.48&#10;  C 1338.77 560.55 1328.70 564.92 1315.75 565.30&#10;  C 1306.99 565.55 1298.33 565.07 1290.09 561.65&#10;  C 1273.99 554.95 1259.96 542.05 1254.27 525.79&#10;  C 1246.28 502.97 1250.75 477.02 1266.89 458.64&#10;  Q 1284.47 438.62 1311.24 439.14&#10;  Q 1323.01 439.37 1332.35 443.10&#10;  C 1345.86 448.50 1356.01 460.80 1369.72 450.60" stroke="#95989c"/>
<path d="M 1147.49 565.20&#10;  A 0.97 0.97 0.0 0 1 1148.08 566.09&#10;  C 1148.13 574.96 1146.99 588.38 1156.29 593.35&#10;  Q 1163.13 597.00 1169.48 595.79&#10;  C 1176.99 594.36 1182.65 587.87 1182.54 580.49&#10;  Q 1182.04 548.49 1182.16 506.62&#10;  C 1182.19 496.87 1181.30 487.13 1179.61 478.32&#10;  Q 1175.15 455.09 1159.60 437.13&#10;  Q 1138.24 412.48 1105.98 407.61&#10;  C 1074.79 402.90 1045.53 411.66 1023.85 435.17&#10;  Q 1008.94 451.32 1002.71 472.46&#10;  C 997.23 491.03 996.04 512.98 1001.83 531.66&#10;  C 1011.12 561.66 1031.15 584.22 1061.51 593.88&#10;  C 1072.72 597.45 1086.04 598.00 1096.99 596.13&#10;  C 1115.15 593.03 1129.96 582.37 1141.47 567.78&#10;  C 1142.98 565.87 1145.01 564.14 1147.49 565.20" stroke="#95989c"/>
<path d="M 1653.33 535.44&#10;  A 1.84 1.83 -88.4 0 1 1654.58 534.25&#10;  Q 1706.55 519.43 1731.50 512.45&#10;  C 1745.40 508.56 1758.47 504.21 1770.35 499.33&#10;  C 1779.63 495.53 1786.88 486.10 1784.66 475.82&#10;  C 1778.79 448.66 1762.67 426.03 1737.65 413.60&#10;  Q 1728.17 408.89 1714.77 407.14&#10;  Q 1699.00 405.09 1687.21 407.72&#10;  C 1652.77 415.42 1625.30 439.59 1614.87 473.44&#10;  Q 1607.53 497.28 1611.98 521.76&#10;  C 1615.39 540.52 1624.66 559.08 1638.64 572.07&#10;  Q 1659.38 591.34 1686.80 596.35&#10;  Q 1689.37 596.82 1701.60 597.82&#10;  Q 1707.46 598.29 1713.88 597.57&#10;  Q 1724.83 596.34 1726.10 596.09&#10;  C 1743.14 592.63 1759.96 585.54 1772.59 573.28&#10;  C 1777.82 568.20 1780.11 563.19 1778.34 556.26&#10;  C 1776.13 547.57 1763.26 540.21 1755.64 546.18&#10;  Q 1748.29 551.94 1746.97 552.95&#10;  C 1738.63 559.34 1728.82 564.16 1718.25 565.65&#10;  Q 1704.80 567.54 1694.47 565.76&#10;  Q 1670.55 561.63 1654.54 541.06&#10;  C 1653.29 539.46 1652.74 537.28 1653.33 535.44" stroke="#95989c"/>
<path d="M 721.58 552.58&#10;  A 1.69 1.66 -3.0 0 1 720.33 551.47&#10;  C 716.94 541.16 713.25 531.09 708.73 519.51&#10;  Q 703.78 506.84 673.26 431.97&#10;  Q 670.35 424.83 666.06 416.92&#10;  C 663.07 411.39 657.79 407.07 651.13 407.07&#10;  Q 642.51 407.07 636.59 414.20&#10;  C 631.99 419.75 632.88 429.61 635.69 435.80&#10;  Q 660.71 490.93 676.51 528.76&#10;  Q 680.91 539.28 688.34 555.97&#10;  Q 699.57 581.17 700.44 583.01&#10;  Q 703.39 589.20 710.25 593.94&#10;  Q 715.53 597.59 722.96 596.99&#10;  Q 731.35 596.31 737.14 590.47&#10;  Q 740.70 586.87 745.09 576.67&#10;  C 750.51 564.08 758.40 547.97 764.72 533.00&#10;  Q 773.84 511.41 782.98 489.55&#10;  C 790.02 472.74 799.43 453.06 806.32 435.57&#10;  C 809.36 427.84 810.68 418.43 804.26 411.86&#10;  Q 799.00 406.49 790.25 407.20&#10;  C 784.35 407.68 780.08 411.30 777.32 416.68&#10;  Q 774.80 421.61 774.31 423.09&#10;  C 770.18 435.68 766.40 447.85 761.45 459.50&#10;  C 748.43 490.19 733.57 526.17 724.43 550.89&#10;  Q 723.64 553.00 721.58 552.58" stroke="#95989c"/>
<path d="M 544.75 500.19&#10;  C 543.83 499.30 543.62 497.70 544.57 496.70&#10;  Q 550.34 490.66 555.89 485.89&#10;  Q 580.78 464.50 605.27 442.35&#10;  C 611.32 436.87 616.55 429.04 613.67 420.51&#10;  Q 611.33 413.60 604.72 409.48&#10;  C 596.62 404.43 589.05 408.99 583.14 414.89&#10;  Q 559.19 438.83 530.72 465.72&#10;  C 519.17 476.63 508.88 485.29 502.74 496.98&#10;  C 500.44 501.35 503.45 507.29 506.22 510.34&#10;  C 515.60 520.65 526.92 530.98 537.08 541.37&#10;  Q 562.76 567.64 585.43 590.03&#10;  C 591.74 596.26 602.37 598.50 609.46 592.44&#10;  C 613.07 589.35 615.66 586.84 616.35 582.34&#10;  C 617.84 572.73 612.42 566.09 606.02 559.97&#10;  Q 594.87 549.32 576.47 530.97&#10;  Q 567.07 521.58 544.75 500.19" stroke="#95989c"/>
<path d="M 232.86 476.90&#10;  C 232.71 472.03 228.99 469.58 224.42 469.61&#10;  Q 202.96 469.75 154.01 469.60&#10;  Q 142.44 469.57 137.11 470.13&#10;  C 123.49 471.56 107.91 478.79 98.63 489.87&#10;  Q 90.82 499.21 86.35 511.03&#10;  C 76.51 537.08 83.92 571.48 103.05 591.56&#10;  C 118.41 607.68 141.12 617.98 163.50 616.88&#10;  C 196.53 615.25 225.64 594.31 231.66 560.81&#10;  Q 233.12 552.74 233.11 547.75&#10;  Q 232.99 481.23 232.86 476.90" stroke="#81b1d2"/>
<path d="M 244.60 483.05&#10;  Q 244.53 508.96 244.77 539.21&#10;  C 244.84 549.44 244.59 557.30 246.77 565.94&#10;  Q 251.81 585.93 267.58 599.04&#10;  C 294.26 621.19 331.77 622.82 360.85 603.53&#10;  C 383.30 588.64 395.01 563.51 394.25 536.31&#10;  C 393.32 503.35 374.02 477.84 341.48 470.51&#10;  C 337.47 469.60 333.40 469.76 328.23 469.62&#10;  Q 323.25 469.48 258.81 469.42&#10;  Q 253.54 469.41 249.86 470.24&#10;  C 244.08 471.53 244.62 478.64 244.60 483.05" stroke="#cbe5a3"/>
<path d="M 1871.47 559.17&#10;  C 1894.46 572.34 1923.80 567.97 1942.06 548.88&#10;  Q 1959.69 530.46 1960.32 504.51&#10;  Q 1960.71 488.70 1956.79 476.72&#10;  C 1948.37 451.02 1924.12 433.08 1896.46 436.05&#10;  C 1835.57 442.57 1819.77 529.55 1871.47 559.17" stroke="#84d1be"/>
<path d="M 1033.24 501.22&#10;  C 1032.75 534.58 1053.32 565.07 1089.10 565.59&#10;  C 1124.88 566.11 1146.32 536.24 1146.81 502.88&#10;  C 1147.30 469.51 1126.73 439.03 1090.95 438.51&#10;  C 1055.17 437.99 1033.73 467.86 1033.24 501.22" stroke="#95989c"/>
<path d="M 1645.99 510.81&#10;  A 0.65 0.65 0.0 0 0 1646.58 510.87&#10;  Q 1657.72 506.47 1670.35 502.60&#10;  Q 1701.02 493.20 1736.81 482.84&#10;  Q 1738.17 482.44 1746.22 479.56&#10;  C 1749.40 478.42 1752.74 478.08 1751.30 474.07&#10;  C 1745.13 456.87 1735.15 444.45 1717.17 439.94&#10;  C 1692.07 433.64 1666.20 441.42 1653.03 464.07&#10;  C 1645.52 476.98 1642.92 494.19 1644.67 508.82&#10;  Q 1644.82 510.03 1645.99 510.81" stroke="#95989c"/>
</g>
<path d="M 2044.15 0.00&#10;  Q 2049.73 0.21 2043.00 0.21&#10;  Q 1021.50 0.27 0.00 0.27&#10;  L 0.00 0.00&#10;  L 2044.15 0.00&#10;  Z" fill="#ffffff"/>
<path d="M 0.00 916.16&#10;  L 0.00 1.04&#10;  L 2046.44 0.94&#10;  A 0.49 0.49 0.0 0 1 2046.93 1.43&#10;  L 2046.93 915.58&#10;  A 0.52 0.52 0.0 0 1 2046.41 916.10&#10;  L 0.00 916.16&#10;  Z&#10;  M 244.43 445.18&#10;  C 244.46 449.61 243.94 456.75 249.76 458.03&#10;  Q 253.46 458.85 258.75 458.82&#10;  Q 323.50 458.54 328.50 458.38&#10;  C 333.69 458.22 337.78 458.37 341.81 457.44&#10;  C 374.48 449.96 393.78 424.26 394.60 391.14&#10;  C 395.27 363.81 383.42 338.60 360.81 323.72&#10;  C 331.52 304.44 293.84 306.21 267.11 328.56&#10;  Q 251.31 341.78 246.32 361.89&#10;  C 244.16 370.58 244.44 378.47 244.40 388.75&#10;  Q 244.27 419.15 244.43 445.18&#10;  Z&#10;  M 223.99 458.45&#10;  C 229.00 458.42 233.04 456.25 233.04 450.75&#10;  Q 233.06 413.82 233.16 385.00&#10;  Q 233.19 374.27 231.75 364.25&#10;  Q 231.06 359.44 229.15 354.59&#10;  Q 218.75 328.29 192.53 317.17&#10;  C 167.04 306.37 137.86 309.66 115.37 325.65&#10;  C 102.14 335.06 91.86 348.35 86.06 363.48&#10;  C 79.05 381.77 80.89 404.49 88.70 421.99&#10;  C 96.13 438.63 110.48 451.92 128.39 456.44&#10;  Q 136.44 458.48 143.00 458.48&#10;  Q 214.47 458.50 223.99 458.45&#10;  Z&#10;  M 1960.59 431.08&#10;  A 1.10 1.10 0.0 0 1 1959.07 432.21&#10;  Q 1957.65 431.62 1956.96 430.80&#10;  C 1945.59 417.19 1932.28 407.90 1914.63 405.11&#10;  C 1896.17 402.19 1876.02 405.10 1859.70 414.22&#10;  Q 1816.83 438.17 1807.29 486.78&#10;  C 1805.27 497.07 1805.53 510.93 1808.33 522.47&#10;  Q 1810.64 531.94 1811.20 533.53&#10;  Q 1820.92 560.78 1843.62 578.94&#10;  Q 1867.55 598.10 1898.79 597.76&#10;  C 1922.38 597.51 1942.64 586.68 1955.14 566.88&#10;  C 1956.38 564.91 1958.23 564.52 1959.76 566.29&#10;  A 1.78 1.75 -69.4 0 1 1960.16 567.19&#10;  Q 1960.31 568.33 1959.92 573.75&#10;  Q 1959.78 575.79 1960.01 583.52&#10;  Q 1960.15 588.13 1961.82 590.36&#10;  C 1968.11 598.73 1982.39 600.02 1989.50 592.06&#10;  Q 1994.62 586.32 1994.61 578.24&#10;  Q 1994.59 457.66 1994.69 345.82&#10;  Q 1994.70 335.74 1993.23 332.46&#10;  C 1989.56 324.26 1979.35 319.76 1970.74 323.27&#10;  C 1962.22 326.75 1959.98 334.70 1959.95 343.25&#10;  Q 1959.81 382.23 1959.85 414.75&#10;  Q 1959.86 424.05 1960.59 431.08&#10;  Z&#10;  M 493.79 347.24&#10;  C 491.16 342.53 486.66 340.33 481.47 340.37&#10;  C 468.97 340.47 462.80 348.80 462.80 360.76&#10;  Q 462.80 465.24 462.96 575.77&#10;  C 462.98 586.45 466.56 596.51 478.93 596.86&#10;  C 488.94 597.14 496.97 590.82 497.32 580.49&#10;  C 497.61 572.30 496.75 565.32 496.73 556.83&#10;  Q 496.59 459.75 497.20 359.39&#10;  Q 497.24 353.41 493.79 347.24&#10;  Z&#10;  M 1442.28 442.29&#10;  A 0.78 0.78 0.0 0 1 1441.46 441.51&#10;  C 1441.47 435.29 1442.31 429.20 1442.30 422.52&#10;  Q 1442.24 391.15 1442.62 363.39&#10;  C 1442.80 351.05 1438.58 339.54 1423.72 340.72&#10;  Q 1417.55 341.22 1413.55 345.68&#10;  C 1408.97 350.79 1408.83 358.58 1408.82 366.50&#10;  Q 1408.76 558.08 1408.79 571.26&#10;  Q 1408.80 577.64 1410.26 583.90&#10;  C 1412.81 594.87 1424.76 600.45 1434.55 594.45&#10;  C 1443.79 588.79 1442.97 582.05 1442.89 570.84&#10;  Q 1442.61 533.34 1442.75 502.00&#10;  Q 1442.82 487.32 1443.74 482.43&#10;  Q 1449.48 452.10 1477.61 441.04&#10;  Q 1481.29 439.59 1483.89 439.36&#10;  C 1489.59 438.87 1494.44 437.37 1500.13 438.05&#10;  C 1516.36 440.01 1529.40 446.21 1536.92 461.45&#10;  Q 1538.94 465.54 1540.21 471.87&#10;  Q 1541.46 478.05 1541.58 482.74&#10;  Q 1542.07 502.68 1542.12 551.71&#10;  C 1542.12 559.53 1542.66 568.98 1542.64 577.86&#10;  C 1542.63 585.30 1545.06 591.43 1552.10 594.84&#10;  C 1561.78 599.53 1573.72 594.30 1575.81 583.52&#10;  Q 1576.87 578.07 1576.85 573.50&#10;  Q 1576.67 528.73 1576.66 508.13&#10;  C 1576.66 500.70 1575.89 490.14 1575.70 484.66&#10;  C 1575.23 470.69 1572.09 457.96 1566.39 445.89&#10;  C 1559.08 430.41 1546.73 416.39 1530.77 410.27&#10;  C 1502.71 399.51 1468.02 406.79 1450.43 432.60&#10;  Q 1445.58 439.70 1444.69 440.64&#10;  Q 1443.14 442.26 1442.28 442.29&#10;  Z&#10;  M 978.60 564.63&#10;  C 977.74 559.52 973.15 553.57 968.13 551.89&#10;  Q 961.30 549.60 955.41 553.21&#10;  Q 947.62 557.99 945.30 559.28&#10;  C 935.08 565.02 922.38 566.19 910.18 565.09&#10;  Q 897.28 563.93 886.20 556.54&#10;  C 866.19 543.18 854.85 522.91 856.94 498.45&#10;  C 858.94 474.99 874.20 448.38 898.38 441.65&#10;  C 913.77 437.37 931.22 438.97 945.18 447.56&#10;  C 950.93 451.10 959.75 457.11 966.93 455.42&#10;  C 972.37 454.14 977.88 450.99 980.11 445.78&#10;  C 983.96 436.78 978.07 428.75 971.43 423.00&#10;  C 959.01 412.26 942.68 407.50 926.03 406.26&#10;  Q 919.21 405.76 912.46 406.39&#10;  Q 901.57 407.41 898.96 407.94&#10;  C 869.77 413.95 845.96 433.00 832.54 459.55&#10;  Q 821.65 481.12 822.36 506.23&#10;  Q 822.82 522.84 829.57 538.94&#10;  C 840.61 565.30 861.96 585.53 889.38 593.88&#10;  C 901.76 597.64 915.33 597.99 928.74 596.83&#10;  C 936.27 596.18 942.99 594.25 951.38 592.12&#10;  Q 955.35 591.12 964.04 586.81&#10;  C 972.52 582.61 980.24 574.41 978.60 564.63&#10;  Z&#10;  M 1369.72 450.60&#10;  C 1375.54 446.27 1378.13 439.35 1374.16 432.89&#10;  C 1366.47 420.39 1353.46 413.53 1339.18 409.60&#10;  Q 1320.89 404.57 1303.50 406.50&#10;  Q 1285.53 408.50 1269.09 416.72&#10;  C 1243.54 429.51 1224.01 454.15 1218.49 482.53&#10;  C 1211.48 518.52 1222.10 556.33 1252.35 578.40&#10;  Q 1271.05 592.05 1291.38 595.73&#10;  Q 1323.17 601.50 1355.16 587.34&#10;  C 1365.08 582.95 1380.96 570.88 1373.53 557.92&#10;  C 1368.63 549.37 1357.22 548.07 1349.23 553.48&#10;  C 1338.77 560.55 1328.70 564.92 1315.75 565.30&#10;  C 1306.99 565.55 1298.33 565.07 1290.09 561.65&#10;  C 1273.99 554.95 1259.96 542.05 1254.27 525.79&#10;  C 1246.28 502.97 1250.75 477.02 1266.89 458.64&#10;  Q 1284.47 438.62 1311.24 439.14&#10;  Q 1323.01 439.37 1332.35 443.10&#10;  C 1345.86 448.50 1356.01 460.80 1369.72 450.60&#10;  Z&#10;  M 1147.49 565.20&#10;  A 0.97 0.97 0.0 0 1 1148.08 566.09&#10;  C 1148.13 574.96 1146.99 588.38 1156.29 593.35&#10;  Q 1163.13 597.00 1169.48 595.79&#10;  C 1176.99 594.36 1182.65 587.87 1182.54 580.49&#10;  Q 1182.04 548.49 1182.16 506.62&#10;  C 1182.19 496.87 1181.30 487.13 1179.61 478.32&#10;  Q 1175.15 455.09 1159.60 437.13&#10;  Q 1138.24 412.48 1105.98 407.61&#10;  C 1074.79 402.90 1045.53 411.66 1023.85 435.17&#10;  Q 1008.94 451.32 1002.71 472.46&#10;  C 997.23 491.03 996.04 512.98 1001.83 531.66&#10;  C 1011.12 561.66 1031.15 584.22 1061.51 593.88&#10;  C 1072.72 597.45 1086.04 598.00 1096.99 596.13&#10;  C 1115.15 593.03 1129.96 582.37 1141.47 567.78&#10;  C 1142.98 565.87 1145.01 564.14 1147.49 565.20&#10;  Z&#10;  M 1653.33 535.44&#10;  A 1.84 1.83 -88.4 0 1 1654.58 534.25&#10;  Q 1706.55 519.43 1731.50 512.45&#10;  C 1745.40 508.56 1758.47 504.21 1770.35 499.33&#10;  C 1779.63 495.53 1786.88 486.10 1784.66 475.82&#10;  C 1778.79 448.66 1762.67 426.03 1737.65 413.60&#10;  Q 1728.17 408.89 1714.77 407.14&#10;  Q 1699.00 405.09 1687.21 407.72&#10;  C 1652.77 415.42 1625.30 439.59 1614.87 473.44&#10;  Q 1607.53 497.28 1611.98 521.76&#10;  C 1615.39 540.52 1624.66 559.08 1638.64 572.07&#10;  Q 1659.38 591.34 1686.80 596.35&#10;  Q 1689.37 596.82 1701.60 597.82&#10;  Q 1707.46 598.29 1713.88 597.57&#10;  Q 1724.83 596.34 1726.10 596.09&#10;  C 1743.14 592.63 1759.96 585.54 1772.59 573.28&#10;  C 1777.82 568.20 1780.11 563.19 1778.34 556.26&#10;  C 1776.13 547.57 1763.26 540.21 1755.64 546.18&#10;  Q 1748.29 551.94 1746.97 552.95&#10;  C 1738.63 559.34 1728.82 564.16 1718.25 565.65&#10;  Q 1704.80 567.54 1694.47 565.76&#10;  Q 1670.55 561.63 1654.54 541.06&#10;  C 1653.29 539.46 1652.74 537.28 1653.33 535.44&#10;  Z&#10;  M 721.58 552.58&#10;  A 1.69 1.66 -3.0 0 1 720.33 551.47&#10;  C 716.94 541.16 713.25 531.09 708.73 519.51&#10;  Q 703.78 506.84 673.26 431.97&#10;  Q 670.35 424.83 666.06 416.92&#10;  C 663.07 411.39 657.79 407.07 651.13 407.07&#10;  Q 642.51 407.07 636.59 414.20&#10;  C 631.99 419.75 632.88 429.61 635.69 435.80&#10;  Q 660.71 490.93 676.51 528.76&#10;  Q 680.91 539.28 688.34 555.97&#10;  Q 699.57 581.17 700.44 583.01&#10;  Q 703.39 589.20 710.25 593.94&#10;  Q 715.53 597.59 722.96 596.99&#10;  Q 731.35 596.31 737.14 590.47&#10;  Q 740.70 586.87 745.09 576.67&#10;  C 750.51 564.08 758.40 547.97 764.72 533.00&#10;  Q 773.84 511.41 782.98 489.55&#10;  C 790.02 472.74 799.43 453.06 806.32 435.57&#10;  C 809.36 427.84 810.68 418.43 804.26 411.86&#10;  Q 799.00 406.49 790.25 407.20&#10;  C 784.35 407.68 780.08 411.30 777.32 416.68&#10;  Q 774.80 421.61 774.31 423.09&#10;  C 770.18 435.68 766.40 447.85 761.45 459.50&#10;  C 748.43 490.19 733.57 526.17 724.43 550.89&#10;  Q 723.64 553.00 721.58 552.58&#10;  Z&#10;  M 544.75 500.19&#10;  C 543.83 499.30 543.62 497.70 544.57 496.70&#10;  Q 550.34 490.66 555.89 485.89&#10;  Q 580.78 464.50 605.27 442.35&#10;  C 611.32 436.87 616.55 429.04 613.67 420.51&#10;  Q 611.33 413.60 604.72 409.48&#10;  C 596.62 404.43 589.05 408.99 583.14 414.89&#10;  Q 559.19 438.83 530.72 465.72&#10;  C 519.17 476.63 508.88 485.29 502.74 496.98&#10;  C 500.44 501.35 503.45 507.29 506.22 510.34&#10;  C 515.60 520.65 526.92 530.98 537.08 541.37&#10;  Q 562.76 567.64 585.43 590.03&#10;  C 591.74 596.26 602.37 598.50 609.46 592.44&#10;  C 613.07 589.35 615.66 586.84 616.35 582.34&#10;  C 617.84 572.73 612.42 566.09 606.02 559.97&#10;  Q 594.87 549.32 576.47 530.97&#10;  Q 567.07 521.58 544.75 500.19&#10;  Z&#10;  M 232.86 476.90&#10;  C 232.71 472.03 228.99 469.58 224.42 469.61&#10;  Q 202.96 469.75 154.01 469.60&#10;  Q 142.44 469.57 137.11 470.13&#10;  C 123.49 471.56 107.91 478.79 98.63 489.87&#10;  Q 90.82 499.21 86.35 511.03&#10;  C 76.51 537.08 83.92 571.48 103.05 591.56&#10;  C 118.41 607.68 141.12 617.98 163.50 616.88&#10;  C 196.53 615.25 225.64 594.31 231.66 560.81&#10;  Q 233.12 552.74 233.11 547.75&#10;  Q 232.99 481.23 232.86 476.90&#10;  Z&#10;  M 244.60 483.05&#10;  Q 244.53 508.96 244.77 539.21&#10;  C 244.84 549.44 244.59 557.30 246.77 565.94&#10;  Q 251.81 585.93 267.58 599.04&#10;  C 294.26 621.19 331.77 622.82 360.85 603.53&#10;  C 383.30 588.64 395.01 563.51 394.25 536.31&#10;  C 393.32 503.35 374.02 477.84 341.48 470.51&#10;  C 337.47 469.60 333.40 469.76 328.23 469.62&#10;  Q 323.25 469.48 258.81 469.42&#10;  Q 253.54 469.41 249.86 470.24&#10;  C 244.08 471.53 244.62 478.64 244.60 483.05&#10;  Z" fill="#ffffff"/>
<path d="M 2048.00 1.03&#10;  L 2048.00 915.16&#10;  Q 2047.96 915.16 2047.92 915.15&#10;  A 0.10 0.09 -86.8 0 1 2047.84 915.05&#10;  L 2048.00 1.03&#10;  Z" fill="#ffffff"/>
<path d="M 249.76 458.03&#10;  C 243.94 456.75 244.46 449.61 244.43 445.18&#10;  Q 244.27 419.15 244.40 388.75&#10;  C 244.44 378.47 244.16 370.58 246.32 361.89&#10;  Q 251.31 341.78 267.11 328.56&#10;  C 293.84 306.21 331.52 304.44 360.81 323.72&#10;  C 383.42 338.60 395.27 363.81 394.60 391.14&#10;  C 393.78 424.26 374.48 449.96 341.81 457.44&#10;  C 337.78 458.37 333.69 458.22 328.50 458.38&#10;  Q 323.50 458.54 258.75 458.82&#10;  Q 253.46 458.85 249.76 458.03&#10;  Z" fill="#fba805"/>
<path d="M 233.04 450.75&#10;  C 233.04 456.25 229.00 458.42 223.99 458.45&#10;  Q 214.47 458.50 143.00 458.48&#10;  Q 136.44 458.48 128.39 456.44&#10;  C 110.48 451.92 96.13 438.63 88.70 421.99&#10;  C 80.89 404.49 79.05 381.77 86.06 363.48&#10;  C 91.86 348.35 102.14 335.06 115.37 325.65&#10;  C 137.86 309.66 167.04 306.37 192.53 317.17&#10;  Q 218.75 328.29 229.15 354.59&#10;  Q 231.06 359.44 231.75 364.25&#10;  Q 233.19 374.27 233.16 385.00&#10;  Q 233.06 413.82 233.04 450.75&#10;  Z" fill="#01ae93"/>
<path d="M 1960.59 431.08&#10;  Q 1959.86 424.05 1959.85 414.75&#10;  Q 1959.81 382.23 1959.95 343.25&#10;  C 1959.98 334.70 1962.22 326.75 1970.74 323.27&#10;  C 1979.35 319.76 1989.56 324.26 1993.23 332.46&#10;  Q 1994.70 335.74 1994.69 345.82&#10;  Q 1994.59 457.66 1994.61 578.24&#10;  Q 1994.62 586.32 1989.50 592.06&#10;  C 1982.39 600.02 1968.11 598.73 1961.82 590.36&#10;  Q 1960.15 588.13 1960.01 583.52&#10;  Q 1959.78 575.79 1959.92 573.75&#10;  Q 1960.31 568.33 1960.16 567.19&#10;  A 1.78 1.75 -69.4 0 0 1959.76 566.29&#10;  C 1958.23 564.52 1956.38 564.91 1955.14 566.88&#10;  C 1942.64 586.68 1922.38 597.51 1898.79 597.76&#10;  Q 1867.55 598.10 1843.62 578.94&#10;  Q 1820.92 560.78 1811.20 533.53&#10;  Q 1810.64 531.94 1808.33 522.47&#10;  C 1805.53 510.93 1805.27 497.07 1807.29 486.78&#10;  Q 1816.83 438.17 1859.70 414.22&#10;  C 1876.02 405.10 1896.17 402.19 1914.63 405.11&#10;  C 1932.28 407.90 1945.59 417.19 1956.96 430.80&#10;  Q 1957.65 431.62 1959.07 432.21&#10;  A 1.10 1.10 0.0 0 0 1960.59 431.08&#10;  Z&#10;  M 1871.47 559.17&#10;  C 1894.46 572.34 1923.80 567.97 1942.06 548.88&#10;  Q 1959.69 530.46 1960.32 504.51&#10;  Q 1960.71 488.70 1956.79 476.72&#10;  C 1948.37 451.02 1924.12 433.08 1896.46 436.05&#10;  C 1835.57 442.57 1819.77 529.55 1871.47 559.17&#10;  Z" fill="#08a27c"/>
<path d="M 493.79 347.24&#10;  Q 497.24 353.41 497.20 359.39&#10;  Q 496.59 459.75 496.73 556.83&#10;  C 496.75 565.32 497.61 572.30 497.32 580.49&#10;  C 496.97 590.82 488.94 597.14 478.93 596.86&#10;  C 466.56 596.51 462.98 586.45 462.96 575.77&#10;  Q 462.80 465.24 462.80 360.76&#10;  C 462.80 348.80 468.97 340.47 481.47 340.37&#10;  C 486.66 340.33 491.16 342.53 493.79 347.24&#10;  Z" fill="#2b3139"/>
<path d="M 1442.28 442.29&#10;  Q 1443.14 442.26 1444.69 440.64&#10;  Q 1445.58 439.70 1450.43 432.60&#10;  C 1468.02 406.79 1502.71 399.51 1530.77 410.27&#10;  C 1546.73 416.39 1559.08 430.41 1566.39 445.89&#10;  C 1572.09 457.96 1575.23 470.69 1575.70 484.66&#10;  C 1575.89 490.14 1576.66 500.70 1576.66 508.13&#10;  Q 1576.67 528.73 1576.85 573.50&#10;  Q 1576.87 578.07 1575.81 583.52&#10;  C 1573.72 594.30 1561.78 599.53 1552.10 594.84&#10;  C 1545.06 591.43 1542.63 585.30 1542.64 577.86&#10;  C 1542.66 568.98 1542.12 559.53 1542.12 551.71&#10;  Q 1542.07 502.68 1541.58 482.74&#10;  Q 1541.46 478.05 1540.21 471.87&#10;  Q 1538.94 465.54 1536.92 461.45&#10;  C 1529.40 446.21 1516.36 440.01 1500.13 438.05&#10;  C 1494.44 437.37 1489.59 438.87 1483.89 439.36&#10;  Q 1481.29 439.59 1477.61 441.04&#10;  Q 1449.48 452.10 1443.74 482.43&#10;  Q 1442.82 487.32 1442.75 502.00&#10;  Q 1442.61 533.34 1442.89 570.84&#10;  C 1442.97 582.05 1443.79 588.79 1434.55 594.45&#10;  C 1424.76 600.45 1412.81 594.87 1410.26 583.90&#10;  Q 1408.80 577.64 1408.79 571.26&#10;  Q 1408.76 558.08 1408.82 366.50&#10;  C 1408.83 358.58 1408.97 350.79 1413.55 345.68&#10;  Q 1417.55 341.22 1423.72 340.72&#10;  C 1438.58 339.54 1442.80 351.05 1442.62 363.39&#10;  Q 1442.24 391.15 1442.30 422.52&#10;  C 1442.31 429.20 1441.47 435.29 1441.46 441.51&#10;  A 0.78 0.78 0.0 0 0 1442.28 442.29&#10;  Z" fill="#2b3139"/>
<path d="M 978.60 564.63&#10;  C 980.24 574.41 972.52 582.61 964.04 586.81&#10;  Q 955.35 591.12 951.38 592.12&#10;  C 942.99 594.25 936.27 596.18 928.74 596.83&#10;  C 915.33 597.99 901.76 597.64 889.38 593.88&#10;  C 861.96 585.53 840.61 565.30 829.57 538.94&#10;  Q 822.82 522.84 822.36 506.23&#10;  Q 821.65 481.12 832.54 459.55&#10;  C 845.96 433.00 869.77 413.95 898.96 407.94&#10;  Q 901.57 407.41 912.46 406.39&#10;  Q 919.21 405.76 926.03 406.26&#10;  C 942.68 407.50 959.01 412.26 971.43 423.00&#10;  C 978.07 428.75 983.96 436.78 980.11 445.78&#10;  C 977.88 450.99 972.37 454.14 966.93 455.42&#10;  C 959.75 457.11 950.93 451.10 945.18 447.56&#10;  C 931.22 438.97 913.77 437.37 898.38 441.65&#10;  C 874.20 448.38 858.94 474.99 856.94 498.45&#10;  C 854.85 522.91 866.19 543.18 886.20 556.54&#10;  Q 897.28 563.93 910.18 565.09&#10;  C 922.38 566.19 935.08 565.02 945.30 559.28&#10;  Q 947.62 557.99 955.41 553.21&#10;  Q 961.30 549.60 968.13 551.89&#10;  C 973.15 553.57 977.74 559.52 978.60 564.63&#10;  Z" fill="#2b3139"/>
<path d="M 1374.16 432.89&#10;  C 1378.13 439.35 1375.54 446.27 1369.72 450.60&#10;  C 1356.01 460.80 1345.86 448.50 1332.35 443.10&#10;  Q 1323.01 439.37 1311.24 439.14&#10;  Q 1284.47 438.62 1266.89 458.64&#10;  C 1250.75 477.02 1246.28 502.97 1254.27 525.79&#10;  C 1259.96 542.05 1273.99 554.95 1290.09 561.65&#10;  C 1298.33 565.07 1306.99 565.55 1315.75 565.30&#10;  C 1328.70 564.92 1338.77 560.55 1349.23 553.48&#10;  C 1357.22 548.07 1368.63 549.37 1373.53 557.92&#10;  C 1380.96 570.88 1365.08 582.95 1355.16 587.34&#10;  Q 1323.17 601.50 1291.38 595.73&#10;  Q 1271.05 592.05 1252.35 578.40&#10;  C 1222.10 556.33 1211.48 518.52 1218.49 482.53&#10;  C 1224.01 454.15 1243.54 429.51 1269.09 416.72&#10;  Q 1285.53 408.50 1303.50 406.50&#10;  Q 1320.89 404.57 1339.18 409.60&#10;  C 1353.46 413.53 1366.47 420.39 1374.16 432.89&#10;  Z" fill="#2b3139"/>
<path d="M 1147.49 565.20&#10;  C 1145.01 564.14 1142.98 565.87 1141.47 567.78&#10;  C 1129.96 582.37 1115.15 593.03 1096.99 596.13&#10;  C 1086.04 598.00 1072.72 597.45 1061.51 593.88&#10;  C 1031.15 584.22 1011.12 561.66 1001.83 531.66&#10;  C 996.04 512.98 997.23 491.03 1002.71 472.46&#10;  Q 1008.94 451.32 1023.85 435.17&#10;  C 1045.53 411.66 1074.79 402.90 1105.98 407.61&#10;  Q 1138.24 412.48 1159.60 437.13&#10;  Q 1175.15 455.09 1179.61 478.32&#10;  C 1181.30 487.13 1182.19 496.87 1182.16 506.62&#10;  Q 1182.04 548.49 1182.54 580.49&#10;  C 1182.65 587.87 1176.99 594.36 1169.48 595.79&#10;  Q 1163.13 597.00 1156.29 593.35&#10;  C 1146.99 588.38 1148.13 574.96 1148.08 566.09&#10;  A 0.97 0.97 0.0 0 0 1147.49 565.20&#10;  Z&#10;  M 1033.24 501.22&#10;  C 1032.75 534.58 1053.32 565.07 1089.10 565.59&#10;  C 1124.88 566.11 1146.32 536.24 1146.81 502.88&#10;  C 1147.30 469.51 1126.73 439.03 1090.95 438.51&#10;  C 1055.17 437.99 1033.73 467.86 1033.24 501.22&#10;  Z" fill="#2b3139"/>
<path d="M 1653.33 535.44&#10;  C 1652.74 537.28 1653.29 539.46 1654.54 541.06&#10;  Q 1670.55 561.63 1694.47 565.76&#10;  Q 1704.80 567.54 1718.25 565.65&#10;  C 1728.82 564.16 1738.63 559.34 1746.97 552.95&#10;  Q 1748.29 551.94 1755.64 546.18&#10;  C 1763.26 540.21 1776.13 547.57 1778.34 556.26&#10;  C 1780.11 563.19 1777.82 568.20 1772.59 573.28&#10;  C 1759.96 585.54 1743.14 592.63 1726.10 596.09&#10;  Q 1724.83 596.34 1713.88 597.57&#10;  Q 1707.46 598.29 1701.60 597.82&#10;  Q 1689.37 596.82 1686.80 596.35&#10;  Q 1659.38 591.34 1638.64 572.07&#10;  C 1624.66 559.08 1615.39 540.52 1611.98 521.76&#10;  Q 1607.53 497.28 1614.87 473.44&#10;  C 1625.30 439.59 1652.77 415.42 1687.21 407.72&#10;  Q 1699.00 405.09 1714.77 407.14&#10;  Q 1728.17 408.89 1737.65 413.60&#10;  C 1762.67 426.03 1778.79 448.66 1784.66 475.82&#10;  C 1786.88 486.10 1779.63 495.53 1770.35 499.33&#10;  C 1758.47 504.21 1745.40 508.56 1731.50 512.45&#10;  Q 1706.55 519.43 1654.58 534.25&#10;  A 1.84 1.83 -88.4 0 0 1653.33 535.44&#10;  Z&#10;  M 1645.99 510.81&#10;  A 0.65 0.65 0.0 0 0 1646.58 510.87&#10;  Q 1657.72 506.47 1670.35 502.60&#10;  Q 1701.02 493.20 1736.81 482.84&#10;  Q 1738.17 482.44 1746.22 479.56&#10;  C 1749.40 478.42 1752.74 478.08 1751.30 474.07&#10;  C 1745.13 456.87 1735.15 444.45 1717.17 439.94&#10;  C 1692.07 433.64 1666.20 441.42 1653.03 464.07&#10;  C 1645.52 476.98 1642.92 494.19 1644.67 508.82&#10;  Q 1644.82 510.03 1645.99 510.81&#10;  Z" fill="#2b3139"/>
<path d="M 721.58 552.58&#10;  Q 723.64 553.00 724.43 550.89&#10;  C 733.57 526.17 748.43 490.19 761.45 459.50&#10;  C 766.40 447.85 770.18 435.68 774.31 423.09&#10;  Q 774.80 421.61 777.32 416.68&#10;  C 780.08 411.30 784.35 407.68 790.25 407.20&#10;  Q 799.00 406.49 804.26 411.86&#10;  C 810.68 418.43 809.36 427.84 806.32 435.57&#10;  C 799.43 453.06 790.02 472.74 782.98 489.55&#10;  Q 773.84 511.41 764.72 533.00&#10;  C 758.40 547.97 750.51 564.08 745.09 576.67&#10;  Q 740.70 586.87 737.14 590.47&#10;  Q 731.35 596.31 722.96 596.99&#10;  Q 715.53 597.59 710.25 593.94&#10;  Q 703.39 589.20 700.44 583.01&#10;  Q 699.57 581.17 688.34 555.97&#10;  Q 680.91 539.28 676.51 528.76&#10;  Q 660.71 490.93 635.69 435.80&#10;  C 632.88 429.61 631.99 419.75 636.59 414.20&#10;  Q 642.51 407.07 651.13 407.07&#10;  C 657.79 407.07 663.07 411.39 666.06 416.92&#10;  Q 670.35 424.83 673.26 431.97&#10;  Q 703.78 506.84 708.73 519.51&#10;  C 713.25 531.09 716.94 541.16 720.33 551.47&#10;  A 1.69 1.66 -3.0 0 0 721.58 552.58&#10;  Z" fill="#2b3139"/>
<path d="M 544.57 496.70&#10;  C 543.62 497.70 543.83 499.30 544.75 500.19&#10;  Q 567.07 521.58 576.47 530.97&#10;  Q 594.87 549.32 606.02 559.97&#10;  C 612.42 566.09 617.84 572.73 616.35 582.34&#10;  C 615.66 586.84 613.07 589.35 609.46 592.44&#10;  C 602.37 598.50 591.74 596.26 585.43 590.03&#10;  Q 562.76 567.64 537.08 541.37&#10;  C 526.92 530.98 515.60 520.65 506.22 510.34&#10;  C 503.45 507.29 500.44 501.35 502.74 496.98&#10;  C 508.88 485.29 519.17 476.63 530.72 465.72&#10;  Q 559.19 438.83 583.14 414.89&#10;  C 589.05 408.99 596.62 404.43 604.72 409.48&#10;  Q 611.33 413.60 613.67 420.51&#10;  C 616.55 429.04 611.32 436.87 605.27 442.35&#10;  Q 580.78 464.50 555.89 485.89&#10;  Q 550.34 490.66 544.57 496.70&#10;  Z" fill="#2b3139"/>
<path d="M 1871.47 559.17&#10;  C 1819.77 529.55 1835.57 442.57 1896.46 436.05&#10;  C 1924.12 433.08 1948.37 451.02 1956.79 476.72&#10;  Q 1960.71 488.70 1960.32 504.51&#10;  Q 1959.69 530.46 1942.06 548.88&#10;  C 1923.80 567.97 1894.46 572.34 1871.47 559.17&#10;  Z" fill="#ffffff"/>
<path d="M 1645.99 510.81&#10;  Q 1644.82 510.03 1644.67 508.82&#10;  C 1642.92 494.19 1645.52 476.98 1653.03 464.07&#10;  C 1666.20 441.42 1692.07 433.64 1717.17 439.94&#10;  C 1735.15 444.45 1745.13 456.87 1751.30 474.07&#10;  C 1752.74 478.08 1749.40 478.42 1746.22 479.56&#10;  Q 1738.17 482.44 1736.81 482.84&#10;  Q 1701.02 493.20 1670.35 502.60&#10;  Q 1657.72 506.47 1646.58 510.87&#10;  A 0.65 0.65 0.0 0 1 1645.99 510.81&#10;  Z" fill="#ffffff"/>
<path d="M 1090.95 438.51&#10;  C 1126.73 439.03 1147.30 469.51 1146.81 502.88&#10;  C 1146.32 536.24 1124.88 566.11 1089.10 565.59&#10;  C 1053.32 565.07 1032.75 534.58 1033.24 501.22&#10;  C 1033.73 467.86 1055.17 437.99 1090.95 438.51&#10;  Z" fill="#ffffff"/>
<path d="M 224.42 469.61&#10;  C 228.99 469.58 232.71 472.03 232.86 476.90&#10;  Q 232.99 481.23 233.11 547.75&#10;  Q 233.12 552.74 231.66 560.81&#10;  C 225.64 594.31 196.53 615.25 163.50 616.88&#10;  C 141.12 617.98 118.41 607.68 103.05 591.56&#10;  C 83.92 571.48 76.51 537.08 86.35 511.03&#10;  Q 90.82 499.21 98.63 489.87&#10;  C 107.91 478.79 123.49 471.56 137.11 470.13&#10;  Q 142.44 469.57 154.01 469.60&#10;  Q 202.96 469.75 224.42 469.61&#10;  Z" fill="#0263a4"/>
<path d="M 244.60 483.05&#10;  C 244.62 478.64 244.08 471.53 249.86 470.24&#10;  Q 253.54 469.41 258.81 469.42&#10;  Q 323.25 469.48 328.23 469.62&#10;  C 333.40 469.76 337.47 469.60 341.48 470.51&#10;  C 374.02 477.84 393.32 503.35 394.25 536.31&#10;  C 395.01 563.51 383.30 588.64 360.85 603.53&#10;  C 331.77 622.82 294.26 621.19 267.58 599.04&#10;  Q 251.81 585.93 246.77 565.94&#10;  C 244.59 557.30 244.84 549.44 244.77 539.21&#10;  Q 244.53 508.96 244.60 483.05&#10;  Z" fill="#96cb47"/>
<path d="M 2049.08 917.00&#10;  L 0.00 917.00&#10;  L 0.00 916.74&#10;  L 2049.08 917.00&#10;  Z" fill="#ffffff"/>
</svg>