<svg width="3109" height="498" xmlns="http://www.w3.org/2000/svg" xmlns:xlink="http://www.w3.org/1999/xlink" xml:space="preserve" overflow="hidden"><defs><clipPath id="clip0"><rect x="697" y="1160" width="3109" height="498"/></clipPath></defs><g clip-path="url(#clip0)" transform="translate(-697 -1160)"><path d="M969.797 1399.72C960.348 1397.64 961.193 1386.04 961.144 1378.85 960.97 1350.66 960.954 1320.11 961.095 1287.2 961.16 1270.5 960.706 1257.69 964.213 1243.58 969.614 1221.8 980.865 1203.76 997.966 1189.44 1041.36 1153.15 1102.54 1150.27 1150.1 1181.58 1186.8 1205.75 1206.04 1246.69 1204.96 1291.08 1203.62 1344.87 1172.29 1386.61 1119.25 1398.76 1112.7 1400.27 1106.06 1400.02 1097.64 1400.28 1092.23 1400.46 1054.48 1400.69 984.393 1401 978.667 1401.03 973.803 1400.6 969.797 1399.72Z" fill="#FBA805" fill-rule="evenodd"/><path d="M942.804 1387.42C942.804 1396.37 936.243 1399.89 928.106 1399.94 917.797 1400 873.952 1400.01 796.566 1399.99 789.463 1399.99 781.554 1398.89 772.837 1396.67 743.749 1389.33 720.442 1367.72 708.374 1340.66 695.69 1312.21 692.701 1275.26 704.087 1245.52 713.507 1220.92 730.203 1199.31 751.69 1184.01 788.218 1158.02 835.61 1152.67 877.01 1170.23 905.4 1182.28 925.226 1202.56 936.486 1231.07 938.554 1236.33 939.962 1241.56 940.709 1246.78 942.268 1257.64 943.032 1268.88 942.999 1280.52 942.89 1311.76 942.825 1347.39 942.804 1387.42Z" fill="#01AE93" fill-rule="evenodd"/><path d="M3750.71 1355.54C3749.91 1347.9 3749.52 1339.04 3749.51 1328.94 3749.46 1293.64 3749.52 1254.82 3749.67 1212.5 3749.72 1198.57 3753.35 1185.63 3767.17 1179.96 3781.13 1174.24 3797.68 1181.57 3803.63 1194.93 3805.22 1198.49 3806.02 1205.74 3806 1216.68 3805.89 1338.11 3805.85 1464.28 3805.87 1595.2 3805.89 1603.97 3803.11 1611.47 3797.58 1617.71 3786.06 1630.67 3762.9 1628.57 3752.7 1614.94 3750.9 1612.52 3749.91 1608.8 3749.77 1603.8 3749.52 1595.41 3749.48 1590.1 3749.62 1587.89 3750.04 1582 3750.17 1578.44 3750.01 1577.2 3749.93 1576.66 3749.72 1576.15 3749.36 1575.74 3746.88 1572.86 3743.88 1573.49 3741.87 1576.7 3721.6 1608.95 3688.75 1626.58 3650.5 1626.99 3616.73 1627.36 3586.91 1617.14 3561.05 1596.34 3536.52 1576.62 3518.99 1551.97 3508.48 1522.39 3507.88 1520.66 3506.32 1514.66 3503.83 1504.37 3499.29 1485.58 3498.87 1463.01 3502.14 1446.25 3512.45 1393.47 3540.78 1354.08 3587.12 1328.08 3613.58 1313.23 3646.26 1308.49 3676.19 1313.24 3704.81 1317.79 3726.39 1332.92 3744.82 1355.08 3745.57 1355.97 3746.7 1356.74 3748.24 1357.38 3749.15 1357.76 3750.19 1357.33 3750.58 1356.42 3750.69 1356.14 3750.74 1355.84 3750.71 1355.54ZM3606.21 1564.14C3643.48 1585.59 3691.06 1578.47 3720.66 1547.39 3739.72 1527.39 3749.59 1503.3 3750.27 1475.12 3750.69 1457.96 3748.78 1442.87 3744.55 1429.87 3730.89 1388.01 3691.57 1358.79 3646.73 1363.63 3548 1374.25 3522.38 1515.9 3606.21 1564.14Z" fill="#08A27C" fill-rule="evenodd"/><path d="M1366.19 1219.17C1369.91 1225.86 1371.75 1232.44 1371.71 1238.92 1371.05 1347.7 1370.8 1454.69 1370.95 1559.91 1370.98 1573.71 1372.37 1585.06 1371.9 1598.37 1371.34 1615.17 1358.33 1625.44 1342.12 1624.99 1322.09 1624.42 1316.29 1608.06 1316.26 1590.7 1316.09 1470.9 1316 1354.39 1316 1241.15 1316 1221.71 1325.99 1208.16 1346.23 1208 1354.64 1207.94 1361.93 1211.51 1366.19 1219.17Z" fill="#2B3139" fill-rule="evenodd"/><path d="M2908.42 1374.02C2909.34 1373.98 2910.66 1373.09 2912.33 1371.34 2913.29 1370.32 2916.41 1365.97 2921.65 1358.29 2950.22 1316.39 3006.57 1304.57 3052.15 1322.04 3078.08 1331.97 3098.14 1354.73 3110.01 1379.86 3119.27 1399.45 3124.37 1420.12 3125.13 1442.8 3125.44 1451.69 3126.69 1468.83 3126.69 1480.89 3126.71 1503.19 3126.81 1538.56 3127 1587.01 3127.02 1591.96 3126.46 1597.38 3125.31 1603.28 3121.92 1620.78 3102.52 1629.27 3086.8 1621.65 3075.36 1616.12 3071.42 1606.17 3071.43 1594.09 3071.46 1579.67 3070.59 1564.33 3070.59 1551.64 3070.54 1498.58 3070.25 1461.26 3069.71 1439.68 3069.58 1434.6 3068.83 1428.72 3067.48 1422.03 3066.1 1415.18 3064.33 1409.55 3062.14 1405.12 3049.93 1380.38 3028.74 1370.31 3002.38 1367.13 2993.14 1366.03 2985.26 1368.46 2976 1369.26 2973.19 1369.51 2969.78 1370.42 2965.8 1371.99 2935.35 1383.96 2917.01 1406.35 2910.79 1439.18 2909.8 1444.47 2909.26 1455.06 2909.18 1470.94 2909.03 1504.86 2909.1 1542.11 2909.41 1582.69 2909.54 1600.89 2910.87 1611.83 2895.86 1621.02 2879.96 1630.76 2860.55 1621.7 2856.4 1603.89 2854.83 1597.12 2854.03 1590.28 2854.02 1583.37 2853.98 1569.11 2854 1458.31 2854.07 1250.98 2854.08 1238.13 2854.31 1225.48 2861.75 1217.19 2866.08 1212.36 2871.59 1209.68 2878.27 1209.14 2902.4 1207.22 2909.26 1225.9 2908.97 1245.94 2908.56 1275.98 2908.38 1307.97 2908.45 1341.92 2908.46 1352.77 2907.1 1362.65 2907.08 1372.75 2907.08 1373.45 2907.65 1374.02 2908.35 1374.02 2908.37 1374.02 2908.4 1374.02 2908.42 1374.02Z" fill="#2B3139" fill-rule="evenodd"/><path d="M2154.57 1572.72C2157.23 1588.61 2144.7 1601.94 2130.94 1608.76 2121.54 1613.43 2114.7 1616.31 2110.4 1617.39 2096.79 1620.85 2085.89 1623.99 2073.67 1625.05 2051.91 1626.93 2029.9 1626.36 2009.81 1620.25 1965.32 1606.68 1930.68 1573.81 1912.77 1530.97 1905.47 1513.53 1901.57 1495.81 1901.07 1477.82 1900.3 1450.61 1905.81 1425.33 1917.59 1401.96 1939.36 1358.81 1977.99 1327.86 2025.35 1318.09 2028.18 1317.52 2035.48 1316.68 2047.26 1315.57 2054.56 1314.89 2061.9 1314.82 2069.27 1315.36 2096.29 1317.37 2122.78 1325.11 2142.93 1342.56 2153.71 1351.91 2163.26 1364.96 2157.02 1379.58 2153.4 1388.05 2144.46 1393.17 2135.63 1395.25 2123.98 1397.99 2109.67 1388.23 2100.34 1382.47 2077.69 1368.51 2049.38 1365.91 2024.41 1372.87 1985.18 1383.81 1960.42 1427.05 1957.18 1465.17 1953.78 1504.92 1972.18 1537.86 2004.65 1559.57 2016.63 1567.58 2029.6 1572.21 2043.56 1573.47 2063.35 1575.25 2083.96 1573.35 2100.54 1564.02 2103.05 1562.63 2108.52 1559.34 2116.94 1554.16 2123.31 1550.25 2130.19 1549.53 2137.58 1552.02 2145.72 1554.75 2153.17 1564.42 2154.57 1572.72Z" fill="#2B3139" fill-rule="evenodd"/><path d="M2797.89 1358.74C2804.36 1369.24 2800.14 1380.48 2790.66 1387.51 2768.34 1404.08 2751.81 1384.1 2729.81 1375.33 2719.66 1371.29 2708.21 1369.14 2695.43 1368.9 2666.36 1368.33 2642.29 1378.89 2623.2 1400.57 2596.92 1430.43 2589.64 1472.59 2602.65 1509.66 2611.92 1536.08 2634.76 1557.04 2660.98 1567.92 2674.4 1573.48 2688.51 1574.26 2702.77 1573.85 2723.86 1573.23 2740.26 1566.13 2757.3 1554.65 2770.31 1545.86 2788.89 1547.97 2796.87 1561.86 2808.97 1582.92 2783.11 1602.52 2766.95 1609.66 2732.22 1624.99 2697.59 1629.54 2663.08 1623.29 2641.02 1619.3 2619.83 1609.92 2599.52 1595.13 2550.26 1559.28 2532.96 1497.85 2544.38 1439.39 2553.37 1393.28 2585.17 1353.25 2626.78 1332.47 2644.63 1323.57 2663.31 1318.04 2682.82 1315.87 2701.7 1313.78 2721.08 1315.46 2740.93 1320.91 2764.18 1327.29 2785.37 1338.43 2797.89 1358.74Z" fill="#2B3139" fill-rule="evenodd"/><path d="M2429.02 1574.04C2424.98 1572.32 2421.68 1575.13 2419.23 1578.23 2400.52 1601.94 2376.44 1619.26 2346.92 1624.29 2329.12 1627.33 2307.46 1626.44 2289.24 1620.64 2239.88 1604.94 2207.32 1568.29 2192.21 1519.54 2182.8 1489.19 2184.73 1453.53 2193.64 1423.36 2200.39 1400.46 2211.85 1380.27 2228.01 1362.77 2263.26 1324.58 2310.83 1310.34 2361.53 1318 2396.5 1323.27 2425.55 1339.26 2448.7 1365.96 2465.56 1385.41 2476.41 1407.72 2481.23 1432.88 2483.98 1447.2 2485.43 1463.02 2485.38 1478.86 2485.25 1524.21 2485.46 1564.22 2486 1598.88 2486.18 1610.87 2476.98 1621.42 2464.77 1623.74 2457.89 1625.05 2450.74 1623.73 2443.32 1619.77 2428.2 1611.7 2430.06 1589.9 2429.98 1575.48 2429.98 1574.85 2429.6 1574.29 2429.02 1574.04ZM2243.28 1470.09C2242.48 1524.29 2275.92 1573.83 2334.09 1574.67 2392.26 1575.52 2427.11 1526.99 2427.91 1472.78 2428.71 1418.57 2395.27 1369.05 2337.1 1368.2 2278.93 1367.36 2244.07 1415.89 2243.28 1470.09Z" fill="#2B3139" fill-rule="evenodd"/><path d="M3251.93 1525.21C3250.97 1528.2 3251.86 1531.75 3253.89 1534.35 3271.23 1556.66 3292.86 1570.06 3318.78 1574.54 3329.98 1576.47 3342.85 1576.41 3357.42 1574.36 3374.6 1571.93 3390.54 1564.09 3404.1 1553.69 3405.53 1552.6 3410.22 1548.93 3418.19 1542.68 3430.57 1532.97 3451.48 1544.94 3455.07 1559.08 3457.95 1570.36 3454.23 1578.51 3445.73 1586.77 3425.21 1606.72 3397.87 1618.25 3370.18 1623.88 3368.8 1624.16 3362.19 1624.96 3350.32 1626.29 3343.37 1627.07 3336.72 1627.21 3330.37 1626.7 3317.12 1625.61 3309.1 1624.82 3306.32 1624.31 3276.61 1618.87 3250.53 1605.71 3228.05 1584.8 3205.34 1563.67 3190.27 1533.47 3184.73 1502.95 3179.9 1476.4 3181.48 1450.19 3189.43 1424.33 3206.38 1369.26 3251.02 1329.93 3306.98 1317.4 3319.76 1314.55 3334.69 1314.24 3351.77 1316.46 3366.28 1318.36 3378.68 1321.86 3388.95 1326.97 3429.61 1347.19 3455.81 1384.01 3465.34 1428.2 3468.95 1444.93 3457.17 1460.27 3442.09 1466.45 3422.78 1474.39 3401.55 1481.47 3378.96 1487.8 3351.93 1495.37 3310.27 1507.19 3253.96 1523.27 3253 1523.53 3252.24 1524.26 3251.93 1525.21ZM3240 1485.13C3240.29 1485.32 3240.65 1485.35 3240.96 1485.23 3253.03 1480.46 3265.9 1475.97 3279.58 1471.78 3312.82 1461.58 3348.81 1450.86 3387.59 1439.63 3389.06 1439.19 3394.15 1437.41 3402.88 1434.29 3408.05 1432.43 3413.47 1431.88 3411.13 1425.36 3401.11 1397.37 3384.89 1377.16 3355.67 1369.83 3314.88 1359.58 3272.84 1372.23 3251.44 1409.09 3239.23 1430.09 3235.01 1458.09 3237.85 1481.9 3238.02 1483.21 3238.73 1484.29 3240 1485.13Z" fill="#2B3139" fill-rule="evenodd"/><path d="M1736.78 1553.64C1739.02 1554.09 1740.56 1553.18 1741.42 1550.89 1756.32 1510.69 1780.54 1452.18 1801.76 1402.27 1809.83 1383.32 1815.99 1363.53 1822.72 1343.05 1823.25 1341.45 1824.89 1337.97 1827.62 1332.63 1832.12 1323.88 1839.08 1317.99 1848.7 1317.21 1858.2 1316.44 1865.82 1318.97 1871.53 1324.79 1881.99 1335.47 1879.84 1350.78 1874.89 1363.35 1863.66 1391.79 1848.32 1423.8 1836.85 1451.14 1826.92 1474.83 1817 1498.39 1807.09 1521.8 1796.79 1546.14 1783.93 1572.34 1775.1 1592.82 1770.33 1603.87 1766.01 1611.36 1762.14 1615.26 1755.85 1621.59 1748.14 1625.13 1739.03 1625.86 1730.96 1626.51 1724.05 1624.86 1718.31 1620.9 1710.86 1615.76 1705.53 1609.84 1702.32 1603.13 1701.38 1601.13 1694.81 1586.47 1682.6 1559.15 1674.53 1541.06 1668.1 1526.31 1663.32 1514.9 1646.16 1473.89 1623.98 1423.49 1596.8 1363.72 1592.22 1353.66 1590.77 1337.62 1598.26 1328.6 1604.69 1320.87 1612.59 1317 1621.96 1317 1632.81 1317 1641.42 1324.03 1646.29 1333.02 1650.95 1341.59 1654.87 1349.75 1658.03 1357.49 1691.19 1438.67 1710.46 1486.12 1715.84 1499.86 1723.2 1518.69 1729.22 1535.07 1734.74 1551.83 1735.04 1552.75 1735.82 1553.44 1736.78 1553.64Z" fill="#2B3139" fill-rule="evenodd"/><path d="M1449.17 1462.44C1447.63 1464.06 1447.97 1466.67 1449.46 1468.12 1473.6 1491.32 1490.75 1508.01 1500.91 1518.19 1520.81 1538.09 1536.79 1553.82 1548.84 1565.37 1559.22 1575.33 1568.01 1586.13 1565.6 1601.77 1564.48 1609.09 1560.28 1613.17 1554.42 1618.2 1542.92 1628.06 1525.68 1624.41 1515.44 1614.28 1490.93 1589.99 1464.79 1563.6 1437.02 1535.11 1420.54 1518.21 1402.18 1501.4 1386.97 1484.63 1382.48 1479.67 1377.59 1470 1381.32 1462.89 1391.28 1443.87 1407.97 1429.78 1426.71 1412.03 1457.49 1382.87 1485.83 1355.3 1511.73 1329.34 1521.32 1319.74 1533.59 1312.32 1546.73 1320.54 1553.88 1325.01 1558.72 1330.99 1561.25 1338.48 1565.92 1352.36 1557.44 1365.1 1547.62 1374.01 1521.14 1398.04 1494.45 1421.65 1467.53 1444.85 1461.53 1450.02 1455.41 1455.89 1449.17 1462.44Z" fill="#2B3139" fill-rule="evenodd"/><path d="M928.853 1418.02C936.293 1417.97 942.349 1421.96 942.593 1429.89 942.735 1434.59 942.869 1473.06 943 1545.28 943.011 1550.7 942.223 1557.79 940.639 1566.55 930.839 1621.11 883.449 1655.21 829.676 1657.87 793.242 1659.66 756.271 1642.89 731.265 1616.63 700.122 1583.93 688.059 1527.9 704.078 1485.48 708.93 1472.64 715.594 1461.16 724.07 1451.02 739.177 1432.97 764.541 1421.19 786.714 1418.87 792.498 1418.26 801.67 1417.97 814.227 1418 867.353 1418.17 905.561 1418.17 928.853 1418.02Z" fill="#0263A4" fill-rule="evenodd"/><path d="M961.026 1440.18C961.059 1433 960.178 1421.43 969.599 1419.33 973.598 1418.43 978.461 1417.99 984.187 1418 1054.21 1418.07 1091.92 1418.17 1097.34 1418.33 1105.76 1418.55 1112.4 1418.29 1118.93 1419.77 1171.97 1431.7 1203.43 1473.21 1204.94 1526.85 1206.18 1571.11 1187.1 1612 1150.5 1636.23 1103.11 1667.62 1041.97 1664.96 998.482 1628.92 981.346 1614.7 970.039 1596.75 964.563 1575.06 961.01 1561 961.417 1548.21 961.303 1531.56 961.042 1498.75 960.949 1468.29 961.026 1440.18Z" fill="#96CB47" fill-rule="evenodd"/></g></svg>