<svg viewBox="87.552 219.39726027397262 1308.672 237.8082191780822" version="1.1" xmlns="http://www.w3.org/2000/svg" style="max-height: 500px" width="1308.672" height="237.8082191780822">
<g stroke-linecap="butt" fill="none" stroke-width="2.00">
<path d="M 213.41 329.17&#10;  C 213.47 336.15 218.24 336.17 223.76 336.16&#10;  Q 230.89 336.14 270.50 336.01&#10;  Q 280.56 335.98 283.72 335.38&#10;  C 306.80 331.02 321.68 312.69 323.37 289.68&#10;  C 324.97 267.80 315.47 247.05 296.49 235.72&#10;  Q 279.33 225.47 259.82 227.78&#10;  C 249.07 229.06 238.09 233.78 230.23 240.46&#10;  Q 213.63 254.57 213.42 276.86&#10;  Q 213.19 300.22 213.41 329.17" stroke="#fcd382"/>
<path d="M 194.50 335.95&#10;  C 198.44 335.99 204.89 336.27 204.88 330.77&#10;  Q 204.84 295.63 204.96 286.37&#10;  Q 205.18 270.02 203.43 263.80&#10;  C 196.71 239.87 174.01 226.83 149.72 227.79&#10;  C 130.27 228.56 112.87 239.35 102.47 255.80&#10;  Q 90.25 275.14 95.70 298.85&#10;  C 100.73 320.74 117.63 335.99 140.25 335.93&#10;  Q 181.65 335.83 194.50 335.95" stroke="#80d6c9"/>
<path d="M 1356.32 302.42&#10;  Q 1356.21 302.40 1355.96 302.30&#10;  Q 1355.76 302.21 1355.65 302.10&#10;  C 1351.65 298.00 1348.35 294.30 1344.44 291.75&#10;  C 1331.28 283.20 1314.82 280.99 1299.98 285.71&#10;  C 1281.91 291.45 1268.04 306.31 1260.83 324.25&#10;  C 1248.41 355.15 1260.23 391.99 1290.38 407.34&#10;  C 1305.27 414.92 1322.70 415.10 1337.61 408.06&#10;  C 1344.65 404.74 1350.05 400.05 1354.89 393.79&#10;  A 0.64 0.64 0.0 0 1 1356.03 394.10&#10;  C 1356.78 400.05 1357.87 406.61 1364.40 408.74&#10;  C 1372.10 411.25 1379.60 406.57 1380.23 398.52&#10;  Q 1380.50 395.03 1380.52 388.77&#10;  Q 1380.71 332.57 1380.55 248.21&#10;  Q 1380.53 240.42 1380.34 239.33&#10;  C 1378.82 231.01 1370.98 225.50 1362.83 229.81&#10;  C 1357.49 232.63 1356.62 237.14 1356.63 242.69&#10;  Q 1356.73 298.01 1356.93 301.89&#10;  A 0.51 0.51 0.0 0 1 1356.32 302.42" stroke="#80d6c9"/>
<path d="M 417.60 355.91&#10;  A 1.37 1.37 0.0 0 1 419.95 355.33&#10;  Q 427.74 363.92 437.35 372.97&#10;  C 446.41 381.50 456.41 391.56 465.92 400.88&#10;  Q 469.81 404.69 473.93 407.55&#10;  C 480.39 412.05 489.55 409.64 491.90 401.66&#10;  C 493.90 394.88 490.23 389.97 485.78 385.53&#10;  Q 469.86 369.66 449.69 351.01&#10;  Q 448.73 350.12 447.60 348.80&#10;  A 1.57 1.57 0.0 0 1 447.82 346.53&#10;  Q 461.68 335.86 476.17 323.00&#10;  C 479.97 319.63 485.02 315.92 488.54 311.40&#10;  C 498.40 298.73 482.13 285.59 470.67 296.44&#10;  C 458.66 307.81 452.15 314.14 442.16 322.89&#10;  Q 430.76 332.89 421.49 341.98&#10;  Q 420.10 343.34 418.52 344.28&#10;  A 0.85 0.85 0.0 0 1 417.26 343.80&#10;  Q 417.15 343.45 417.16 342.50&#10;  Q 417.46 302.39 417.17 256.73&#10;  Q 417.13 251.83 413.96 248.00&#10;  C 410.81 244.21 405.44 243.10 401.15 244.96&#10;  Q 393.25 248.39 393.30 257.76&#10;  Q 393.54 303.79 393.35 394.41&#10;  Q 393.34 399.54 394.11 402.11&#10;  C 395.91 408.20 402.64 411.89 408.48 410.18&#10;  Q 417.62 407.49 417.57 397.47&#10;  Q 417.41 364.91 417.46 357.25&#10;  Q 417.47 356.42 417.60 355.91" stroke="#9ca6af"/>
<path d="M 1017.29 311.53&#10;  Q 1017.04 309.76 1017.04 307.25&#10;  Q 1017.11 283.00 1017.04 257.49&#10;  C 1017.02 251.64 1014.51 246.00 1008.71 244.66&#10;  C 1002.48 243.21 996.37 246.03 994.42 252.20&#10;  Q 993.78 254.22 993.77 263.08&#10;  Q 993.71 315.78 993.77 393.33&#10;  C 993.77 399.93 993.44 405.19 999.83 408.42&#10;  Q 1003.15 410.09 1007.23 409.58&#10;  Q 1017.41 408.30 1017.20 396.30&#10;  Q 1017.06 388.35 1017.11 346.43&#10;  Q 1017.11 338.23 1018.03 334.64&#10;  C 1020.43 325.29 1028.08 317.08 1036.80 314.02&#10;  Q 1045.21 311.07 1056.07 312.97&#10;  C 1065.86 314.68 1073.17 323.01 1075.26 332.53&#10;  Q 1076.39 337.70 1076.45 343.52&#10;  Q 1076.72 368.54 1076.35 395.51&#10;  Q 1076.25 403.14 1081.09 406.86&#10;  C 1085.02 409.87 1091.11 410.17 1094.91 407.39&#10;  C 1100.75 403.11 1100.51 398.05 1100.56 390.56&#10;  Q 1100.70 368.58 1100.72 346.50&#10;  Q 1100.73 335.73 1099.89 329.28&#10;  C 1098.77 320.67 1093.93 309.92 1087.76 303.41&#10;  C 1076.27 291.27 1057.92 286.44 1041.92 291.20&#10;  C 1031.00 294.45 1024.96 302.51 1018.28 311.78&#10;  A 0.55 0.55 0.0 0 1 1017.29 311.53" stroke="#9ca6af"/>
<path d="M 947.65 314.04&#10;  C 955.95 317.06 963.63 324.77 972.35 317.34&#10;  C 977.70 312.78 978.61 304.55 972.71 300.04&#10;  Q 969.70 297.73 965.47 295.77&#10;  C 954.99 290.92 942.79 287.32 931.46 288.13&#10;  C 902.31 290.20 880.23 313.27 874.86 341.36&#10;  C 871.53 358.79 877.52 377.47 888.56 390.97&#10;  C 907.84 414.54 939.70 418.61 966.01 404.50&#10;  Q 972.81 400.85 974.99 396.46&#10;  C 977.82 390.76 974.89 383.60 969.01 381.04&#10;  C 960.69 377.43 954.00 383.98 946.45 386.69&#10;  Q 933.73 391.25 922.03 387.01&#10;  C 895.94 377.55 891.83 338.95 911.28 321.30&#10;  Q 927.40 306.66 947.65 314.04" stroke="#9ca6af"/>
<path d="M 1146.71 357.32&#10;  Q 1182.25 357.48 1224.04 357.39&#10;  Q 1231.66 357.38 1233.78 356.05&#10;  C 1239.50 352.47 1240.47 346.38 1239.35 339.76&#10;  Q 1238.01 331.84 1235.99 326.07&#10;  C 1227.15 300.73 1202.83 286.45 1176.32 288.31&#10;  C 1154.92 289.80 1136.27 305.23 1127.40 324.07&#10;  C 1118.98 341.95 1120.07 361.99 1128.99 379.28&#10;  C 1139.96 400.55 1161.36 412.69 1185.25 412.54&#10;  Q 1200.39 412.44 1214.19 407.93&#10;  C 1219.67 406.14 1227.45 402.94 1230.12 398.16&#10;  C 1232.54 393.84 1232.06 388.88 1228.74 385.23&#10;  C 1221.67 377.44 1211.44 385.06 1205.06 387.25&#10;  C 1184.85 394.17 1161.85 390.06 1150.99 370.38&#10;  Q 1147.56 364.15 1146.11 358.07&#10;  A 0.61 0.61 0.0 0 1 1146.71 357.32" stroke="#9ca6af"/>
<path d="M 725.06 311.12&#10;  Q 726.31 302.03 718.03 297.70&#10;  C 698.55 287.51 675.89 284.30 656.10 295.61&#10;  C 638.43 305.71 625.81 322.86 622.97 342.99&#10;  Q 620.69 359.22 627.82 375.45&#10;  Q 637.48 397.43 659.09 406.89&#10;  C 677.68 415.02 697.79 412.85 715.53 403.78&#10;  Q 719.12 401.94 721.87 399.16&#10;  C 726.99 393.97 726.01 386.46 720.71 381.77&#10;  C 716.84 378.35 711.45 378.48 707.02 380.77&#10;  C 701.19 383.77 696.57 386.20 691.11 387.48&#10;  C 673.61 391.58 656.15 382.39 650.27 365.25&#10;  Q 643.95 346.81 653.43 329.93&#10;  C 662.36 314.03 681.01 307.60 697.89 314.42&#10;  Q 701.10 315.72 708.46 319.26&#10;  C 714.87 322.34 724.07 318.34 725.06 311.12" stroke="#9ca6af"/>
<path d="M 833.13 395.97&#10;  Q 833.42 396.92 834.06 399.55&#10;  C 836.62 410.13 851.10 412.39 855.51 401.96&#10;  Q 856.52 399.58 856.54 394.05&#10;  C 856.64 366.23 856.51 336.27 856.63 303.01&#10;  C 856.65 297.31 853.57 291.82 847.76 290.65&#10;  C 841.74 289.43 835.65 293.38 834.19 299.26&#10;  Q 833.31 302.78 833.33 304.99&#10;  A 0.41 0.40 -73.0 0 1 832.70 305.33&#10;  Q 831.96 304.83 829.04 302.06&#10;  C 817.66 291.27 800.16 285.88 784.67 289.39&#10;  C 764.45 293.98 749.31 309.29 742.26 328.52&#10;  Q 733.82 351.54 742.92 374.91&#10;  C 754.28 404.09 784.43 420.77 814.41 408.93&#10;  Q 825.15 404.68 832.07 395.77&#10;  A 0.61 0.61 0.0 0 1 833.13 395.97" stroke="#9ca6af"/>
<path d="M 557.64 372.72&#10;  Q 556.63 372.25 556.17 371.27&#10;  Q 555.12 369.09 553.35 364.66&#10;  Q 543.35 339.59 529.97 307.29&#10;  Q 527.13 300.43 525.03 296.95&#10;  C 520.78 289.94 511.51 290.45 506.43 296.05&#10;  C 501.25 301.76 503.85 307.08 507.01 314.26&#10;  Q 516.95 336.82 518.56 340.70&#10;  C 528.95 365.88 534.94 381.40 543.89 400.35&#10;  C 546.03 404.89 550.27 410.22 555.56 411.02&#10;  C 566.19 412.63 570.63 404.29 574.05 396.04&#10;  Q 591.11 354.82 609.08 311.82&#10;  Q 610.49 308.44 611.14 304.94&#10;  C 612.29 298.75 608.40 293.52 602.27 292.13&#10;  C 595.57 290.62 590.16 295.29 587.67 301.41&#10;  Q 564.41 358.69 561.15 367.14&#10;  Q 560.27 369.43 558.47 372.47&#10;  A 0.65 0.64 28.1 0 1 557.64 372.72" stroke="#9ca6af"/>
<path d="M 213.51 351.08&#10;  Q 213.40 379.90 213.72 403.16&#10;  Q 214.01 425.34 230.59 439.32&#10;  C 238.44 445.94 249.39 450.60 260.10 451.83&#10;  Q 279.53 454.06 296.57 443.79&#10;  C 315.42 432.44 324.80 411.75 323.12 389.97&#10;  C 321.35 367.07 306.47 348.88 283.48 344.63&#10;  Q 280.33 344.05 270.31 344.05&#10;  Q 230.88 344.08 223.79 344.09&#10;  C 218.29 344.10 213.54 344.13 213.51 351.08" stroke="#cbe6a4"/>
<path d="M 204.87 349.83&#10;  C 204.86 345.86 201.94 344.18 198.50 344.18&#10;  Q 155.63 344.18 153.61 344.16&#10;  Q 137.37 343.95 132.44 344.86&#10;  C 123.30 346.54 112.85 351.33 106.71 358.74&#10;  Q 91.36 377.27 94.95 401.71&#10;  Q 99.20 430.59 123.81 444.58&#10;  Q 143.82 455.96 165.80 450.42&#10;  C 189.76 444.38 205.10 425.16 204.99 400.25&#10;  Q 204.87 373.91 204.87 349.83" stroke="#81b2d2"/>
<path d="M 1320.7251 308.4890&#10;  A 40.83 38.24 -88.8 0 0 1281.6384 348.5092&#10;  A 40.83 38.24 -88.8 0 0 1319.0149 390.1310&#10;  A 40.83 38.24 -88.8 0 0 1358.1016 350.1108&#10;  A 40.83 38.24 -88.8 0 0 1320.7251 308.4890" stroke="#80d6c9"/>
<path d="M 1216.01 337.63&#10;  C 1213.35 324.99 1203.70 313.37 1190.54 310.77&#10;  C 1180.05 308.70 1170.75 309.83 1162.11 316.37&#10;  Q 1152.76 323.45 1148.05 333.82&#10;  Q 1146.64 336.94 1146.83 337.84&#10;  A 0.66 0.64 83.9 0 0 1147.46 338.36&#10;  L 1215.35 338.43&#10;  A 0.67 0.67 0.0 0 0 1216.01 337.63" stroke="#9ca6af"/>
<path d="M 803.5253 311.4290&#10;  A 39.61 36.66 -84.4 0 0 763.1750 347.2726&#10;  A 39.61 36.66 -84.4 0 0 795.7947 390.2710&#10;  A 39.61 36.66 -84.4 0 0 836.1450 354.4274&#10;  A 39.61 36.66 -84.4 0 0 803.5253 311.4290" stroke="#9ca6af"/>
</g>
<path d="M 1536.00 0.00&#10;  L 1536.00 672.00&#10;  L 0.00 672.00&#10;  L 0.00 0.00&#10;  L 1536.00 0.00&#10;  Z&#10;  M 213.41 329.17&#10;  C 213.47 336.15 218.24 336.17 223.76 336.16&#10;  Q 230.89 336.14 270.50 336.01&#10;  Q 280.56 335.98 283.72 335.38&#10;  C 306.80 331.02 321.68 312.69 323.37 289.68&#10;  C 324.97 267.80 315.47 247.05 296.49 235.72&#10;  Q 279.33 225.47 259.82 227.78&#10;  C 249.07 229.06 238.09 233.78 230.23 240.46&#10;  Q 213.63 254.57 213.42 276.86&#10;  Q 213.19 300.22 213.41 329.17&#10;  Z&#10;  M 194.50 335.95&#10;  C 198.44 335.99 204.89 336.27 204.88 330.77&#10;  Q 204.84 295.63 204.96 286.37&#10;  Q 205.18 270.02 203.43 263.80&#10;  C 196.71 239.87 174.01 226.83 149.72 227.79&#10;  C 130.27 228.56 112.87 239.35 102.47 255.80&#10;  Q 90.25 275.14 95.70 298.85&#10;  C 100.73 320.74 117.63 335.99 140.25 335.93&#10;  Q 181.65 335.83 194.50 335.95&#10;  Z&#10;  M 1356.32 302.42&#10;  Q 1356.21 302.40 1355.96 302.30&#10;  Q 1355.76 302.21 1355.65 302.10&#10;  C 1351.65 298.00 1348.35 294.30 1344.44 291.75&#10;  C 1331.28 283.20 1314.82 280.99 1299.98 285.71&#10;  C 1281.91 291.45 1268.04 306.31 1260.83 324.25&#10;  C 1248.41 355.15 1260.23 391.99 1290.38 407.34&#10;  C 1305.27 414.92 1322.70 415.10 1337.61 408.06&#10;  C 1344.65 404.74 1350.05 400.05 1354.89 393.79&#10;  A 0.64 0.64 0.0 0 1 1356.03 394.10&#10;  C 1356.78 400.05 1357.87 406.61 1364.40 408.74&#10;  C 1372.10 411.25 1379.60 406.57 1380.23 398.52&#10;  Q 1380.50 395.03 1380.52 388.77&#10;  Q 1380.71 332.57 1380.55 248.21&#10;  Q 1380.53 240.42 1380.34 239.33&#10;  C 1378.82 231.01 1370.98 225.50 1362.83 229.81&#10;  C 1357.49 232.63 1356.62 237.14 1356.63 242.69&#10;  Q 1356.73 298.01 1356.93 301.89&#10;  A 0.51 0.51 0.0 0 1 1356.32 302.42&#10;  Z&#10;  M 417.60 355.91&#10;  A 1.37 1.37 0.0 0 1 419.95 355.33&#10;  Q 427.74 363.92 437.35 372.97&#10;  C 446.41 381.50 456.41 391.56 465.92 400.88&#10;  Q 469.81 404.69 473.93 407.55&#10;  C 480.39 412.05 489.55 409.64 491.90 401.66&#10;  C 493.90 394.88 490.23 389.97 485.78 385.53&#10;  Q 469.86 369.66 449.69 351.01&#10;  Q 448.73 350.12 447.60 348.80&#10;  A 1.57 1.57 0.0 0 1 447.82 346.53&#10;  Q 461.68 335.86 476.17 323.00&#10;  C 479.97 319.63 485.02 315.92 488.54 311.40&#10;  C 498.40 298.73 482.13 285.59 470.67 296.44&#10;  C 458.66 307.81 452.15 314.14 442.16 322.89&#10;  Q 430.76 332.89 421.49 341.98&#10;  Q 420.10 343.34 418.52 344.28&#10;  A 0.85 0.85 0.0 0 1 417.26 343.80&#10;  Q 417.15 343.45 417.16 342.50&#10;  Q 417.46 302.39 417.17 256.73&#10;  Q 417.13 251.83 413.96 248.00&#10;  C 410.81 244.21 405.44 243.10 401.15 244.96&#10;  Q 393.25 248.39 393.30 257.76&#10;  Q 393.54 303.79 393.35 394.41&#10;  Q 393.34 399.54 394.11 402.11&#10;  C 395.91 408.20 402.64 411.89 408.48 410.18&#10;  Q 417.62 407.49 417.57 397.47&#10;  Q 417.41 364.91 417.46 357.25&#10;  Q 417.47 356.42 417.60 355.91&#10;  Z&#10;  M 1017.29 311.53&#10;  Q 1017.04 309.76 1017.04 307.25&#10;  Q 1017.11 283.00 1017.04 257.49&#10;  C 1017.02 251.64 1014.51 246.00 1008.71 244.66&#10;  C 1002.48 243.21 996.37 246.03 994.42 252.20&#10;  Q 993.78 254.22 993.77 263.08&#10;  Q 993.71 315.78 993.77 393.33&#10;  C 993.77 399.93 993.44 405.19 999.83 408.42&#10;  Q 1003.15 410.09 1007.23 409.58&#10;  Q 1017.41 408.30 1017.20 396.30&#10;  Q 1017.06 388.35 1017.11 346.43&#10;  Q 1017.11 338.23 1018.03 334.64&#10;  C 1020.43 325.29 1028.08 317.08 1036.80 314.02&#10;  Q 1045.21 311.07 1056.07 312.97&#10;  C 1065.86 314.68 1073.17 323.01 1075.26 332.53&#10;  Q 1076.39 337.70 1076.45 343.52&#10;  Q 1076.72 368.54 1076.35 395.51&#10;  Q 1076.25 403.14 1081.09 406.86&#10;  C 1085.02 409.87 1091.11 410.17 1094.91 407.39&#10;  C 1100.75 403.11 1100.51 398.05 1100.56 390.56&#10;  Q 1100.70 368.58 1100.72 346.50&#10;  Q 1100.73 335.73 1099.89 329.28&#10;  C 1098.77 320.67 1093.93 309.92 1087.76 303.41&#10;  C 1076.27 291.27 1057.92 286.44 1041.92 291.20&#10;  C 1031.00 294.45 1024.96 302.51 1018.28 311.78&#10;  A 0.55 0.55 0.0 0 1 1017.29 311.53&#10;  Z&#10;  M 947.65 314.04&#10;  C 955.95 317.06 963.63 324.77 972.35 317.34&#10;  C 977.70 312.78 978.61 304.55 972.71 300.04&#10;  Q 969.70 297.73 965.47 295.77&#10;  C 954.99 290.92 942.79 287.32 931.46 288.13&#10;  C 902.31 290.20 880.23 313.27 874.86 341.36&#10;  C 871.53 358.79 877.52 377.47 888.56 390.97&#10;  C 907.84 414.54 939.70 418.61 966.01 404.50&#10;  Q 972.81 400.85 974.99 396.46&#10;  C 977.82 390.76 974.89 383.60 969.01 381.04&#10;  C 960.69 377.43 954.00 383.98 946.45 386.69&#10;  Q 933.73 391.25 922.03 387.01&#10;  C 895.94 377.55 891.83 338.95 911.28 321.30&#10;  Q 927.40 306.66 947.65 314.04&#10;  Z&#10;  M 1146.71 357.32&#10;  Q 1182.25 357.48 1224.04 357.39&#10;  Q 1231.66 357.38 1233.78 356.05&#10;  C 1239.50 352.47 1240.47 346.38 1239.35 339.76&#10;  Q 1238.01 331.84 1235.99 326.07&#10;  C 1227.15 300.73 1202.83 286.45 1176.32 288.31&#10;  C 1154.92 289.80 1136.27 305.23 1127.40 324.07&#10;  C 1118.98 341.95 1120.07 361.99 1128.99 379.28&#10;  C 1139.96 400.55 1161.36 412.69 1185.25 412.54&#10;  Q 1200.39 412.44 1214.19 407.93&#10;  C 1219.67 406.14 1227.45 402.94 1230.12 398.16&#10;  C 1232.54 393.84 1232.06 388.88 1228.74 385.23&#10;  C 1221.67 377.44 1211.44 385.06 1205.06 387.25&#10;  C 1184.85 394.17 1161.85 390.06 1150.99 370.38&#10;  Q 1147.56 364.15 1146.11 358.07&#10;  A 0.61 0.61 0.0 0 1 1146.71 357.32&#10;  Z&#10;  M 725.06 311.12&#10;  Q 726.31 302.03 718.03 297.70&#10;  C 698.55 287.51 675.89 284.30 656.10 295.61&#10;  C 638.43 305.71 625.81 322.86 622.97 342.99&#10;  Q 620.69 359.22 627.82 375.45&#10;  Q 637.48 397.43 659.09 406.89&#10;  C 677.68 415.02 697.79 412.85 715.53 403.78&#10;  Q 719.12 401.94 721.87 399.16&#10;  C 726.99 393.97 726.01 386.46 720.71 381.77&#10;  C 716.84 378.35 711.45 378.48 707.02 380.77&#10;  C 701.19 383.77 696.57 386.20 691.11 387.48&#10;  C 673.61 391.58 656.15 382.39 650.27 365.25&#10;  Q 643.95 346.81 653.43 329.93&#10;  C 662.36 314.03 681.01 307.60 697.89 314.42&#10;  Q 701.10 315.72 708.46 319.26&#10;  C 714.87 322.34 724.07 318.34 725.06 311.12&#10;  Z&#10;  M 833.13 395.97&#10;  Q 833.42 396.92 834.06 399.55&#10;  C 836.62 410.13 851.10 412.39 855.51 401.96&#10;  Q 856.52 399.58 856.54 394.05&#10;  C 856.64 366.23 856.51 336.27 856.63 303.01&#10;  C 856.65 297.31 853.57 291.82 847.76 290.65&#10;  C 841.74 289.43 835.65 293.38 834.19 299.26&#10;  Q 833.31 302.78 833.33 304.99&#10;  A 0.41 0.40 -73.0 0 1 832.70 305.33&#10;  Q 831.96 304.83 829.04 302.06&#10;  C 817.66 291.27 800.16 285.88 784.67 289.39&#10;  C 764.45 293.98 749.31 309.29 742.26 328.52&#10;  Q 733.82 351.54 742.92 374.91&#10;  C 754.28 404.09 784.43 420.77 814.41 408.93&#10;  Q 825.15 404.68 832.07 395.77&#10;  A 0.61 0.61 0.0 0 1 833.13 395.97&#10;  Z&#10;  M 557.64 372.72&#10;  Q 556.63 372.25 556.17 371.27&#10;  Q 555.12 369.09 553.35 364.66&#10;  Q 543.35 339.59 529.97 307.29&#10;  Q 527.13 300.43 525.03 296.95&#10;  C 520.78 289.94 511.51 290.45 506.43 296.05&#10;  C 501.25 301.76 503.85 307.08 507.01 314.26&#10;  Q 516.95 336.82 518.56 340.70&#10;  C 528.95 365.88 534.94 381.40 543.89 400.35&#10;  C 546.03 404.89 550.27 410.22 555.56 411.02&#10;  C 566.19 412.63 570.63 404.29 574.05 396.04&#10;  Q 591.11 354.82 609.08 311.82&#10;  Q 610.49 308.44 611.14 304.94&#10;  C 612.29 298.75 608.40 293.52 602.27 292.13&#10;  C 595.57 290.62 590.16 295.29 587.67 301.41&#10;  Q 564.41 358.69 561.15 367.14&#10;  Q 560.27 369.43 558.47 372.47&#10;  A 0.65 0.64 28.1 0 1 557.64 372.72&#10;  Z&#10;  M 213.51 351.08&#10;  Q 213.40 379.90 213.72 403.16&#10;  Q 214.01 425.34 230.59 439.32&#10;  C 238.44 445.94 249.39 450.60 260.10 451.83&#10;  Q 279.53 454.06 296.57 443.79&#10;  C 315.42 432.44 324.80 411.75 323.12 389.97&#10;  C 321.35 367.07 306.47 348.88 283.48 344.63&#10;  Q 280.33 344.05 270.31 344.05&#10;  Q 230.88 344.08 223.79 344.09&#10;  C 218.29 344.10 213.54 344.13 213.51 351.08&#10;  Z&#10;  M 204.87 349.83&#10;  C 204.86 345.86 201.94 344.18 198.50 344.18&#10;  Q 155.63 344.18 153.61 344.16&#10;  Q 137.37 343.95 132.44 344.86&#10;  C 123.30 346.54 112.85 351.33 106.71 358.74&#10;  Q 91.36 377.27 94.95 401.71&#10;  Q 99.20 430.59 123.81 444.58&#10;  Q 143.82 455.96 165.80 450.42&#10;  C 189.76 444.38 205.10 425.16 204.99 400.25&#10;  Q 204.87 373.91 204.87 349.83&#10;  Z" fill="#ffffff"/>
<path d="M 223.76 336.16&#10;  C 218.24 336.17 213.47 336.15 213.41 329.17&#10;  Q 213.19 300.22 213.42 276.86&#10;  Q 213.63 254.57 230.23 240.46&#10;  C 238.09 233.78 249.07 229.06 259.82 227.78&#10;  Q 279.33 225.47 296.49 235.72&#10;  C 315.47 247.05 324.97 267.80 323.37 289.68&#10;  C 321.68 312.69 306.80 331.02 283.72 335.38&#10;  Q 280.56 335.98 270.50 336.01&#10;  Q 230.89 336.14 223.76 336.16&#10;  Z" fill="#f9a704"/>
<path d="M 204.88 330.77&#10;  C 204.89 336.27 198.44 335.99 194.50 335.95&#10;  Q 181.65 335.83 140.25 335.93&#10;  C 117.63 335.99 100.73 320.74 95.70 298.85&#10;  Q 90.25 275.14 102.47 255.80&#10;  C 112.87 239.35 130.27 228.56 149.72 227.79&#10;  C 174.01 226.83 196.71 239.87 203.43 263.80&#10;  Q 205.18 270.02 204.96 286.37&#10;  Q 204.84 295.63 204.88 330.77&#10;  Z" fill="#01ad93"/>
<path d="M 1356.32 302.42&#10;  A 0.51 0.51 0.0 0 0 1356.93 301.89&#10;  Q 1356.73 298.01 1356.63 242.69&#10;  C 1356.62 237.14 1357.49 232.63 1362.83 229.81&#10;  C 1370.98 225.50 1378.82 231.01 1380.34 239.33&#10;  Q 1380.53 240.42 1380.55 248.21&#10;  Q 1380.71 332.57 1380.52 388.77&#10;  Q 1380.50 395.03 1380.23 398.52&#10;  C 1379.60 406.57 1372.10 411.25 1364.40 408.74&#10;  C 1357.87 406.61 1356.78 400.05 1356.03 394.10&#10;  A 0.64 0.64 0.0 0 0 1354.89 393.79&#10;  C 1350.05 400.05 1344.65 404.74 1337.61 408.06&#10;  C 1322.70 415.10 1305.27 414.92 1290.38 407.34&#10;  C 1260.23 391.99 1248.41 355.15 1260.83 324.25&#10;  C 1268.04 306.31 1281.91 291.45 1299.98 285.71&#10;  C 1314.82 280.99 1331.28 283.20 1344.44 291.75&#10;  C 1348.35 294.30 1351.65 298.00 1355.65 302.10&#10;  Q 1355.76 302.21 1355.96 302.30&#10;  Q 1356.21 302.40 1356.32 302.42&#10;  Z&#10;  M 1320.7251 308.4890&#10;  A 40.83 38.24 -88.8 0 0 1281.6384 348.5092&#10;  A 40.83 38.24 -88.8 0 0 1319.0149 390.1310&#10;  A 40.83 38.24 -88.8 0 0 1358.1016 350.1108&#10;  A 40.83 38.24 -88.8 0 0 1320.7251 308.4890&#10;  Z" fill="#01ad93"/>
<path d="M 417.60 355.91&#10;  Q 417.47 356.42 417.46 357.25&#10;  Q 417.41 364.91 417.57 397.47&#10;  Q 417.62 407.49 408.48 410.18&#10;  C 402.64 411.89 395.91 408.20 394.11 402.11&#10;  Q 393.34 399.54 393.35 394.41&#10;  Q 393.54 303.79 393.30 257.76&#10;  Q 393.25 248.39 401.15 244.96&#10;  C 405.44 243.10 410.81 244.21 413.96 248.00&#10;  Q 417.13 251.83 417.17 256.73&#10;  Q 417.46 302.39 417.16 342.50&#10;  Q 417.15 343.45 417.26 343.80&#10;  A 0.85 0.85 0.0 0 0 418.52 344.28&#10;  Q 420.10 343.34 421.49 341.98&#10;  Q 430.76 332.89 442.16 322.89&#10;  C 452.15 314.14 458.66 307.81 470.67 296.44&#10;  C 482.13 285.59 498.40 298.73 488.54 311.40&#10;  C 485.02 315.92 479.97 319.63 476.17 323.00&#10;  Q 461.68 335.86 447.82 346.53&#10;  A 1.57 1.57 0.0 0 0 447.60 348.80&#10;  Q 448.73 350.12 449.69 351.01&#10;  Q 469.86 369.66 485.78 385.53&#10;  C 490.23 389.97 493.90 394.88 491.90 401.66&#10;  C 489.55 409.64 480.39 412.05 473.93 407.55&#10;  Q 469.81 404.69 465.92 400.88&#10;  C 456.41 391.56 446.41 381.50 437.35 372.97&#10;  Q 427.74 363.92 419.95 355.33&#10;  A 1.37 1.37 0.0 0 0 417.60 355.91&#10;  Z" fill="#384c5f"/>
<path d="M 1017.29 311.53&#10;  A 0.55 0.55 0.0 0 0 1018.28 311.78&#10;  C 1024.96 302.51 1031.00 294.45 1041.92 291.20&#10;  C 1057.92 286.44 1076.27 291.27 1087.76 303.41&#10;  C 1093.93 309.92 1098.77 320.67 1099.89 329.28&#10;  Q 1100.73 335.73 1100.72 346.50&#10;  Q 1100.70 368.58 1100.56 390.56&#10;  C 1100.51 398.05 1100.75 403.11 1094.91 407.39&#10;  C 1091.11 410.17 1085.02 409.87 1081.09 406.86&#10;  Q 1076.25 403.14 1076.35 395.51&#10;  Q 1076.72 368.54 1076.45 343.52&#10;  Q 1076.39 337.70 1075.26 332.53&#10;  C 1073.17 323.01 1065.86 314.68 1056.07 312.97&#10;  Q 1045.21 311.07 1036.80 314.02&#10;  C 1028.08 317.08 1020.43 325.29 1018.03 334.64&#10;  Q 1017.11 338.23 1017.11 346.43&#10;  Q 1017.06 388.35 1017.20 396.30&#10;  Q 1017.41 408.30 1007.23 409.58&#10;  Q 1003.15 410.09 999.83 408.42&#10;  C 993.44 405.19 993.77 399.93 993.77 393.33&#10;  Q 993.71 315.78 993.77 263.08&#10;  Q 993.78 254.22 994.42 252.20&#10;  C 996.37 246.03 1002.48 243.21 1008.71 244.66&#10;  C 1014.51 246.00 1017.02 251.64 1017.04 257.49&#10;  Q 1017.11 283.00 1017.04 307.25&#10;  Q 1017.04 309.76 1017.29 311.53&#10;  Z" fill="#384c5f"/>
<path d="M 972.35 317.34&#10;  C 963.63 324.77 955.95 317.06 947.65 314.04&#10;  Q 927.40 306.66 911.28 321.30&#10;  C 891.83 338.95 895.94 377.55 922.03 387.01&#10;  Q 933.73 391.25 946.45 386.69&#10;  C 954.00 383.98 960.69 377.43 969.01 381.04&#10;  C 974.89 383.60 977.82 390.76 974.99 396.46&#10;  Q 972.81 400.85 966.01 404.50&#10;  C 939.70 418.61 907.84 414.54 888.56 390.97&#10;  C 877.52 377.47 871.53 358.79 874.86 341.36&#10;  C 880.23 313.27 902.31 290.20 931.46 288.13&#10;  C 942.79 287.32 954.99 290.92 965.47 295.77&#10;  Q 969.70 297.73 972.71 300.04&#10;  C 978.61 304.55 977.70 312.78 972.35 317.34&#10;  Z" fill="#384c5f"/>
<path d="M 1146.71 357.32&#10;  A 0.61 0.61 0.0 0 0 1146.11 358.07&#10;  Q 1147.56 364.15 1150.99 370.38&#10;  C 1161.85 390.06 1184.85 394.17 1205.06 387.25&#10;  C 1211.44 385.06 1221.67 377.44 1228.74 385.23&#10;  C 1232.06 388.88 1232.54 393.84 1230.12 398.16&#10;  C 1227.45 402.94 1219.67 406.14 1214.19 407.93&#10;  Q 1200.39 412.44 1185.25 412.54&#10;  C 1161.36 412.69 1139.96 400.55 1128.99 379.28&#10;  C 1120.07 361.99 1118.98 341.95 1127.40 324.07&#10;  C 1136.27 305.23 1154.92 289.80 1176.32 288.31&#10;  C 1202.83 286.45 1227.15 300.73 1235.99 326.07&#10;  Q 1238.01 331.84 1239.35 339.76&#10;  C 1240.47 346.38 1239.50 352.47 1233.78 356.05&#10;  Q 1231.66 357.38 1224.04 357.39&#10;  Q 1182.25 357.48 1146.71 357.32&#10;  Z&#10;  M 1216.01 337.63&#10;  C 1213.35 324.99 1203.70 313.37 1190.54 310.77&#10;  C 1180.05 308.70 1170.75 309.83 1162.11 316.37&#10;  Q 1152.76 323.45 1148.05 333.82&#10;  Q 1146.64 336.94 1146.83 337.84&#10;  A 0.66 0.64 83.9 0 0 1147.46 338.36&#10;  L 1215.35 338.43&#10;  A 0.67 0.67 0.0 0 0 1216.01 337.63&#10;  Z" fill="#384c5f"/>
<path d="M 725.06 311.12&#10;  C 724.07 318.34 714.87 322.34 708.46 319.26&#10;  Q 701.10 315.72 697.89 314.42&#10;  C 681.01 307.60 662.36 314.03 653.43 329.93&#10;  Q 643.95 346.81 650.27 365.25&#10;  C 656.15 382.39 673.61 391.58 691.11 387.48&#10;  C 696.57 386.20 701.19 383.77 707.02 380.77&#10;  C 711.45 378.48 716.84 378.35 720.71 381.77&#10;  C 726.01 386.46 726.99 393.97 721.87 399.16&#10;  Q 719.12 401.94 715.53 403.78&#10;  C 697.79 412.85 677.68 415.02 659.09 406.89&#10;  Q 637.48 397.43 627.82 375.45&#10;  Q 620.69 359.22 622.97 342.99&#10;  C 625.81 322.86 638.43 305.71 656.10 295.61&#10;  C 675.89 284.30 698.55 287.51 718.03 297.70&#10;  Q 726.31 302.03 725.06 311.12&#10;  Z" fill="#384c5f"/>
<path d="M 833.13 395.97&#10;  A 0.61 0.61 0.0 0 0 832.07 395.77&#10;  Q 825.15 404.68 814.41 408.93&#10;  C 784.43 420.77 754.28 404.09 742.92 374.91&#10;  Q 733.82 351.54 742.26 328.52&#10;  C 749.31 309.29 764.45 293.98 784.67 289.39&#10;  C 800.16 285.88 817.66 291.27 829.04 302.06&#10;  Q 831.96 304.83 832.70 305.33&#10;  A 0.41 0.40 -73.0 0 0 833.33 304.99&#10;  Q 833.31 302.78 834.19 299.26&#10;  C 835.65 293.38 841.74 289.43 847.76 290.65&#10;  C 853.57 291.82 856.65 297.31 856.63 303.01&#10;  C 856.51 336.27 856.64 366.23 856.54 394.05&#10;  Q 856.52 399.58 855.51 401.96&#10;  C 851.10 412.39 836.62 410.13 834.06 399.55&#10;  Q 833.42 396.92 833.13 395.97&#10;  Z&#10;  M 803.5253 311.4290&#10;  A 39.61 36.66 -84.4 0 0 763.1750 347.2726&#10;  A 39.61 36.66 -84.4 0 0 795.7947 390.2710&#10;  A 39.61 36.66 -84.4 0 0 836.1450 354.4274&#10;  A 39.61 36.66 -84.4 0 0 803.5253 311.4290&#10;  Z" fill="#384c5f"/>
<path d="M 557.64 372.72&#10;  A 0.65 0.64 28.1 0 0 558.47 372.47&#10;  Q 560.27 369.43 561.15 367.14&#10;  Q 564.41 358.69 587.67 301.41&#10;  C 590.16 295.29 595.57 290.62 602.27 292.13&#10;  C 608.40 293.52 612.29 298.75 611.14 304.94&#10;  Q 610.49 308.44 609.08 311.82&#10;  Q 591.11 354.82 574.05 396.04&#10;  C 570.63 404.29 566.19 412.63 555.56 411.02&#10;  C 550.27 410.22 546.03 404.89 543.89 400.35&#10;  C 534.94 381.40 528.95 365.88 518.56 340.70&#10;  Q 516.95 336.82 507.01 314.26&#10;  C 503.85 307.08 501.25 301.76 506.43 296.05&#10;  C 511.51 290.45 520.78 289.94 525.03 296.95&#10;  Q 527.13 300.43 529.97 307.29&#10;  Q 543.35 339.59 553.35 364.66&#10;  Q 555.12 369.09 556.17 371.27&#10;  Q 556.63 372.25 557.64 372.72&#10;  Z" fill="#384c5f"/>
<ellipse ry="38.24" rx="40.83" transform="translate(1319.87,349.31) rotate(-88.8)" cy="0.00" cx="0.00" fill="#ffffff"/>
<path d="M 1216.01 337.63&#10;  A 0.67 0.67 0.0 0 1 1215.35 338.43&#10;  L 1147.46 338.36&#10;  A 0.66 0.64 83.9 0 1 1146.83 337.84&#10;  Q 1146.64 336.94 1148.05 333.82&#10;  Q 1152.76 323.45 1162.11 316.37&#10;  C 1170.75 309.83 1180.05 308.70 1190.54 310.77&#10;  C 1203.70 313.37 1213.35 324.99 1216.01 337.63&#10;  Z" fill="#ffffff"/>
<ellipse ry="36.66" rx="39.61" transform="translate(799.66,350.85) rotate(-84.4)" cy="0.00" cx="0.00" fill="#ffffff"/>
<path d="M 213.51 351.08&#10;  C 213.54 344.13 218.29 344.10 223.79 344.09&#10;  Q 230.88 344.08 270.31 344.05&#10;  Q 280.33 344.05 283.48 344.63&#10;  C 306.47 348.88 321.35 367.07 323.12 389.97&#10;  C 324.80 411.75 315.42 432.44 296.57 443.79&#10;  Q 279.53 454.06 260.10 451.83&#10;  C 249.39 450.60 238.44 445.94 230.59 439.32&#10;  Q 214.01 425.34 213.72 403.16&#10;  Q 213.40 379.90 213.51 351.08&#10;  Z" fill="#97cd48"/>
<path d="M 198.50 344.18&#10;  C 201.94 344.18 204.86 345.86 204.87 349.83&#10;  Q 204.87 373.91 204.99 400.25&#10;  C 205.10 425.16 189.76 444.38 165.80 450.42&#10;  Q 143.82 455.96 123.81 444.58&#10;  Q 99.20 430.59 94.95 401.71&#10;  Q 91.36 377.27 106.71 358.74&#10;  C 112.85 351.33 123.30 346.54 132.44 344.86&#10;  Q 137.37 343.95 153.61 344.16&#10;  Q 155.63 344.18 198.50 344.18&#10;  Z" fill="#0264a4"/>
</svg>