<svg xmlns="http://www.w3.org/2000/svg" xmlns:xlink="http://www.w3.org/1999/xlink" xmlns:inkscape="http://www.inkscape.org/namespaces/inkscape" version="1.1" width="826" height="269" viewBox="0 0 826 269">
<defs>
<clipPath id="clip_0">
<path transform="matrix(1,0,0,-1,-35,395)" d="M0 .00012207H960V540.0001H0Z" clip-rule="evenodd"/>
</clipPath>
<clipPath id="clip_1">
<path transform="matrix(1,0,0,-1,-35,395)" d="M.000014305 0H960V540H.000014305Z" clip-rule="evenodd"/>
</clipPath>
<clipPath id="clip_2">
<path transform="matrix(1,0,0,-1,-35,395)" d="M.000014305 0H960V540H.000014305Z" clip-rule="evenodd"/>
</clipPath>
<clipPath id="clip_3">
<path transform="matrix(1,0,0,-1,-35,395)" d="M.000014305 0H960V540H.000014305Z" clip-rule="evenodd"/>
</clipPath>
<clipPath id="clip_4">
<path transform="matrix(1,0,0,-1,-35,395)" d="M.000014305 0H960V540H.000014305Z" clip-rule="evenodd"/>
</clipPath>
<clipPath id="clip_5">
<path transform="matrix(1,0,0,-1,-35,395)" d="M.000014305 0H960V540H.000014305Z" clip-rule="evenodd"/>
</clipPath>
<clipPath id="clip_6">
<path transform="matrix(1,0,0,-1,-35,395)" d="M.000014305 0H960V540H.000014305Z" clip-rule="evenodd"/>
</clipPath>
<clipPath id="clip_7">
<path transform="matrix(1,0,0,-1,-35,395)" d="M.000014305 0H960V540H.000014305Z" clip-rule="evenodd"/>
</clipPath>
<clipPath id="clip_8">
<path transform="matrix(1,0,0,-1,-35,395)" d="M.000014305 0H960V540H.000014305Z" clip-rule="evenodd"/>
</clipPath>
<clipPath id="clip_9">
<path transform="matrix(1,0,0,-1,-35,395)" d="M.000014305 0H960V540H.000014305Z" clip-rule="evenodd"/>
</clipPath>
<clipPath id="clip_10">
<path transform="matrix(1,0,0,-1,-35,395)" d="M.000014305 0H960V540H.000014305Z" clip-rule="evenodd"/>
</clipPath>
<clipPath id="clip_11">
<path transform="matrix(1,0,0,-1,-35,395)" d="M.000014305 0H960V540H.000014305Z" clip-rule="evenodd"/>
</clipPath>
<clipPath id="clip_12">
<path transform="matrix(1,0,0,-1,-35,395)" d="M.000014305 0H960V540H.000014305Z" clip-rule="evenodd"/>
</clipPath>
<clipPath id="clip_13">
<path transform="matrix(1,0,0,-1,-35,395)" d="M.000014305 0H960V540H.000014305Z" clip-rule="evenodd"/>
</clipPath>
<clipPath id="clip_14">
<path transform="matrix(1,0,0,-1,-35,395)" d="M.000014305 0H960V540H.000014305Z" clip-rule="evenodd"/>
</clipPath>
<clipPath id="clip_15">
<path transform="matrix(1,0,0,-1,-35,395)" d="M.000014305 0H960V540H.000014305Z" clip-rule="evenodd"/>
</clipPath>
<clipPath id="clip_16">
<path transform="matrix(1,0,0,-1,-35,395)" d="M.000014305 0H960V540H.000014305Z" clip-rule="evenodd"/>
</clipPath>
<clipPath id="clip_17">
<path transform="matrix(1,0,0,-1,-35,395)" d="M.000014305 0H960V540H.000014305Z" clip-rule="evenodd"/>
</clipPath>
<clipPath id="clip_18">
<path transform="matrix(1,0,0,-1,-35,395)" d="M.000014305 0H960V540H.000014305Z" clip-rule="evenodd"/>
</clipPath>
<clipPath id="clip_19">
<path transform="matrix(1,0,0,-1,-35,395)" d="M.000014305 0H960V540H.000014305Z" clip-rule="evenodd"/>
</clipPath>
<clipPath id="clip_20">
<path transform="matrix(1,0,0,-1,-35,395)" d="M.000014305 0H960V540H.000014305Z" clip-rule="evenodd"/>
</clipPath>
<clipPath id="clip_21">
<path transform="matrix(1,0,0,-1,-35,395)" d="M.000014305 0H960V540H.000014305Z" clip-rule="evenodd"/>
</clipPath>
</defs>
<g>
<g clip-path="url(#clip_0)">
<path transform="matrix(1,0,0,-1,-35,395)" d="M0 .000061035H960V540.00009H0Z" fill="#ffffff" fill-rule="evenodd"/>
</g>
<path transform="matrix(1,0,0,-1,-35,395)" stroke-width="1.75" stroke-linecap="butt" stroke-dasharray="7,5.25" stroke-linejoin="round" fill="none" stroke="#44546a" d="M46.2 200.09H754.8"/>
<path transform="matrix(1,0,0,-1,-35,395)" d="M147.89 381.96C147.89 386.21 151.33 389.66 155.58 389.66H372.35C376.6 389.66 380.04 386.21 380.04 381.96V351.17C380.04 346.92 376.6 343.48 372.35 343.48H155.58C151.33 343.48 147.89 346.92 147.89 351.17Z" fill="#b4c7e7" fill-rule="evenodd"/>
<path transform="matrix(1,0,0,-1,-35,395)" stroke-width="1.25" stroke-linecap="butt" stroke-miterlimit="10" stroke-linejoin="miter" fill="none" stroke="#172c51" d="M147.89 381.96C147.89 386.21 151.33 389.66 155.58 389.66H372.35C376.6 389.66 380.04 386.21 380.04 381.96V351.17C380.04 346.92 376.6 343.48 372.35 343.48H155.58C151.33 343.48 147.89 346.92 147.89 351.17Z"/>
<g clip-path="url(#clip_1)">
<text xml:space="preserve" transform="matrix(1 0 -0 1 -35 395)" font-size="24" font-family="Calibri"><tspan y="-358.49" x="223.56 244.08 256.728 269.328 281.28 286.8 292.224">Model 1</tspan></text>
</g>
<path transform="matrix(1,0,0,-1,-35,395)" d="M212.84 331.76 223.18 342.09 233.51 331.76H228.34V314.56H233.51L223.18 304.23 212.84 314.56H218.01V331.76Z" fill="#767171" fill-rule="evenodd"/>
<g clip-path="url(#clip_2)">
<text xml:space="preserve" transform="matrix(1 0 -0 1 -35 395)" font-size="24" font-family="Calibri"><tspan y="-313.87" x="240.79 252.67 264.166 275.22999 287.18199 299.78199 313.14997 320.83 328.63 340.582 352.99003 361.03004 366.55003 379.19804">PagedAttention</tspan></text>
</g>
<path transform="matrix(1,0,0,-1,-35,395)" d="M487.72 381.96C487.72 386.21 491.17 389.66 495.42 389.66H740.05C744.3 389.66 747.74 386.21 747.74 381.96V351.17C747.74 346.92 744.3 343.48 740.05 343.48H495.42C491.17 343.48 487.72 346.92 487.72 351.17Z" fill="#ffe699" fill-rule="evenodd"/>
<path transform="matrix(1,0,0,-1,-35,395)" stroke-width="1.25" stroke-linecap="butt" stroke-miterlimit="10" stroke-linejoin="miter" fill="none" stroke="#172c51" d="M487.72 381.96C487.72 386.21 491.17 389.66 495.42 389.66H740.05C744.3 389.66 747.74 386.21 747.74 381.96V351.17C747.74 346.92 744.3 343.48 740.05 343.48H495.42C491.17 343.48 487.72 346.92 487.72 351.17Z"/>
<g clip-path="url(#clip_3)">
<text xml:space="preserve" transform="matrix(1 0 -0 1 -35 395)" font-size="24" font-family="Calibri"><tspan y="-358.49" x="577.34 597.86007 610.50808 623.10806 635.06008 640.5801 646.0041">Model 2</tspan></text>
</g>
<path transform="matrix(1,0,0,-1,-35,395)" d="M487.74 221.06H656.81V268.053H487.74Z" fill="#fff2cc" fill-rule="evenodd"/>
<path transform="matrix(1,0,0,-1,-35,395)" stroke-width="1.25" stroke-linecap="butt" stroke-miterlimit="10" stroke-linejoin="miter" fill="none" stroke="#172c51" d="M487.74 221.06H656.81V268.053H487.74Z"/>
<path transform="matrix(1,0,0,-1,-35,395)" d="M489.09 331.76 499.42 342.09 509.76 331.76H504.59V314.56H509.76L499.42 304.23 489.09 314.56H494.26V331.76Z" fill="#767171" fill-rule="evenodd"/>
<g clip-path="url(#clip_4)">
<text xml:space="preserve" transform="matrix(1 0 -0 1 -35 395)" font-size="24" font-family="Calibri"><tspan y="-313.87" x="517.03 528.91006 540.406 551.47006 563.42208 576.02206 589.39 597.07 604.87 616.822 629.23 637.26998 642.79 655.438">PagedAttention</tspan></text>
</g>
<path transform="matrix(1,0,0,-1,-35,395)" d="M488.23 221.11H517.649V268.103H488.23Z" fill="#bf9000" fill-rule="evenodd"/>
<path transform="matrix(1,0,0,-1,-35,395)" stroke-width="1.25" stroke-linecap="butt" stroke-miterlimit="10" stroke-linejoin="miter" fill="none" stroke="#172c51" d="M488.23 221.11H517.649V268.103H488.23Z"/>
<path transform="matrix(1,0,0,-1,-35,395)" d="M517.14 221.14H545.22006V268.133H517.14Z" fill="#bf9000" fill-rule="evenodd"/>
<path transform="matrix(1,0,0,-1,-35,395)" stroke-width="1.25" stroke-linecap="butt" stroke-miterlimit="10" stroke-linejoin="miter" fill="none" stroke="#172c51" d="M517.14 221.14H545.22006V268.133H517.14Z"/>
<path transform="matrix(1,0,0,-1,-35,395)" d="M545.39 221.14H573.47006V268.133H545.39Z" fill="#bf9000" fill-rule="evenodd"/>
<path transform="matrix(1,0,0,-1,-35,395)" stroke-width="1.25" stroke-linecap="butt" stroke-miterlimit="10" stroke-linejoin="miter" fill="none" stroke="#172c51" d="M545.39 221.14H573.47006V268.133H545.39Z"/>
<path transform="matrix(1,0,0,-1,-35,395)" d="M601.35 221.14H629.43V268.133H601.35Z" fill="#bf9000" fill-rule="evenodd"/>
<path transform="matrix(1,0,0,-1,-35,395)" stroke-width="1.25" stroke-linecap="butt" stroke-miterlimit="10" stroke-linejoin="miter" fill="none" stroke="#172c51" d="M601.35 221.14H629.43V268.133H601.35Z"/>
<path transform="matrix(1,0,0,-1,-35,395)" d="M628.73 221.14H656.81V268.133H628.73Z" fill="#ffffff" fill-rule="evenodd"/>
<path transform="matrix(1,0,0,-1,-35,395)" stroke-width="1.25" stroke-linecap="butt" stroke-miterlimit="10" stroke-linejoin="miter" fill="none" stroke="#172c51" d="M628.73 221.14H656.81V268.133H628.73Z"/>
<path transform="matrix(1,0,0,-1,-35,395)" d="M663.63 221.16H691.71V268.153H663.63Z" fill="#ffc000" fill-rule="evenodd"/>
<path transform="matrix(1,0,0,-1,-35,395)" stroke-width="1.25" stroke-linecap="butt" stroke-miterlimit="10" stroke-linejoin="miter" fill="none" stroke="#172c51" d="M663.63 221.16H691.71V268.153H663.63Z"/>
<path transform="matrix(1,0,0,-1,-35,395)" d="M691.73 221.16H719.81V268.153H691.73Z" fill="#ffc000" fill-rule="evenodd"/>
<path transform="matrix(1,0,0,-1,-35,395)" stroke-width="1.25" stroke-linecap="butt" stroke-miterlimit="10" stroke-linejoin="miter" fill="none" stroke="#172c51" d="M691.73 221.16H719.81V268.153H691.73Z"/>
<path transform="matrix(1,0,0,-1,-35,395)" d="M212.53 268.15H380.05V302.971H212.53Z" fill="#deebf7" fill-rule="evenodd"/>
<path transform="matrix(1,0,0,-1,-35,395)" stroke-width="1.25" stroke-linecap="butt" stroke-miterlimit="10" stroke-linejoin="miter" fill="none" stroke="#172c51" d="M212.53 268.15H380.05V302.971H212.53Z"/>
<g clip-path="url(#clip_5)">
<text xml:space="preserve" transform="matrix(1 0 -0 1 -35 395)" font-size="24" font-family="Calibri" font-weight="bold"><tspan y="-277.46" x="250.06 261.58 272.74 282.7 294.556 304.588 317.476">kvcache</tspan></text>
</g>
<g clip-path="url(#clip_6)">
<text xml:space="preserve" transform="matrix(1 0 -0 1 -35 395)" font-size="24" font-family="Calibri" font-weight="bold"><tspan y="-277.46" x="329.62">d</tspan></text>
</g>
<path transform="matrix(1,0,0,-1,-35,395)" d="M487.72 268.15H656.68V302.971H487.72Z" fill="#fff2cc" fill-rule="evenodd"/>
<path transform="matrix(1,0,0,-1,-35,395)" stroke-width="1.25" stroke-linecap="butt" stroke-miterlimit="10" stroke-linejoin="miter" fill="none" stroke="#172c51" d="M487.72 268.15H656.68V302.971H487.72Z"/>
<g clip-path="url(#clip_7)">
<text xml:space="preserve" transform="matrix(1 0 -0 1 -35 395)" font-size="24" font-family="Calibri" font-weight="bold"><tspan y="-277.46" x="526.1 537.62 548.77999 558.7399 570.59597 580.6279 593.5159 605.58798">kvcached</tspan></text>
</g>
<g clip-path="url(#clip_8)">
<text xml:space="preserve" transform="matrix(1 0 -0 1 -35 395)" font-size="24" font-family="Calibri"><tspan y="-161.66" x="40.776 53.184003 65.256008 75.936008 85.32001 90.840007 100.776 112.272 117.792">Physical </tspan></text>
</g>
<g clip-path="url(#clip_9)">
<text xml:space="preserve" transform="matrix(1 0 -0 1 -35 395)" font-size="24" font-family="Calibri"><tspan y="-132.86" x="38.016 57.192 69.144008 88.392009 101.04001 109.48801">memory</tspan></text>
</g>
<g clip-path="url(#clip_10)">
<text xml:space="preserve" transform="matrix(1 0 -0 1 -35 395)" font-size="24.024" font-family="Calibri"><tspan y="-243.91" x="47.976 61.59761 67.12313 75.50751 83.55555 96.09608 107.60358 113.1291">Virtual </tspan></text>
</g>
<g clip-path="url(#clip_11)">
<text xml:space="preserve" transform="matrix(1 0 -0 1 -35 395)" font-size="24" font-family="Calibri"><tspan y="-215.09" x="39.336 58.512 70.464008 89.712009 102.36001 110.80801">memory</tspan></text>
</g>
<path transform="matrix(1,0,0,-1,-35,395)" d="M147.89 136.39H176.431V180.824H147.89Z" fill="#215f9a" fill-rule="evenodd"/>
<path transform="matrix(1,0,0,-1,-35,395)" stroke-width="1.25" stroke-linecap="butt" stroke-miterlimit="10" stroke-linejoin="miter" fill="none" stroke="#172c51" d="M147.89 136.39H176.431V180.824H147.89Z"/>
<path transform="matrix(1,0,0,-1,-35,395)" d="M212.78 219.86H380.3V266.853H212.78Z" fill="#deebf7" fill-rule="evenodd"/>
<path transform="matrix(1,0,0,-1,-35,395)" stroke-width="1.25" stroke-linecap="butt" stroke-miterlimit="10" stroke-linejoin="miter" fill="none" stroke="#172c51" d="M212.78 219.86H380.3V266.853H212.78Z"/>
<path transform="matrix(1,0,0,-1,-35,395)" d="M148.35 220.62H176.43001V267.613H148.35Z" fill="#215f9a" fill-rule="evenodd"/>
<path transform="matrix(1,0,0,-1,-35,395)" stroke-width="1.25" stroke-linecap="butt" stroke-miterlimit="10" stroke-linejoin="miter" fill="none" stroke="#172c51" d="M148.35 220.62H176.43001V267.613H148.35Z"/>
<path transform="matrix(1,0,0,-1,-35,395)" d="M176.59 220.62H204.67V267.613H176.59Z" fill="#215f9a" fill-rule="evenodd"/>
<path transform="matrix(1,0,0,-1,-35,395)" stroke-width="1.25" stroke-linecap="butt" stroke-miterlimit="10" stroke-linejoin="miter" fill="none" stroke="#172c51" d="M176.59 220.62H204.67V267.613H176.59Z"/>
<path transform="matrix(1,0,0,-1,-35,395)" d="M240.77 220.65H268.85V267.643H240.77Z" fill="#4e95d9" fill-rule="evenodd"/>
<path transform="matrix(1,0,0,-1,-35,395)" stroke-width="1.25" stroke-linecap="butt" stroke-miterlimit="10" stroke-linejoin="miter" fill="none" stroke="#172c51" d="M240.77 220.65H268.85V267.643H240.77Z"/>
<path transform="matrix(1,0,0,-1,-35,395)" d="M268.49 220.65H296.56999V267.643H268.49Z" fill="#4e95d9" fill-rule="evenodd"/>
<path transform="matrix(1,0,0,-1,-35,395)" stroke-width="1.25" stroke-linecap="butt" stroke-miterlimit="10" stroke-linejoin="miter" fill="none" stroke="#172c51" d="M268.49 220.65H296.56999V267.643H268.49Z"/>
<path transform="matrix(1,0,0,-1,-35,395)" d="M296.74 220.65H324.81999V267.643H296.74Z" fill="#ffffff" fill-rule="evenodd"/>
<path transform="matrix(1,0,0,-1,-35,395)" stroke-width="1.25" stroke-linecap="butt" stroke-miterlimit="10" stroke-linejoin="miter" fill="none" stroke="#172c51" d="M296.74 220.65H324.81999V267.643H296.74Z"/>
<path transform="matrix(1,0,0,-1,-35,395)" d="M324.11 220.65H352.18998V267.643H324.11Z" fill="#ffffff" fill-rule="evenodd"/>
<path transform="matrix(1,0,0,-1,-35,395)" stroke-width="1.25" stroke-linecap="butt" stroke-miterlimit="10" stroke-linejoin="miter" fill="none" stroke="#172c51" d="M324.11 220.65H352.18998V267.643H324.11Z"/>
<path transform="matrix(1,0,0,-1,-35,395)" d="M352.36 220.65H380.43998V267.643H352.36Z" fill="#ffffff" fill-rule="evenodd"/>
<path transform="matrix(1,0,0,-1,-35,395)" stroke-width="1.25" stroke-linecap="butt" stroke-miterlimit="10" stroke-linejoin="miter" fill="none" stroke="#172c51" d="M352.36 220.65H380.43998V267.643H352.36Z"/>
<path transform="matrix(1,0,0,-1,-35,395)" d="M212.53 220.65H240.61V267.643H212.53Z" fill="#4e95d9" fill-rule="evenodd"/>
<path transform="matrix(1,0,0,-1,-35,395)" stroke-width="1.25" stroke-linecap="butt" stroke-miterlimit="10" stroke-linejoin="miter" fill="none" stroke="#172c51" d="M212.53 220.65H240.61V267.643H212.53Z"/>
<path transform="matrix(1,0,0,-1,-35,395)" d="M176.43 136.39H204.971V180.824H176.43Z" fill="#215f9a" fill-rule="evenodd"/>
<path transform="matrix(1,0,0,-1,-35,395)" stroke-width="1.25" stroke-linecap="butt" stroke-miterlimit="10" stroke-linejoin="miter" fill="none" stroke="#172c51" d="M176.43 136.39H204.971V180.824H176.43Z"/>
<path transform="matrix(1,0,0,-1,-35,395)" d="M204.97 136.39H233.511V180.824H204.97Z" fill="#ffffff" fill-rule="evenodd"/>
<path transform="matrix(1,0,0,-1,-35,395)" stroke-width="1.25" stroke-linecap="butt" stroke-miterlimit="10" stroke-linejoin="miter" fill="none" stroke="#172c51" d="M204.97 136.39H233.511V180.824H204.97Z"/>
<path transform="matrix(1,0,0,-1,-35,395)" d="M233.51 136.39H262.051V180.824H233.51Z" fill="#4e95d9" fill-rule="evenodd"/>
<path transform="matrix(1,0,0,-1,-35,395)" stroke-width="1.25" stroke-linecap="butt" stroke-miterlimit="10" stroke-linejoin="miter" fill="none" stroke="#172c51" d="M233.51 136.39H262.051V180.824H233.51Z"/>
<path transform="matrix(1,0,0,-1,-35,395)" d="M262.05 136.39H290.591V180.824H262.05Z" fill="#ffffff" fill-rule="evenodd"/>
<path transform="matrix(1,0,0,-1,-35,395)" stroke-width="1.25" stroke-linecap="butt" stroke-miterlimit="10" stroke-linejoin="miter" fill="none" stroke="#172c51" d="M262.05 136.39H290.591V180.824H262.05Z"/>
<path transform="matrix(1,0,0,-1,-35,395)" d="M290.59 136.39H319.13099V180.824H290.59Z" fill="#4e95d9" fill-rule="evenodd"/>
<path transform="matrix(1,0,0,-1,-35,395)" stroke-width="1.25" stroke-linecap="butt" stroke-miterlimit="10" stroke-linejoin="miter" fill="none" stroke="#172c51" d="M290.59 136.39H319.13099V180.824H290.59Z"/>
<path transform="matrix(1,0,0,-1,-35,395)" d="M319.13 136.39H347.67103V180.824H319.13Z" fill="#ffffff" fill-rule="evenodd"/>
<path transform="matrix(1,0,0,-1,-35,395)" stroke-width="1.25" stroke-linecap="butt" stroke-miterlimit="10" stroke-linejoin="miter" fill="none" stroke="#172c51" d="M319.13 136.39H347.67103V180.824H319.13Z"/>
<path transform="matrix(1,0,0,-1,-35,395)" d="M347.68 136.39H376.221V180.824H347.68Z" fill="#ffffff" fill-rule="evenodd"/>
<path transform="matrix(1,0,0,-1,-35,395)" stroke-width="1.25" stroke-linecap="butt" stroke-miterlimit="10" stroke-linejoin="miter" fill="none" stroke="#172c51" d="M347.68 136.39H376.221V180.824H347.68Z"/>
<path transform="matrix(1,0,0,-1,-35,395)" d="M376.54 136.39H405.081V180.824H376.54Z" fill="#bf9000" fill-rule="evenodd"/>
<path transform="matrix(1,0,0,-1,-35,395)" stroke-width="1.25" stroke-linecap="butt" stroke-miterlimit="10" stroke-linejoin="miter" fill="none" stroke="#172c51" d="M376.54 136.39H405.081V180.824H376.54Z"/>
<path transform="matrix(1,0,0,-1,-35,395)" d="M405.08 136.39H433.62098V180.824H405.08Z" fill="#4e95d9" fill-rule="evenodd"/>
<path transform="matrix(1,0,0,-1,-35,395)" stroke-width="1.25" stroke-linecap="butt" stroke-miterlimit="10" stroke-linejoin="miter" fill="none" stroke="#172c51" d="M405.08 136.39H433.62098V180.824H405.08Z"/>
<path transform="matrix(1,0,0,-1,-35,395)" d="M462.78 136.39H491.32099V180.824H462.78Z" fill="#ffffff" fill-rule="evenodd"/>
<path transform="matrix(1,0,0,-1,-35,395)" stroke-width="1.25" stroke-linecap="butt" stroke-miterlimit="10" stroke-linejoin="miter" fill="none" stroke="#172c51" d="M462.78 136.39H491.32099V180.824H462.78Z"/>
<path transform="matrix(1,0,0,-1,-35,395)" d="M491.32 136.39H519.861V180.824H491.32Z" fill="#ffffff" fill-rule="evenodd"/>
<path transform="matrix(1,0,0,-1,-35,395)" stroke-width="1.25" stroke-linecap="butt" stroke-miterlimit="10" stroke-linejoin="miter" fill="none" stroke="#172c51" d="M491.32 136.39H519.861V180.824H491.32Z"/>
<path transform="matrix(1,0,0,-1,-35,395)" d="M519.86 136.39H548.401V180.824H519.86Z" fill="#bf9000" fill-rule="evenodd"/>
<path transform="matrix(1,0,0,-1,-35,395)" stroke-width="1.25" stroke-linecap="butt" stroke-miterlimit="10" stroke-linejoin="miter" fill="none" stroke="#172c51" d="M519.86 136.39H548.401V180.824H519.86Z"/>
<path transform="matrix(1,0,0,-1,-35,395)" d="M548.41 136.39H576.951V180.824H548.41Z" fill="#bf9000" fill-rule="evenodd"/>
<path transform="matrix(1,0,0,-1,-35,395)" stroke-width="1.25" stroke-linecap="butt" stroke-miterlimit="10" stroke-linejoin="miter" fill="none" stroke="#172c51" d="M548.41 136.39H576.951V180.824H548.41Z"/>
<path transform="matrix(1,0,0,-1,-35,395)" d="M576.95 136.39H605.491V180.824H576.95Z" fill="#bf9000" fill-rule="evenodd"/>
<path transform="matrix(1,0,0,-1,-35,395)" stroke-width="1.25" stroke-linecap="butt" stroke-miterlimit="10" stroke-linejoin="miter" fill="none" stroke="#172c51" d="M576.95 136.39H605.491V180.824H576.95Z"/>
<path transform="matrix(1,0,0,-1,-35,395)" d="M605.49 136.39H634.031V180.824H605.49Z" fill="#ffffff" fill-rule="evenodd"/>
<path transform="matrix(1,0,0,-1,-35,395)" stroke-width="1.25" stroke-linecap="butt" stroke-miterlimit="10" stroke-linejoin="miter" fill="none" stroke="#172c51" d="M605.49 136.39H634.031V180.824H605.49Z"/>
<path transform="matrix(1,0,0,-1,-35,395)" d="M634.53 136.39H663.07107V180.824H634.53Z" fill="#bf9000" fill-rule="evenodd"/>
<path transform="matrix(1,0,0,-1,-35,395)" stroke-width="1.25" stroke-linecap="butt" stroke-miterlimit="10" stroke-linejoin="miter" fill="none" stroke="#172c51" d="M634.53 136.39H663.07107V180.824H634.53Z"/>
<path transform="matrix(1,0,0,-1,-35,395)" d="M663.23 136.39H691.771V180.824H663.23Z" fill="#ffc000" fill-rule="evenodd"/>
<path transform="matrix(1,0,0,-1,-35,395)" stroke-width="1.25" stroke-linecap="butt" stroke-miterlimit="10" stroke-linejoin="miter" fill="none" stroke="#172c51" d="M663.23 136.39H691.771V180.824H663.23Z"/>
<path transform="matrix(1,0,0,-1,-35,395)" d="M691.95 136.39H720.491V180.824H691.95Z" fill="#ffc000" fill-rule="evenodd"/>
<path transform="matrix(1,0,0,-1,-35,395)" stroke-width="1.25" stroke-linecap="butt" stroke-miterlimit="10" stroke-linejoin="miter" fill="none" stroke="#172c51" d="M691.95 136.39H720.491V180.824H691.95Z"/>
<path transform="matrix(1,0,0,-1,-35,395)" stroke-width="1.5" stroke-linecap="butt" stroke-miterlimit="10" stroke-linejoin="miter" fill="none" stroke="#404040" d="M226.57 220.65 247.78 180.82"/>
<path transform="matrix(1,0,0,-1,-35,395)" stroke-width="1.5" stroke-linecap="butt" stroke-miterlimit="10" stroke-linejoin="miter" fill="none" stroke="#404040" d="M162.39 220.62 162.16 180.82"/>
<path transform="matrix(1,0,0,-1,-35,395)" stroke-width="1.5" stroke-linecap="butt" stroke-miterlimit="10" stroke-linejoin="miter" fill="none" stroke="#404040" d="M190.63 220.62 190.7 180.82"/>
<path transform="matrix(1,0,0,-1,-35,395)" stroke-width="1.5" stroke-linecap="butt" stroke-miterlimit="10" stroke-linejoin="miter" fill="none" stroke="#404040" d="M254.81 220.65 304.86 180.82"/>
<path transform="matrix(1,0,0,-1,-35,395)" stroke-width="1.5" stroke-linecap="butt" stroke-miterlimit="10" stroke-linejoin="miter" fill="none" stroke="#404040" d="M282.53 220.65 419.35 180.82"/>
<path transform="matrix(1,0,0,-1,-35,395)" stroke-width="1.5" stroke-linecap="butt" stroke-miterlimit="10" stroke-linejoin="miter" fill="none" stroke="#404040" d="M615.39 221.14 648.8 180.82"/>
<path transform="matrix(1,0,0,-1,-35,395)" stroke-width="1.5" stroke-linecap="butt" stroke-miterlimit="10" stroke-linejoin="miter" fill="none" stroke="#404040" d="M559.43 221.14 390.81 180.82"/>
<path transform="matrix(1,0,0,-1,-35,395)" d="M572.91 220.89H600.99V267.883H572.91Z" fill="#ffffff" fill-rule="evenodd"/>
<path transform="matrix(1,0,0,-1,-35,395)" stroke-width="1.25" stroke-linecap="butt" stroke-miterlimit="10" stroke-linejoin="miter" fill="none" stroke="#172c51" d="M572.91 220.89H600.99V267.883H572.91Z"/>
<path transform="matrix(1,0,0,-1,-35,395)" stroke-width="1.5" stroke-linecap="butt" stroke-miterlimit="10" stroke-linejoin="miter" fill="none" stroke="#404040" d="M502.94 221.11 562.68 180.82"/>
<path transform="matrix(1,0,0,-1,-35,395)" stroke-width="1.5" stroke-linecap="butt" stroke-miterlimit="10" stroke-linejoin="miter" fill="none" stroke="#404040" d="M531.18 221.14 591.22 180.82"/>
<g clip-path="url(#clip_12)">
<text xml:space="preserve" transform="matrix(1 0 -0 1 -35 395)" font-size="24" font-family="Calibri"><tspan y="-218.04" x="774.53 795.05007 807.0021 826.2261 838.8741 847.3221 858.1941">Memory </tspan></text>
</g>
<g clip-path="url(#clip_13)">
<text xml:space="preserve" transform="matrix(1 0 -0 1 -35 395)" font-size="24" font-family="Calibri"><tspan y="-189.24" x="788.09 800.69 812.186 823.25 835.202">pages</tspan></text>
</g>
<path transform="matrix(1,0,0,-1,-35,395)" d="M720.12 221.16H748.2V268.153H720.12Z" fill="#ffc000" fill-rule="evenodd"/>
<path transform="matrix(1,0,0,-1,-35,395)" stroke-width="1.25" stroke-linecap="butt" stroke-miterlimit="10" stroke-linejoin="miter" fill="none" stroke="#172c51" d="M720.12 221.16H748.2V268.153H720.12Z"/>
<path transform="matrix(1,0,0,-1,-35,395)" d="M720.26 136.39H748.192V180.824H720.26Z" fill="#ffc000" fill-rule="evenodd"/>
<path transform="matrix(1,0,0,-1,-35,395)" stroke-width="1.25" stroke-linecap="butt" stroke-miterlimit="10" stroke-linejoin="miter" fill="none" stroke="#172c51" d="M720.26 136.39H748.192V180.824H720.26Z"/>
<path transform="matrix(1,0,0,-1,-35,395)" stroke-width="1.5" stroke-linecap="butt" stroke-miterlimit="10" stroke-linejoin="miter" fill="none" stroke="#404040" d="M677.67 221.16 677.5 180.82"/>
<path transform="matrix(1,0,0,-1,-35,395)" stroke-width="1.5" stroke-linecap="butt" stroke-miterlimit="10" stroke-linejoin="miter" fill="none" stroke="#404040" d="M705.77 221.16 706.22 180.82"/>
<path transform="matrix(1,0,0,-1,-35,395)" stroke-width="1.5" stroke-linecap="butt" stroke-miterlimit="10" stroke-linejoin="miter" fill="none" stroke="#404040" d="M734.16 221.16 734.23 180.82"/>
<g clip-path="url(#clip_14)">
<text xml:space="preserve" transform="matrix(1 0 -0 1 -35 395)" font-size="24" font-family="Calibri"><tspan y="-302.69" x="134.18 154.7 167.34799 179.948 191.9">Model</tspan></text>
</g>
<g clip-path="url(#clip_15)">
<text xml:space="preserve" transform="matrix(1 0 -0 1 -35 395)" font-size="24" font-family="Calibri"><tspan y="-273.89" x="128.06">w</tspan></text>
</g>
<g clip-path="url(#clip_16)">
<text xml:space="preserve" transform="matrix(1 0 -0 1 -35 395)" font-size="24" font-family="Calibri"><tspan y="-273.89" x="144.98 156.93199 162.452 173.756 186.14 194.18">eights</tspan></text>
</g>
<path transform="matrix(1,0,0,-1,-35,395)" d="M381.53 286.31H486.24V284.81H381.53ZM387.15 281.41 380.04 285.56 387.15 289.71C387.51 289.92 387.97 289.8 388.18 289.44 388.38 289.08 388.26 288.62 387.91 288.41L381.91 284.91V286.21L387.91 282.71C388.26 282.5 388.38 282.04 388.18 281.68 387.97 281.32 387.51 281.2 387.15 281.41ZM480.61 289.71 487.72 285.56 480.61 281.41C480.26 281.2 479.8 281.32 479.59 281.68 479.38 282.04 479.5 282.5 479.86 282.71L485.86 286.21V284.91L479.86 288.41C479.5 288.62 479.38 289.08 479.59 289.44 479.8 289.8 480.26 289.92 480.61 289.71Z" fill="#262626"/>
<g clip-path="url(#clip_17)">
<text xml:space="preserve" transform="matrix(1 0 -0 1 -35 395)" font-size="24" font-family="Calibri"><tspan y="-263.02" x="408 423.888 439.68 460.19999">OOM </tspan></text>
</g>
<g clip-path="url(#clip_18)">
<text xml:space="preserve" transform="matrix(1 0 -0 1 -35 395)" font-size="24" font-family="Calibri"><tspan y="-234.22" x="384.72 395.88 406.44 419.088 424.608 437.208 448.704 461.30403 471.45603">avoidance</tspan></text>
</g>
<path transform="matrix(1,0,0,-1,-35,395)" d="M433.85 136.39H462.391V180.824H433.85Z" fill="#ffffff" fill-rule="evenodd"/>
<path transform="matrix(1,0,0,-1,-35,395)" stroke-width="1.25" stroke-linecap="butt" stroke-miterlimit="10" stroke-linejoin="miter" fill="none" stroke="#172c51" d="M433.85 136.39H462.391V180.824H433.85Z"/>
<g clip-path="url(#clip_19)">
<text xml:space="preserve" transform="matrix(1 0 -0 1 -35 395)" font-size="24" font-family="Calibri"><tspan y="-302.69" x="679.32 699.84 712.48806 725.088 737.04006">Model</tspan></text>
</g>
<g clip-path="url(#clip_20)">
<text xml:space="preserve" transform="matrix(1 0 -0 1 -35 395)" font-size="24" font-family="Calibri"><tspan y="-273.89" x="673.2">w</tspan></text>
</g>
<g clip-path="url(#clip_21)">
<text xml:space="preserve" transform="matrix(1 0 -0 1 -35 395)" font-size="24" font-family="Calibri"><tspan y="-273.89" x="690.12 702.072 707.59207 718.89608 731.28 739.32">eights</tspan></text>
</g>
<path transform="matrix(1,0,0,-1,-35,395)" d="M776.24 197.88 771.89 193.75 772.92 192.66 777.28 196.79ZM768.63 190.65 764.27 186.52 765.3 185.44 769.66 189.56ZM761.01 183.43 756.65 179.3 757.68 178.21 762.04 182.34ZM753.39 176.2 749.03 172.08 750.06 170.99 754.42 175.12ZM745.77 168.98 741.41 164.85 742.45 163.76 746.8 167.89ZM738.21 164.91 735.92 158.6 742.33 160.56Z" fill="#262626"/>
<path transform="matrix(1,0,0,-1,-35,395)" d="M775.1 211.79 770.13 215.16 770.98 216.4 775.94 213.03ZM766.41 217.69 761.45 221.07 762.29 222.31 767.26 218.93ZM757.73 223.6 752.77 226.97 753.61 228.21 758.57 224.84ZM749.05 229.5 744.08 232.87 744.93 234.11 749.89 230.74ZM741.21 232.11 737.94 237.96 744.59 237.07Z" fill="#262626"/>
</g>
</svg>
